<svg xmlns="http://www.w3.org/2000/svg" viewBox="0 0 511.37 127.57"><defs><style>.a{fill:#326ce5;}.b,.d,.f{fill:#fff;}.c{fill:#2f383f;}.d{fill-rule:evenodd;}.e{fill:#161a1d;}.f{stroke:#161a1d;stroke-miterlimit:10;stroke-width:0.63px;}.g{fill:#232f3e;}.h{fill:#334554;}</style></defs><path class="a" d="M188.22,250.57a1.94,1.94,0,0,0-.68.17l-9.16,4.39a1.7,1.7,0,0,0-.95,1.17l-2.27,9.85a1.79,1.79,0,0,0,.24,1.33l.1.14,6.35,7.89a1.77,1.77,0,0,0,1.37.65H193.4a1.78,1.78,0,0,0,1.37-.65l6.34-7.89a1.72,1.72,0,0,0,.34-1.48l-2.26-9.84a1.76,1.76,0,0,0-.95-1.18l-9.17-4.38A1.93,1.93,0,0,0,188.22,250.57Z" transform="translate(-11.57 -193.53)"/><path class="b" d="M188.21,249.86a2,2,0,0,0-.71.18l-9.68,4.63a1.87,1.87,0,0,0-1,1.24l-2.39,10.39a1.85,1.85,0,0,0,.25,1.41,1.71,1.71,0,0,0,.11.14l6.7,8.33a1.84,1.84,0,0,0,1.45.69h10.74a1.85,1.85,0,0,0,1.45-.69l6.69-8.33a1.78,1.78,0,0,0,.36-1.55l-2.39-10.39a1.83,1.83,0,0,0-1-1.25L189.11,250A2,2,0,0,0,188.21,249.86Zm0,.71a1.93,1.93,0,0,1,.85.17l9.17,4.38a1.76,1.76,0,0,1,.95,1.18l2.26,9.84a1.75,1.75,0,0,1-.34,1.48l-6.34,7.89a1.78,1.78,0,0,1-1.37.65H183.22a1.77,1.77,0,0,1-1.37-.65l-6.35-7.89-.1-.14a1.74,1.74,0,0,1-.24-1.33l2.27-9.84a1.72,1.72,0,0,1,.95-1.18l9.16-4.39a1.94,1.94,0,0,1,.68-.17Z" transform="translate(-11.57 -193.53)"/><path class="c" d="M178.29,282.7a1.46,1.46,0,0,0-1.2.54,2.83,2.83,0,0,0,0,3,1.49,1.49,0,0,0,1.22.51,3.71,3.71,0,0,0,.67-.06l.67-.18v.76a4.12,4.12,0,0,1-1.45.24,2.33,2.33,0,0,1-1.83-.72,3,3,0,0,1-.63-2.06,3.26,3.26,0,0,1,.31-1.48,2.15,2.15,0,0,1,.89-1,2.67,2.67,0,0,1,1.38-.34,3.44,3.44,0,0,1,1.53.35l-.32.74a3.34,3.34,0,0,0-.58-.23A2,2,0,0,0,178.29,282.7Z" transform="translate(-11.57 -193.53)"/><path class="c" d="M181.57,287.44h-.87v-5.77h.87Z" transform="translate(-11.57 -193.53)"/><path class="c" d="M185.71,287.44l-.12-.54h0a1.34,1.34,0,0,1-.52.45,1.74,1.74,0,0,1-.77.16,1.5,1.5,0,0,1-1.11-.37,1.56,1.56,0,0,1-.37-1.12v-2.68h.88v2.53a1.12,1.12,0,0,0,.19.7.75.75,0,0,0,.61.24,1,1,0,0,0,.81-.33,1.84,1.84,0,0,0,.25-1.1v-2h.88v4.1Z" transform="translate(-11.57 -193.53)"/><path class="c" d="M190.4,286.27a1.07,1.07,0,0,1-.44.92,2.13,2.13,0,0,1-1.26.32,2.88,2.88,0,0,1-1.31-.25v-.75a3.25,3.25,0,0,0,1.34.33q.81,0,.81-.48a.37.37,0,0,0-.09-.26,1.27,1.27,0,0,0-.29-.22l-.57-.25a2.54,2.54,0,0,1-1-.55,1,1,0,0,1-.25-.71.94.94,0,0,1,.43-.82,2,2,0,0,1,1.15-.29,3.22,3.22,0,0,1,1.37.3l-.28.65a3.14,3.14,0,0,0-1.12-.27q-.69,0-.69.39a.4.4,0,0,0,.18.33,3.6,3.6,0,0,0,.79.36,4.09,4.09,0,0,1,.73.36,1,1,0,0,1,.46.89Z" transform="translate(-11.57 -193.53)"/><path class="c" d="M192.86,286.81a2.31,2.31,0,0,0,.64-.1v.65a1.36,1.36,0,0,1-.37.11,2.42,2.42,0,0,1-.47,0c-.83,0-1.24-.43-1.24-1.3V284h-.56v-.39l.6-.32.3-.87h.53v.92h1.17V284h-1.17v2.19a.65.65,0,0,0,.16.47A.58.58,0,0,0,192.86,286.81Z" transform="translate(-11.57 -193.53)"/><path class="c" d="M196.11,287.51a1.94,1.94,0,0,1-1.49-.56,2.1,2.1,0,0,1-.54-1.53,2.29,2.29,0,0,1,.5-1.58,1.7,1.7,0,0,1,1.37-.58,1.72,1.72,0,0,1,1.29.5,1.88,1.88,0,0,1,.47,1.35v.47H195a1.35,1.35,0,0,0,.33.92,1.12,1.12,0,0,0,.85.32,2.9,2.9,0,0,0,.68-.07,3.48,3.48,0,0,0,.67-.22v.7a2.56,2.56,0,0,1-.64.22A4.22,4.22,0,0,1,196.11,287.51Zm-.16-3.59a.85.85,0,0,0-.66.27,1.2,1.2,0,0,0-.3.76h1.86a1.18,1.18,0,0,0-.24-.77A.87.87,0,0,0,196,283.92Z" transform="translate(-11.57 -193.53)"/><path class="c" d="M200.78,283.26a2.42,2.42,0,0,1,.43,0l-.09.81a1.58,1.58,0,0,0-.38,0,1.12,1.12,0,0,0-.85.34,1.25,1.25,0,0,0-.32.88v2.15h-.87v-4.1h.68l.11.72h0a1.56,1.56,0,0,1,.53-.58A1.22,1.22,0,0,1,200.78,283.26Z" transform="translate(-11.57 -193.53)"/><path class="c" d="M172.84,296.61l-.54-1.5h-2.07l-.53,1.5h-.94l2-5.44h1l2,5.44Zm-.77-2.27-.51-1.47c0-.1-.09-.26-.16-.47s-.11-.37-.13-.47c-.07.31-.17.64-.29,1l-.49,1.41Z" transform="translate(-11.57 -193.53)"/><path class="c" d="M177.3,296.61l-.12-.54h-.05a1.15,1.15,0,0,1-.52.45,1.67,1.67,0,0,1-.76.17,1.51,1.51,0,0,1-1.11-.37,1.54,1.54,0,0,1-.37-1.13v-2.68h.88V295a1.11,1.11,0,0,0,.19.71.75.75,0,0,0,.6.23,1,1,0,0,0,.81-.33,1.79,1.79,0,0,0,.26-1.1v-2H178v4.1Z" transform="translate(-11.57 -193.53)"/><path class="c" d="M180.75,296a2,2,0,0,0,.64-.1v.66a1.51,1.51,0,0,1-.37.1,2.42,2.42,0,0,1-.47.05c-.83,0-1.24-.44-1.24-1.31v-2.21h-.56v-.38l.6-.32.3-.87h.53v.91h1.17v.66h-1.17v2.2a.59.59,0,0,0,.16.46A.56.56,0,0,0,180.75,296Z" transform="translate(-11.57 -193.53)"/><path class="c" d="M185.85,294.55a2.2,2.2,0,0,1-.52,1.57,1.82,1.82,0,0,1-1.43.57,2,2,0,0,1-1-.26,1.77,1.77,0,0,1-.68-.75,2.51,2.51,0,0,1-.23-1.13,2.21,2.21,0,0,1,.51-1.55,2.08,2.08,0,0,1,2.85,0A2.24,2.24,0,0,1,185.85,294.55Zm-3,0c0,.95.35,1.42,1,1.42s1-.47,1-1.42-.35-1.4-1-1.4a.89.89,0,0,0-.8.36A1.88,1.88,0,0,0,182.86,294.55Z" transform="translate(-11.57 -193.53)"/><path class="c" d="M189.6,295.44a1.1,1.1,0,0,1-.43.93,2.15,2.15,0,0,1-1.26.32,3,3,0,0,1-1.31-.25v-.75a3.25,3.25,0,0,0,1.34.33c.54,0,.81-.16.81-.49a.39.39,0,0,0-.09-.26,1.28,1.28,0,0,0-.29-.21,4.12,4.12,0,0,0-.57-.25,2.84,2.84,0,0,1-1-.55,1,1,0,0,1-.25-.71.94.94,0,0,1,.42-.82,2,2,0,0,1,1.16-.29,3.37,3.37,0,0,1,1.37.29l-.28.66a3,3,0,0,0-1.12-.28q-.69,0-.69.39a.4.4,0,0,0,.18.33,4.12,4.12,0,0,0,.78.37,3.39,3.39,0,0,1,.74.36,1.08,1.08,0,0,1,.34.37A1.06,1.06,0,0,1,189.6,295.44Z" transform="translate(-11.57 -193.53)"/><path class="c" d="M192.2,296.69a1.8,1.8,0,0,1-1.42-.55,2.75,2.75,0,0,1,0-3.15,1.86,1.86,0,0,1,1.46-.55,2.78,2.78,0,0,1,1.17.24l-.27.7a2.69,2.69,0,0,0-.91-.22c-.71,0-1.06.47-1.06,1.42a1.72,1.72,0,0,0,.26,1,.93.93,0,0,0,.78.35,2.26,2.26,0,0,0,1.1-.29v.76a1.69,1.69,0,0,1-.5.2A2.9,2.9,0,0,1,192.2,296.69Z" transform="translate(-11.57 -193.53)"/><path class="c" d="M196.87,296.61l-.17-.57h0a1.7,1.7,0,0,1-.6.51,1.89,1.89,0,0,1-.77.14,1.32,1.32,0,0,1-1-.33,1.25,1.25,0,0,1-.33-.92,1.07,1.07,0,0,1,.47-1,2.74,2.74,0,0,1,1.43-.35l.71,0v-.22a.83.83,0,0,0-.18-.59.77.77,0,0,0-.57-.2,2.11,2.11,0,0,0-.61.1,3.32,3.32,0,0,0-.55.22l-.29-.63a3.4,3.4,0,0,1,.74-.26,3.32,3.32,0,0,1,.74-.09,1.78,1.78,0,0,1,1.19.34,1.35,1.35,0,0,1,.39,1.07v2.76Zm-1.3-.59a1.05,1.05,0,0,0,.76-.27.92.92,0,0,0,.29-.74v-.36l-.52,0a1.81,1.81,0,0,0-.9.2.61.61,0,0,0-.28.56.54.54,0,0,0,.16.43A.72.72,0,0,0,195.57,296Z" transform="translate(-11.57 -193.53)"/><path class="c" d="M199.58,296.61h-.87v-5.77h.87Z" transform="translate(-11.57 -193.53)"/><path class="c" d="M202.62,296.69a2,2,0,0,1-1.5-.56,2.13,2.13,0,0,1-.54-1.54,2.36,2.36,0,0,1,.5-1.58,1.74,1.74,0,0,1,1.38-.57,1.67,1.67,0,0,1,1.28.49,1.9,1.9,0,0,1,.47,1.36v.47h-2.73a1.36,1.36,0,0,0,.32.92,1.14,1.14,0,0,0,.86.32,3.45,3.45,0,0,0,.67-.07,3.64,3.64,0,0,0,.68-.23v.71a2.73,2.73,0,0,1-.65.21A3.26,3.26,0,0,1,202.62,296.69Zm-.16-3.59a.9.9,0,0,0-.67.26,1.36,1.36,0,0,0-.3.77h1.86a1.09,1.09,0,0,0-.24-.77A.82.82,0,0,0,202.46,293.1Z" transform="translate(-11.57 -193.53)"/><path class="c" d="M207.28,292.44a2.68,2.68,0,0,1,.44,0l-.09.82a1.6,1.6,0,0,0-.39-.05,1.13,1.13,0,0,0-.84.34,1.24,1.24,0,0,0-.33.89v2.14h-.87v-4.1h.68l.12.72h0a1.77,1.77,0,0,1,.54-.58A1.25,1.25,0,0,1,207.28,292.44Z" transform="translate(-11.57 -193.53)"/><polygon class="d" points="175.19 63.73 178.27 63.73 178.27 62.57 179.82 62.57 176.73 59.38 173.64 62.57 175.19 62.57 175.19 63.73"/><polygon class="d" points="170.26 69.32 169.09 69.32 169.09 67.78 165.89 70.87 169.09 73.95 169.09 72.41 170.26 72.41 170.26 69.32"/><polygon class="d" points="175.19 76.44 175.19 77.61 173.64 77.61 176.73 80.81 179.82 77.61 178.27 77.61 178.27 76.44 175.19 76.44"/><polygon class="d" points="187.58 70.87 184.39 67.78 184.39 69.32 183.21 69.32 183.21 72.41 184.39 72.41 184.39 73.95 187.58 70.87"/><path class="b" d="M188.3,257.94a.34.34,0,0,0-.32.36h0v.08a2.61,2.61,0,0,0,0,.31,3.18,3.18,0,0,1,0,.59.62.62,0,0,1-.11.17v.13a5.81,5.81,0,0,0-.58.09,4.18,4.18,0,0,0-2.11,1.21l-.12-.08a.32.32,0,0,1-.19,0,2.61,2.61,0,0,1-.44-.4,2.13,2.13,0,0,0-.21-.22l-.07-.06A.4.4,0,0,0,184,260a.27.27,0,0,0-.25.11.34.34,0,0,0,.07.48h0l.07.05a1.83,1.83,0,0,0,.26.16,3,3,0,0,1,.49.34.48.48,0,0,1,.06.18l.1.1a4.19,4.19,0,0,0-.66,2.91l-.13,0a.47.47,0,0,1-.14.14,2.9,2.9,0,0,1-.58.1c-.11,0-.2,0-.31,0l-.09,0h0a.34.34,0,0,0-.28.39.35.35,0,0,0,.42.24h0l.08,0a1.6,1.6,0,0,0,.29-.11A3.36,3.36,0,0,1,184,265a.3.3,0,0,1,.18.06l.15,0a4.21,4.21,0,0,0,1.86,2.33l-.06.14a.29.29,0,0,1,0,.18,3.62,3.62,0,0,1-.29.53,2.7,2.7,0,0,0-.18.25l0,.09a.35.35,0,0,0,.14.46.34.34,0,0,0,.45-.18h0l0-.09c0-.1.06-.19.09-.29a2.24,2.24,0,0,1,.25-.58.21.21,0,0,1,.14-.07l.07-.13a4.17,4.17,0,0,0,2.43.17,3.62,3.62,0,0,0,.56-.17.76.76,0,0,0,.07.13.28.28,0,0,1,.16.1,2.75,2.75,0,0,1,.22.54,2.11,2.11,0,0,0,.1.3.3.3,0,0,0,0,.08.34.34,0,0,0,.44.19.35.35,0,0,0,.14-.46l0-.09c-.06-.1-.12-.17-.18-.26a3,3,0,0,1-.28-.51.23.23,0,0,1,0-.19l-.05-.13a4.22,4.22,0,0,0,1.86-2.35l.14,0a.21.21,0,0,1,.18-.07,2.72,2.72,0,0,1,.57.17c.1,0,.18.08.29.11h.09a.35.35,0,0,0,.42-.24.34.34,0,0,0-.28-.39l-.09,0a1.63,1.63,0,0,0-.31,0,3,3,0,0,1-.58-.09.37.37,0,0,1-.14-.14l-.13,0a4.25,4.25,0,0,0-.67-2.91l.11-.11a.29.29,0,0,1,.06-.18,3.32,3.32,0,0,1,.48-.34,1.82,1.82,0,0,0,.27-.15l.07-.06a.33.33,0,1,0-.4-.51l-.07.06c-.09.08-.14.15-.22.23a3,3,0,0,1-.43.39.29.29,0,0,1-.2,0l-.12.09a4.32,4.32,0,0,0-2.68-1.3.76.76,0,0,1,0-.14.29.29,0,0,1-.11-.16,3.18,3.18,0,0,1,0-.59,2.61,2.61,0,0,0,0-.31v-.09a.34.34,0,0,0-.32-.36Zm-.4,2.51-.1,1.7h0a.28.28,0,0,1-.28.27.31.31,0,0,1-.17-.05h0l-1.39-1a3.26,3.26,0,0,1,1.6-.87A2.14,2.14,0,0,1,187.9,260.45Zm.81,0a3.35,3.35,0,0,1,1.93.93l-1.38,1h0a.3.3,0,0,1-.4-.05.49.49,0,0,1-.06-.17h0ZM185.44,262l1.27,1.13h0a.29.29,0,0,1,0,.39.36.36,0,0,1-.15.1h0l-1.63.47A3.39,3.39,0,0,1,185.44,262Zm5.71,0a3.43,3.43,0,0,1,.42,1,3.6,3.6,0,0,1,.07,1.08l-1.64-.47h0a.28.28,0,0,1-.2-.34.24.24,0,0,1,.09-.15h0l1.26-1.13ZM188,263.24h.52l.32.41-.11.5-.47.22-.47-.22-.11-.51Zm1.67,1.38h.07l1.68.28a3.35,3.35,0,0,1-1.35,1.69l-.65-1.58h0a.29.29,0,0,1,.14-.37l.11,0Zm-2.83,0a.29.29,0,0,1,.26.4h0l-.64,1.57a3.36,3.36,0,0,1-1.35-1.68l1.67-.29h.06Zm1.41.69a.2.2,0,0,1,.13,0,.27.27,0,0,1,.13.13h0l.82,1.48-.33.09a3.29,3.29,0,0,1-1.82-.09l.82-1.48h0A.26.26,0,0,1,188.29,265.32Z" transform="translate(-11.57 -193.53)"/><path class="e" d="M15.44,203.14H14v-5.83c0-.7,0-1.25,0-1.66-.1.1-.21.21-.35.33l-1.39,1.14-.73-.92,2.66-2.09h1.21Z" transform="translate(-11.57 -193.53)"/><path class="e" d="M18.66,202.37a.93.93,0,0,1,.24-.69.91.91,0,0,1,.68-.24.9.9,0,0,1,.69.25,1.12,1.12,0,0,1,0,1.37.85.85,0,0,1-.68.26.88.88,0,0,1-.68-.25A1,1,0,0,1,18.66,202.37Z" transform="translate(-11.57 -193.53)"/><path class="e" d="M31.78,196.84a2.67,2.67,0,0,1-.92,2.17,4.11,4.11,0,0,1-2.64.75h-.94v3.38H25.8v-9h2.6a4,4,0,0,1,2.54.69A2.49,2.49,0,0,1,31.78,196.84Zm-4.5,1.68h.78a2.76,2.76,0,0,0,1.67-.4,1.68,1.68,0,0,0,.06-2.39,2.33,2.33,0,0,0-1.49-.39h-1Z" transform="translate(-11.57 -193.53)"/><path class="e" d="M39.5,199.71a3.76,3.76,0,0,1-.86,2.62,3.12,3.12,0,0,1-2.4.94,3.27,3.27,0,0,1-1.69-.44,2.84,2.84,0,0,1-1.13-1.24,4.3,4.3,0,0,1-.39-1.88,3.68,3.68,0,0,1,.85-2.59,3.07,3.07,0,0,1,2.4-.94,3,3,0,0,1,2.35,1A3.65,3.65,0,0,1,39.5,199.71Zm-5,0c0,1.58.58,2.37,1.75,2.37s1.73-.79,1.73-2.37-.58-2.34-1.74-2.34a1.49,1.49,0,0,0-1.33.61A3.09,3.09,0,0,0,34.52,199.71Z" transform="translate(-11.57 -193.53)"/><path class="e" d="M43.47,203.27a2.39,2.39,0,0,1-2-.93,4.16,4.16,0,0,1-.71-2.6,4.21,4.21,0,0,1,.72-2.62,2.43,2.43,0,0,1,2-.94,2.35,2.35,0,0,1,2,1h.08a8.91,8.91,0,0,1-.11-1.16v-2.49H47v9.61H45.83l-.25-.89h-.07A2.3,2.3,0,0,1,43.47,203.27Zm.39-1.18a1.58,1.58,0,0,0,1.3-.5,2.69,2.69,0,0,0,.42-1.64v-.2a3.1,3.1,0,0,0-.42-1.84,1.56,1.56,0,0,0-1.31-.54,1.33,1.33,0,0,0-1.18.62,3.17,3.17,0,0,0-.42,1.77,3.05,3.05,0,0,0,.4,1.73A1.36,1.36,0,0,0,43.86,202.09Z" transform="translate(-11.57 -193.53)"/><path class="e" d="M53.64,201.2a1.78,1.78,0,0,1-.73,1.53,3.47,3.47,0,0,1-2.09.54,4.85,4.85,0,0,1-2.19-.42V201.6a5.37,5.37,0,0,0,2.24.55c.9,0,1.34-.27,1.34-.81a.64.64,0,0,0-.15-.43,2.11,2.11,0,0,0-.48-.36c-.23-.12-.55-.26-.95-.42a4.38,4.38,0,0,1-1.6-.91,1.69,1.69,0,0,1-.41-1.19,1.55,1.55,0,0,1,.7-1.36,3.4,3.4,0,0,1,1.93-.49,5.56,5.56,0,0,1,2.28.49l-.47,1.1a5,5,0,0,0-1.86-.46c-.77,0-1.15.22-1.15.65a.66.66,0,0,0,.3.55,6.36,6.36,0,0,0,1.31.61,6.39,6.39,0,0,1,1.23.6,1.75,1.75,0,0,1,.56.63A1.72,1.72,0,0,1,53.64,201.2Z" transform="translate(-11.57 -193.53)"/><path class="e" d="M62.77,203.14l-.29-.95h0a2.78,2.78,0,0,1-1,.85,3.17,3.17,0,0,1-1.29.23,2.19,2.19,0,0,1-1.57-.55,2,2,0,0,1-.57-1.54,1.82,1.82,0,0,1,.79-1.59,4.47,4.47,0,0,1,2.39-.59l1.18,0v-.36a1.4,1.4,0,0,0-.3-1,1.26,1.26,0,0,0-1-.32,3.38,3.38,0,0,0-1,.15,7.45,7.45,0,0,0-.93.36l-.47-1a5.21,5.21,0,0,1,1.22-.45,5.67,5.67,0,0,1,1.25-.15,3,3,0,0,1,2,.57,2.25,2.25,0,0,1,.66,1.79v4.6Zm-2.16-1a1.77,1.77,0,0,0,1.27-.44,1.6,1.6,0,0,0,.48-1.24v-.59l-.88,0a3,3,0,0,0-1.49.34,1,1,0,0,0-.47.94.9.9,0,0,0,.27.7A1.18,1.18,0,0,0,60.61,202.15Z" transform="translate(-11.57 -193.53)"/><path class="e" d="M69.3,196.18a3,3,0,0,1,.73.07l-.15,1.35a2.67,2.67,0,0,0-.64-.08,1.85,1.85,0,0,0-1.41.57,2.06,2.06,0,0,0-.54,1.48v3.57H65.84v-6.83H67l.2,1.2h.07a2.69,2.69,0,0,1,.89-1A2.07,2.07,0,0,1,69.3,196.18Z" transform="translate(-11.57 -193.53)"/><path class="e" d="M74.28,203.27a3.26,3.26,0,0,1-2.49-.94,3.51,3.51,0,0,1-.9-2.56,3.86,3.86,0,0,1,.83-2.63,2.88,2.88,0,0,1,2.29-1,2.8,2.8,0,0,1,2.14.83,3.14,3.14,0,0,1,.79,2.26v.78H72.38a2.21,2.21,0,0,0,.54,1.53,1.86,1.86,0,0,0,1.43.54,4.93,4.93,0,0,0,1.12-.12,5.37,5.37,0,0,0,1.13-.38v1.18a4.57,4.57,0,0,1-1.08.36A6.57,6.57,0,0,1,74.28,203.27Zm-.27-6a1.48,1.48,0,0,0-1.11.44,2.11,2.11,0,0,0-.49,1.28h3.1a1.92,1.92,0,0,0-.41-1.28A1.4,1.4,0,0,0,74,197.28Z" transform="translate(-11.57 -193.53)"/><path class="e" d="M81.79,194.5a.81.81,0,0,1,.21-.6.82.82,0,0,1,.61-.21.8.8,0,0,1,.59.21.78.78,0,0,1,.22.6.76.76,0,0,1-.22.58.8.8,0,0,1-.59.21.82.82,0,0,1-.61-.21A.79.79,0,0,1,81.79,194.5Zm1.54,8.64H81.87v-6.83h1.46Z" transform="translate(-11.57 -193.53)"/><path class="e" d="M91.41,203.14H90v-4.2a1.85,1.85,0,0,0-.32-1.18,1.23,1.23,0,0,0-1-.39,1.6,1.6,0,0,0-1.35.54,3.06,3.06,0,0,0-.43,1.83v3.4H85.4v-6.83h1.14l.2.89h.08a2,2,0,0,1,.87-.75,2.91,2.91,0,0,1,1.26-.27,2.2,2.2,0,0,1,2.46,2.51Z" transform="translate(-11.57 -193.53)"/><path class="e" d="M101,203.14l-.29-.95h0a2.72,2.72,0,0,1-1,.85,3.12,3.12,0,0,1-1.28.23,2.17,2.17,0,0,1-1.57-.55,2,2,0,0,1-.57-1.54,1.81,1.81,0,0,1,.78-1.59,4.51,4.51,0,0,1,2.4-.59l1.18,0v-.36a1.4,1.4,0,0,0-.31-1,1.23,1.23,0,0,0-1-.32,3.43,3.43,0,0,0-1,.15,6.76,6.76,0,0,0-.92.36l-.47-1a5,5,0,0,1,1.22-.45,5.59,5.59,0,0,1,1.24-.15,3,3,0,0,1,2,.57,2.25,2.25,0,0,1,.67,1.79v4.6Zm-2.17-1a1.75,1.75,0,0,0,1.27-.44,1.6,1.6,0,0,0,.48-1.24v-.59l-.87,0a3,3,0,0,0-1.5.34,1,1,0,0,0-.46.94.9.9,0,0,0,.27.7A1.14,1.14,0,0,0,98.83,202.15Z" transform="translate(-11.57 -193.53)"/><path class="e" d="M21.11,218.45a2.4,2.4,0,0,1-2-.93H19c.06.58.08.93.08,1v2.8H17.64v-9.88h1.18c0,.13.1.44.2.92h.07a2.3,2.3,0,0,1,2-1,2.38,2.38,0,0,1,2,.93,4.21,4.21,0,0,1,.71,2.6,4.11,4.11,0,0,1-.73,2.61A2.37,2.37,0,0,1,21.11,218.45Zm-.35-5.89a1.54,1.54,0,0,0-1.27.5,2.68,2.68,0,0,0-.4,1.62v.22a3.25,3.25,0,0,0,.4,1.81,1.47,1.47,0,0,0,1.29.56,1.32,1.32,0,0,0,1.16-.62,3.2,3.2,0,0,0,.41-1.76,3.07,3.07,0,0,0-.4-1.74A1.34,1.34,0,0,0,20.76,212.56Z" transform="translate(-11.57 -193.53)"/><path class="e" d="M28.51,218.45a3.3,3.3,0,0,1-2.49-.93,3.52,3.52,0,0,1-.9-2.56,3.89,3.89,0,0,1,.83-2.63,2.89,2.89,0,0,1,2.3-1,2.79,2.79,0,0,1,2.13.82,3.11,3.11,0,0,1,.79,2.26v.79H26.61a2.3,2.3,0,0,0,.54,1.53,1.91,1.91,0,0,0,1.43.53,5.78,5.78,0,0,0,1.13-.11,5.93,5.93,0,0,0,1.12-.38V218a4.42,4.42,0,0,1-1.08.36A6.55,6.55,0,0,1,28.51,218.45Zm-.26-6a1.45,1.45,0,0,0-1.11.44,2.06,2.06,0,0,0-.5,1.28h3.1a1.85,1.85,0,0,0-.41-1.28A1.38,1.38,0,0,0,28.25,212.47Z" transform="translate(-11.57 -193.53)"/><path class="e" d="M38.83,218.33H37.37v-4.2a1.79,1.79,0,0,0-.32-1.18,1.21,1.21,0,0,0-1-.39,1.6,1.6,0,0,0-1.34.54,3,3,0,0,0-.43,1.82v3.41H32.82v-6.84H34l.2.9h.07a2,2,0,0,1,.88-.75,2.91,2.91,0,0,1,1.26-.27,2.19,2.19,0,0,1,2.46,2.5Z" transform="translate(-11.57 -193.53)"/><path class="e" d="M43.16,218.45a2.38,2.38,0,0,1-2-.93,4.13,4.13,0,0,1-.72-2.6,4.18,4.18,0,0,1,.73-2.61,2.38,2.38,0,0,1,2-.94,2.34,2.34,0,0,1,2,1h.08a8.89,8.89,0,0,1-.11-1.17v-2.49h1.46v9.62H45.52l-.25-.9H45.2A2.31,2.31,0,0,1,43.16,218.45Zm.39-1.17a1.57,1.57,0,0,0,1.3-.51,2.66,2.66,0,0,0,.42-1.63v-.2a3.06,3.06,0,0,0-.42-1.84,1.57,1.57,0,0,0-1.32-.54,1.33,1.33,0,0,0-1.18.62,3.22,3.22,0,0,0-.41,1.77,3.07,3.07,0,0,0,.4,1.73A1.36,1.36,0,0,0,43.55,217.28Z" transform="translate(-11.57 -193.53)"/><path class="e" d="M48.65,209.68a.81.81,0,0,1,.21-.6.85.85,0,0,1,.61-.21.81.81,0,1,1,0,1.61.85.85,0,0,1-.61-.21A.82.82,0,0,1,48.65,209.68Zm1.54,8.65H48.74v-6.84h1.45Z" transform="translate(-11.57 -193.53)"/><path class="e" d="M58.28,218.33H56.82v-4.2A1.85,1.85,0,0,0,56.5,213a1.23,1.23,0,0,0-1-.39,1.63,1.63,0,0,0-1.35.54,3,3,0,0,0-.42,1.82v3.41H52.26v-6.84H53.4l.21.9h.07a2,2,0,0,1,.88-.75,2.91,2.91,0,0,1,1.26-.27,2.19,2.19,0,0,1,2.46,2.5Z" transform="translate(-11.57 -193.53)"/><path class="e" d="M66.07,211.49v.8l-1.17.22a1.76,1.76,0,0,1,.27.53,2.09,2.09,0,0,1,.1.67,2,2,0,0,1-.73,1.66,3.05,3.05,0,0,1-2,.6,2.76,2.76,0,0,1-.59-.05.83.83,0,0,0-.47.68.38.38,0,0,0,.22.36,2.12,2.12,0,0,0,.81.11h1.19a2.61,2.61,0,0,1,1.72.49A1.69,1.69,0,0,1,66,219a2,2,0,0,1-1,1.79,5,5,0,0,1-2.77.63,3.81,3.81,0,0,1-2.13-.5,1.6,1.6,0,0,1-.74-1.4,1.46,1.46,0,0,1,.4-1.06,2.13,2.13,0,0,1,1.12-.6,1,1,0,0,1-.48-.4,1,1,0,0,1-.19-.58,1,1,0,0,1,.21-.65,2.63,2.63,0,0,1,.65-.52,1.83,1.83,0,0,1-.86-.75,2.09,2.09,0,0,1-.34-1.2,2.17,2.17,0,0,1,.71-1.73,2.92,2.92,0,0,1,2-.61,4.22,4.22,0,0,1,.6,0,3.87,3.87,0,0,1,.48.08Zm-5.37,7.9a.8.8,0,0,0,.42.72,2.31,2.31,0,0,0,1.19.26,3.69,3.69,0,0,0,1.77-.34,1,1,0,0,0,.58-.9.69.69,0,0,0-.32-.64,2.6,2.6,0,0,0-1.18-.19h-1.1a1.5,1.5,0,0,0-1,.3A.94.94,0,0,0,60.7,219.39Zm.62-5.68a1.37,1.37,0,0,0,.33,1,1.22,1.22,0,0,0,1,.35q1.26,0,1.26-1.35a1.55,1.55,0,0,0-.31-1,1.19,1.19,0,0,0-.95-.36,1.2,1.2,0,0,0-1,.36A1.5,1.5,0,0,0,61.32,213.71Z" transform="translate(-11.57 -193.53)"/><path class="e" d="M75.21,216.38a1.81,1.81,0,0,1-.72,1.54,3.56,3.56,0,0,1-2.09.53,5.08,5.08,0,0,1-2.2-.41v-1.26a5.43,5.43,0,0,0,2.25.56c.89,0,1.34-.27,1.34-.81a.63.63,0,0,0-.15-.43,1.59,1.59,0,0,0-.49-.36c-.23-.12-.54-.26-.94-.42a4.37,4.37,0,0,1-1.6-.92,1.67,1.67,0,0,1-.42-1.18,1.55,1.55,0,0,1,.71-1.36,3.29,3.29,0,0,1,1.92-.49,5.34,5.34,0,0,1,2.28.49L74.63,213a5.11,5.11,0,0,0-1.86-.46c-.76,0-1.15.22-1.15.66a.65.65,0,0,0,.3.54,6.5,6.5,0,0,0,1.31.62,5.44,5.44,0,0,1,1.23.59,1.77,1.77,0,0,1,.57.63A1.87,1.87,0,0,1,75.21,216.38Z" transform="translate(-11.57 -193.53)"/><path class="e" d="M79.33,217.28a3.51,3.51,0,0,0,1.06-.17v1.09a2.93,2.93,0,0,1-.62.18,4,4,0,0,1-.79.07c-1.37,0-2.06-.72-2.06-2.17v-3.69H76V212l1-.53.49-1.45h.9v1.52h2v1.1h-2v3.66a1.06,1.06,0,0,0,.26.78A1,1,0,0,0,79.33,217.28Z" transform="translate(-11.57 -193.53)"/><path class="e" d="M86,218.33l-.3-1h0a2.8,2.8,0,0,1-1,.85,3.13,3.13,0,0,1-1.28.22,2.19,2.19,0,0,1-1.58-.54,2.06,2.06,0,0,1-.56-1.54,1.83,1.83,0,0,1,.78-1.6,4.57,4.57,0,0,1,2.39-.58l1.18,0v-.36a1.39,1.39,0,0,0-.3-1,1.25,1.25,0,0,0-1-.33,3.1,3.1,0,0,0-1,.16,7.45,7.45,0,0,0-.93.36L82,212a5.11,5.11,0,0,1,1.21-.44,5.67,5.67,0,0,1,1.25-.15,3,3,0,0,1,2,.57,2.22,2.22,0,0,1,.66,1.78v4.61Zm-2.17-1a1.82,1.82,0,0,0,1.27-.44,1.61,1.61,0,0,0,.48-1.24v-.59l-.88,0a3,3,0,0,0-1.49.35,1,1,0,0,0-.47.93.93.93,0,0,0,.28.71A1.14,1.14,0,0,0,83.87,217.34Z" transform="translate(-11.57 -193.53)"/><path class="e" d="M91.65,217.28a3.61,3.61,0,0,0,1.06-.17v1.09a3.12,3.12,0,0,1-.62.18,4.15,4.15,0,0,1-.79.07c-1.38,0-2.06-.72-2.06-2.17v-3.69H88.3V212l1-.53.5-1.45h.89v1.52h2v1.1h-2v3.66A1,1,0,0,0,91,217,1,1,0,0,0,91.65,217.28Z" transform="translate(-11.57 -193.53)"/><path class="e" d="M97.06,218.45a3.3,3.3,0,0,1-2.49-.93,3.52,3.52,0,0,1-.9-2.56,3.84,3.84,0,0,1,.83-2.63,2.88,2.88,0,0,1,2.29-1,2.8,2.8,0,0,1,2.14.82,3.16,3.16,0,0,1,.79,2.26v.79H95.16a2.25,2.25,0,0,0,.54,1.53,1.89,1.89,0,0,0,1.43.53,5.6,5.6,0,0,0,1.12-.11,6,6,0,0,0,1.13-.38V218a4.57,4.57,0,0,1-1.08.36A6.62,6.62,0,0,1,97.06,218.45Zm-.27-6a1.48,1.48,0,0,0-1.11.44,2.11,2.11,0,0,0-.49,1.28h3.1a1.9,1.9,0,0,0-.41-1.28A1.4,1.4,0,0,0,96.79,212.47Z" transform="translate(-11.57 -193.53)"/><path class="e" d="M132,203.14h-6.12V202l2.33-2.34a18.71,18.71,0,0,0,1.37-1.5,3.9,3.9,0,0,0,.49-.83,2.31,2.31,0,0,0,.15-.83,1.27,1.27,0,0,0-.37-1,1.41,1.41,0,0,0-1-.35,2.7,2.7,0,0,0-1,.19,5.08,5.08,0,0,0-1.12.69l-.78-.95a5,5,0,0,1,1.46-.91A4.49,4.49,0,0,1,129,194a3,3,0,0,1,2,.66,2.25,2.25,0,0,1,.76,1.77,3.27,3.27,0,0,1-.22,1.16,4.58,4.58,0,0,1-.68,1.13,14.12,14.12,0,0,1-1.51,1.58l-1.57,1.52v.06H132Z" transform="translate(-11.57 -193.53)"/><path class="e" d="M133.41,202.37a1,1,0,0,1,.23-.69.92.92,0,0,1,.68-.24.9.9,0,0,1,.69.25,1.12,1.12,0,0,1,0,1.37.83.83,0,0,1-.68.26.89.89,0,0,1-.68-.25A1,1,0,0,1,133.41,202.37Z" transform="translate(-11.57 -193.53)"/><path class="e" d="M144.39,195.25a2.42,2.42,0,0,0-2,.9,4.73,4.73,0,0,0,0,5,2.47,2.47,0,0,0,2,.85,5.1,5.1,0,0,0,1.11-.11c.36-.08.73-.17,1.12-.29v1.26a6.73,6.73,0,0,1-2.41.41,3.84,3.84,0,0,1-3.05-1.21,5,5,0,0,1-1.06-3.44,5.47,5.47,0,0,1,.52-2.46,3.71,3.71,0,0,1,1.49-1.62,4.54,4.54,0,0,1,2.29-.56,5.66,5.66,0,0,1,2.56.58l-.53,1.23a7.52,7.52,0,0,0-1-.38A3.47,3.47,0,0,0,144.39,195.25Z" transform="translate(-11.57 -193.53)"/><path class="e" d="M149.86,203.14h-1.45v-9.61h1.45Z" transform="translate(-11.57 -193.53)"/><path class="e" d="M156.76,203.14l-.2-.89h-.08a2.09,2.09,0,0,1-.86.74,2.9,2.9,0,0,1-1.28.28,2.5,2.5,0,0,1-1.85-.62,2.55,2.55,0,0,1-.61-1.87v-4.47h1.46v4.21a1.85,1.85,0,0,0,.32,1.18,1.24,1.24,0,0,0,1,.39,1.57,1.57,0,0,0,1.34-.55,3,3,0,0,0,.43-1.83v-3.4h1.46v6.83Z" transform="translate(-11.57 -193.53)"/><path class="e" d="M164.56,201.2a1.77,1.77,0,0,1-.73,1.53,3.44,3.44,0,0,1-2.08.54,4.87,4.87,0,0,1-2.2-.42V201.6a5.4,5.4,0,0,0,2.24.55q1.35,0,1.35-.81a.64.64,0,0,0-.15-.43,2,2,0,0,0-.49-.36,9.77,9.77,0,0,0-.95-.42,4.32,4.32,0,0,1-1.59-.91,1.7,1.7,0,0,1-.42-1.19,1.56,1.56,0,0,1,.71-1.36,3.37,3.37,0,0,1,1.92-.49,5.49,5.49,0,0,1,2.28.49l-.47,1.1a5,5,0,0,0-1.86-.46c-.76,0-1.15.22-1.15.65a.66.66,0,0,0,.3.55,6.65,6.65,0,0,0,1.31.61,6.39,6.39,0,0,1,1.23.6,1.88,1.88,0,0,1,.57.63A1.84,1.84,0,0,1,164.56,201.2Z" transform="translate(-11.57 -193.53)"/><path class="e" d="M168.68,202.09a3.26,3.26,0,0,0,1.06-.17V203a2.6,2.6,0,0,1-.62.17,4.07,4.07,0,0,1-.79.08c-1.37,0-2.06-.73-2.06-2.18v-3.68h-.93v-.64l1-.54.49-1.44h.9v1.52h1.94v1.1h-1.94v3.66a1,1,0,0,0,.26.77A.93.93,0,0,0,168.68,202.09Z" transform="translate(-11.57 -193.53)"/><path class="e" d="M174.09,203.27a3.3,3.3,0,0,1-2.49-.93,3.55,3.55,0,0,1-.9-2.57,3.91,3.91,0,0,1,.83-2.63,2.89,2.89,0,0,1,2.3-1A2.79,2.79,0,0,1,176,197a3.1,3.1,0,0,1,.79,2.26v.78h-4.56a2.31,2.31,0,0,0,.54,1.53,1.88,1.88,0,0,0,1.43.54,5.09,5.09,0,0,0,1.13-.12,5.29,5.29,0,0,0,1.12-.38v1.18a4.29,4.29,0,0,1-1.08.36A6.49,6.49,0,0,1,174.09,203.27Zm-.26-6a1.46,1.46,0,0,0-1.11.44,2.08,2.08,0,0,0-.5,1.28h3.1a1.87,1.87,0,0,0-.41-1.28A1.38,1.38,0,0,0,173.83,197.28Z" transform="translate(-11.57 -193.53)"/><path class="e" d="M181.87,196.18a2.92,2.92,0,0,1,.72.07l-.14,1.35a2.75,2.75,0,0,0-.65-.08,1.85,1.85,0,0,0-1.41.57,2.06,2.06,0,0,0-.54,1.48v3.57H178.4v-6.83h1.14l.19,1.2h.07a2.69,2.69,0,0,1,.89-1A2.1,2.1,0,0,1,181.87,196.18Z" transform="translate(-11.57 -193.53)"/><path class="e" d="M192.9,203.14l-.9-2.51h-3.45l-.89,2.51H186.1l3.38-9.07h1.61l3.38,9.07Zm-1.29-3.78-.85-2.46c-.06-.16-.14-.42-.25-.78s-.19-.61-.23-.78a13,13,0,0,1-.49,1.67l-.81,2.35Z" transform="translate(-11.57 -193.53)"/><path class="e" d="M200.33,203.14l-.2-.89h-.08a2.09,2.09,0,0,1-.86.74,2.9,2.9,0,0,1-1.28.28,2.5,2.5,0,0,1-1.85-.62,2.55,2.55,0,0,1-.61-1.87v-4.47h1.46v4.21a1.85,1.85,0,0,0,.32,1.18,1.24,1.24,0,0,0,1,.39,1.57,1.57,0,0,0,1.34-.55,3,3,0,0,0,.43-1.83v-3.4h1.46v6.83Z" transform="translate(-11.57 -193.53)"/><path class="e" d="M206.09,202.09a3.26,3.26,0,0,0,1.06-.17V203a2.6,2.6,0,0,1-.62.17,4.07,4.07,0,0,1-.79.08c-1.37,0-2.06-.73-2.06-2.18v-3.68h-.93v-.64l1-.54.49-1.44h.9v1.52h1.94v1.1h-1.94v3.66a1,1,0,0,0,.26.77A.93.93,0,0,0,206.09,202.09Z" transform="translate(-11.57 -193.53)"/><path class="e" d="M214.58,199.71a3.76,3.76,0,0,1-.86,2.62,3.09,3.09,0,0,1-2.39.94,3.25,3.25,0,0,1-1.69-.44,2.92,2.92,0,0,1-1.14-1.24,4.27,4.27,0,0,1-.39-1.88,3.68,3.68,0,0,1,.85-2.59,3.11,3.11,0,0,1,2.41-.94,3,3,0,0,1,2.34,1A3.67,3.67,0,0,1,214.58,199.71Zm-5,0c0,1.58.59,2.37,1.75,2.37s1.73-.79,1.73-2.37-.58-2.34-1.74-2.34A1.46,1.46,0,0,0,210,198,3,3,0,0,0,209.6,199.71Z" transform="translate(-11.57 -193.53)"/><path class="e" d="M220.84,201.2a1.77,1.77,0,0,1-.73,1.53,3.47,3.47,0,0,1-2.09.54,4.85,4.85,0,0,1-2.19-.42V201.6a5.37,5.37,0,0,0,2.24.55c.89,0,1.34-.27,1.34-.81a.64.64,0,0,0-.15-.43,2,2,0,0,0-.49-.36,9.41,9.41,0,0,0-.94-.42,4.38,4.38,0,0,1-1.6-.91,1.7,1.7,0,0,1-.42-1.19,1.56,1.56,0,0,1,.71-1.36,3.4,3.4,0,0,1,1.93-.49,5.56,5.56,0,0,1,2.28.49l-.47,1.1a5,5,0,0,0-1.86-.46c-.77,0-1.15.22-1.15.65a.66.66,0,0,0,.3.55,6.47,6.47,0,0,0,1.3.61,5.84,5.84,0,0,1,1.23.6,1.69,1.69,0,0,1,.57.63A1.72,1.72,0,0,1,220.84,201.2Z" transform="translate(-11.57 -193.53)"/><path class="e" d="M225.16,203.27a3,3,0,0,1-2.35-.91,3.77,3.77,0,0,1-.81-2.6,3.81,3.81,0,0,1,.84-2.65,3.14,3.14,0,0,1,2.44-.93,4.57,4.57,0,0,1,1.95.41l-.44,1.16a4.31,4.31,0,0,0-1.52-.35c-1.18,0-1.77.78-1.77,2.35a2.8,2.8,0,0,0,.44,1.73,1.52,1.52,0,0,0,1.29.57,3.74,3.74,0,0,0,1.84-.48v1.27a3.13,3.13,0,0,1-.83.33A5.52,5.52,0,0,1,225.16,203.27Z" transform="translate(-11.57 -193.53)"/><path class="e" d="M233,203.14l-.29-.95h0a2.78,2.78,0,0,1-1,.85,3.2,3.2,0,0,1-1.29.23,2.17,2.17,0,0,1-1.57-.55,2,2,0,0,1-.57-1.54,1.79,1.79,0,0,1,.79-1.59,4.56,4.56,0,0,1,2.39-.59l1.18,0v-.36a1.36,1.36,0,0,0-.31-1,1.23,1.23,0,0,0-1-.32,3.32,3.32,0,0,0-1,.15,7.5,7.5,0,0,0-.93.37l-.47-1a4.78,4.78,0,0,1,1.22-.44,5.1,5.1,0,0,1,1.25-.16,2.92,2.92,0,0,1,2,.57,2.22,2.22,0,0,1,.67,1.79v4.6Zm-2.16-1a1.79,1.79,0,0,0,1.27-.44,1.6,1.6,0,0,0,.48-1.24v-.59l-.88,0a3,3,0,0,0-1.49.34,1,1,0,0,0-.47.94.9.9,0,0,0,.27.7A1.15,1.15,0,0,0,230.79,202.15Z" transform="translate(-11.57 -193.53)"/><path class="e" d="M237.47,203.14H236v-9.61h1.45Z" transform="translate(-11.57 -193.53)"/><path class="e" d="M242.53,203.27a3.33,3.33,0,0,1-2.5-.93,3.58,3.58,0,0,1-.89-2.57,3.86,3.86,0,0,1,.83-2.63,2.88,2.88,0,0,1,2.29-1,2.82,2.82,0,0,1,2.14.83,3.14,3.14,0,0,1,.79,2.26v.78h-4.56a2.21,2.21,0,0,0,.54,1.53,1.86,1.86,0,0,0,1.43.54,4.93,4.93,0,0,0,1.12-.12,5.37,5.37,0,0,0,1.13-.38v1.18a4.57,4.57,0,0,1-1.08.36A6.57,6.57,0,0,1,242.53,203.27Zm-.27-6a1.48,1.48,0,0,0-1.11.44,2.14,2.14,0,0,0-.49,1.28h3.1a1.92,1.92,0,0,0-.41-1.28A1.4,1.4,0,0,0,242.26,197.28Z" transform="translate(-11.57 -193.53)"/><path class="e" d="M250.3,196.18a2.92,2.92,0,0,1,.72.07l-.14,1.35a2.67,2.67,0,0,0-.64-.08,1.85,1.85,0,0,0-1.41.57,2.06,2.06,0,0,0-.54,1.48v3.57h-1.46v-6.83H248l.19,1.2h.08a2.66,2.66,0,0,1,.88-1A2.12,2.12,0,0,1,250.3,196.18Z" transform="translate(-11.57 -193.53)"/><path class="e" d="M149.07,211.37a3.52,3.52,0,0,1,.72.06l-.14,1.36a2.67,2.67,0,0,0-.64-.08,1.85,1.85,0,0,0-1.41.57,2.06,2.06,0,0,0-.54,1.48v3.57h-1.45v-6.84h1.13l.19,1.21H147a2.6,2.6,0,0,1,.89-1A2.07,2.07,0,0,1,149.07,211.37Z" transform="translate(-11.57 -193.53)"/><path class="e" d="M154.05,218.45a3.31,3.31,0,0,1-2.5-.93,3.52,3.52,0,0,1-.9-2.56,3.85,3.85,0,0,1,.84-2.63,2.87,2.87,0,0,1,2.29-1,2.81,2.81,0,0,1,2.14.82,3.15,3.15,0,0,1,.78,2.26v.79h-4.55a2.25,2.25,0,0,0,.54,1.53,1.87,1.87,0,0,0,1.42.53,5.7,5.7,0,0,0,1.13-.11,5.93,5.93,0,0,0,1.12-.38V218a4.35,4.35,0,0,1-1.07.36A6.62,6.62,0,0,1,154.05,218.45Zm-.27-6a1.48,1.48,0,0,0-1.11.44,2.12,2.12,0,0,0-.5,1.28h3.11a1.9,1.9,0,0,0-.41-1.28A1.42,1.42,0,0,0,153.78,212.47Z" transform="translate(-11.57 -193.53)"/><path class="e" d="M160.65,218.45a2.37,2.37,0,0,1-2-.93,4.14,4.14,0,0,1-.71-2.6,4.22,4.22,0,0,1,.72-2.61,2.43,2.43,0,0,1,2-.94,2.7,2.7,0,0,1,1.16.24,2.46,2.46,0,0,1,.91.78h.05l.16-.9h1.2v9.88H162.7v-2.9q0-.27,0-.57c0-.21,0-.36,0-.47h-.08A2.24,2.24,0,0,1,160.65,218.45Zm.41-1.16a1.53,1.53,0,0,0,1.31-.53,2.6,2.6,0,0,0,.4-1.6v-.22a3.17,3.17,0,0,0-.41-1.83,1.52,1.52,0,0,0-1.32-.55,1.32,1.32,0,0,0-1.19.62,3.22,3.22,0,0,0-.41,1.77Q159.44,217.29,161.06,217.29Z" transform="translate(-11.57 -193.53)"/><path class="e" d="M171.06,218.33l-.21-.9h-.07a2,2,0,0,1-.86.75,2.9,2.9,0,0,1-1.28.27,2.46,2.46,0,0,1-1.85-.62,2.54,2.54,0,0,1-.61-1.87v-4.47h1.46v4.22a1.89,1.89,0,0,0,.32,1.18,1.24,1.24,0,0,0,1,.39,1.57,1.57,0,0,0,1.34-.55,3,3,0,0,0,.43-1.83v-3.41h1.46v6.84Z" transform="translate(-11.57 -193.53)"/><path class="e" d="M177.26,218.45a3.31,3.31,0,0,1-2.5-.93,3.52,3.52,0,0,1-.9-2.56,3.85,3.85,0,0,1,.84-2.63,2.87,2.87,0,0,1,2.29-1,2.81,2.81,0,0,1,2.14.82,3.15,3.15,0,0,1,.78,2.26v.79h-4.55a2.25,2.25,0,0,0,.54,1.53,1.87,1.87,0,0,0,1.42.53,5.7,5.7,0,0,0,1.13-.11,5.93,5.93,0,0,0,1.12-.38V218a4.35,4.35,0,0,1-1.07.36A6.62,6.62,0,0,1,177.26,218.45Zm-.27-6a1.48,1.48,0,0,0-1.11.44,2.12,2.12,0,0,0-.5,1.28h3.11a1.9,1.9,0,0,0-.41-1.28A1.42,1.42,0,0,0,177,212.47Z" transform="translate(-11.57 -193.53)"/><path class="e" d="M186.15,216.38a1.81,1.81,0,0,1-.72,1.54,3.56,3.56,0,0,1-2.09.53,5,5,0,0,1-2.2-.41v-1.26a5.43,5.43,0,0,0,2.25.56c.89,0,1.34-.27,1.34-.81a.63.63,0,0,0-.15-.43,1.59,1.59,0,0,0-.49-.36c-.23-.12-.54-.26-.94-.42a4.37,4.37,0,0,1-1.6-.92,1.67,1.67,0,0,1-.42-1.18,1.55,1.55,0,0,1,.71-1.36,3.29,3.29,0,0,1,1.92-.49,5.34,5.34,0,0,1,2.28.49l-.47,1.09a5.07,5.07,0,0,0-1.86-.45c-.76,0-1.15.21-1.15.65a.65.65,0,0,0,.3.54,6.5,6.5,0,0,0,1.31.62,5.19,5.19,0,0,1,1.23.6,1.75,1.75,0,0,1,.57.62A1.87,1.87,0,0,1,186.15,216.38Z" transform="translate(-11.57 -193.53)"/><path class="e" d="M190.27,217.28a3.56,3.56,0,0,0,1.06-.17v1.1a4.09,4.09,0,0,1-.62.17,4,4,0,0,1-.79.07c-1.37,0-2.06-.72-2.06-2.17v-3.69h-.93V212l1-.53.49-1.45h.9v1.52h1.94v1.1h-1.94v3.66a1.06,1.06,0,0,0,.26.78A1,1,0,0,0,190.27,217.28Z" transform="translate(-11.57 -193.53)"/><path class="e" d="M197.29,216.38a1.79,1.79,0,0,1-.73,1.54,3.54,3.54,0,0,1-2.09.53,5,5,0,0,1-2.19-.41v-1.26a5.39,5.39,0,0,0,2.24.56c.9,0,1.34-.27,1.34-.81a.63.63,0,0,0-.15-.43,1.66,1.66,0,0,0-.48-.36c-.23-.12-.55-.26-.95-.42a4.37,4.37,0,0,1-1.6-.92,1.66,1.66,0,0,1-.41-1.18,1.54,1.54,0,0,1,.7-1.36,3.32,3.32,0,0,1,1.93-.49,5.4,5.4,0,0,1,2.28.49l-.47,1.09a5.16,5.16,0,0,0-1.86-.45c-.77,0-1.15.21-1.15.65a.65.65,0,0,0,.3.54,6.22,6.22,0,0,0,1.31.62,5.39,5.39,0,0,1,1.23.6,1.81,1.81,0,0,1,.56.62A1.75,1.75,0,0,1,197.29,216.38Z" transform="translate(-11.57 -193.53)"/><path class="e" d="M208.16,218.33H206.7v-4.2a1.85,1.85,0,0,0-.32-1.18,1.23,1.23,0,0,0-1-.39,1.63,1.63,0,0,0-1.35.54,3,3,0,0,0-.42,1.82v3.41h-1.45v-6.84h1.13l.21.9h.07a2,2,0,0,1,.88-.75,2.91,2.91,0,0,1,1.26-.27,2.19,2.19,0,0,1,2.46,2.5Z" transform="translate(-11.57 -193.53)"/><path class="e" d="M216.24,214.9a3.72,3.72,0,0,1-.86,2.61,3.06,3.06,0,0,1-2.39.94,3.24,3.24,0,0,1-1.69-.43,2.84,2.84,0,0,1-1.13-1.24,4.16,4.16,0,0,1-.4-1.88,3.77,3.77,0,0,1,.85-2.6,3.1,3.1,0,0,1,2.41-.93,3,3,0,0,1,2.35,1A3.7,3.7,0,0,1,216.24,214.9Zm-5,0c0,1.58.58,2.37,1.75,2.37s1.73-.79,1.73-2.37-.58-2.34-1.75-2.34a1.48,1.48,0,0,0-1.32.6A3.07,3.07,0,0,0,211.27,214.9Z" transform="translate(-11.57 -193.53)"/><path class="e" d="M220.21,218.45a2.39,2.39,0,0,1-2-.92,4.18,4.18,0,0,1-.72-2.61,4.11,4.11,0,0,1,.73-2.61,2.38,2.38,0,0,1,2-.94,2.34,2.34,0,0,1,2,1h.08a7.44,7.44,0,0,1-.11-1.17v-2.49h1.46v9.62h-1.14l-.25-.9h-.07A2.33,2.33,0,0,1,220.21,218.45Zm.39-1.17a1.58,1.58,0,0,0,1.31-.51,2.66,2.66,0,0,0,.42-1.63v-.2a3.08,3.08,0,0,0-.42-1.84,1.57,1.57,0,0,0-1.32-.54,1.33,1.33,0,0,0-1.18.62A3.22,3.22,0,0,0,219,215a3.07,3.07,0,0,0,.4,1.73A1.35,1.35,0,0,0,220.6,217.28Z" transform="translate(-11.57 -193.53)"/><path class="e" d="M228.78,218.45a3.3,3.3,0,0,1-2.49-.93,3.52,3.52,0,0,1-.9-2.56,3.84,3.84,0,0,1,.83-2.63,2.88,2.88,0,0,1,2.29-1,2.8,2.8,0,0,1,2.14.82,3.16,3.16,0,0,1,.79,2.26v.79h-4.56a2.25,2.25,0,0,0,.54,1.53,1.89,1.89,0,0,0,1.43.53,5.6,5.6,0,0,0,1.12-.11,6,6,0,0,0,1.13-.38V218a4.57,4.57,0,0,1-1.08.36A6.62,6.62,0,0,1,228.78,218.45Zm-.27-6a1.48,1.48,0,0,0-1.11.44,2.11,2.11,0,0,0-.49,1.28H230a1.9,1.9,0,0,0-.41-1.28A1.4,1.4,0,0,0,228.51,212.47Z" transform="translate(-11.57 -193.53)"/><path class="e" d="M277.68,196.18a2.09,2.09,0,0,1-.5,1.44,2.48,2.48,0,0,1-1.41.76v.05a2.7,2.7,0,0,1,1.63.68,1.91,1.91,0,0,1,.55,1.44,2.39,2.39,0,0,1-.92,2,4.25,4.25,0,0,1-2.62.71,6,6,0,0,1-2.54-.49v-1.29a6.33,6.33,0,0,0,1.22.44,5.45,5.45,0,0,0,1.24.15,2.61,2.61,0,0,0,1.57-.39,1.42,1.42,0,0,0,.52-1.2,1.16,1.16,0,0,0-.58-1.07,3.72,3.72,0,0,0-1.8-.34h-.79V197.9h.8c1.44,0,2.16-.5,2.16-1.49a1.08,1.08,0,0,0-.38-.9,1.69,1.69,0,0,0-1.11-.31,3.29,3.29,0,0,0-1,.14,4.92,4.92,0,0,0-1.12.57l-.71-1a4.73,4.73,0,0,1,2.88-.91,3.38,3.38,0,0,1,2.14.59A1.92,1.92,0,0,1,277.68,196.18Z" transform="translate(-11.57 -193.53)"/><path class="e" d="M279.39,202.37a1,1,0,0,1,.23-.69.92.92,0,0,1,.68-.24.9.9,0,0,1,.69.25.92.92,0,0,1,.23.68,1.05,1.05,0,0,1-.23.7,1.06,1.06,0,0,1-1.37,0A1,1,0,0,1,279.39,202.37Z" transform="translate(-11.57 -193.53)"/><path class="e" d="M294.05,203.14h-1.81l-4.44-7.2h-.05l0,.41q.09,1.14.09,2.1v4.69h-1.34v-9h1.79l4.43,7.16h0c0-.09,0-.44-.05-1s0-1.06,0-1.4v-4.73h1.35Z" transform="translate(-11.57 -193.53)"/><path class="e" d="M299.27,203.27a3.31,3.31,0,0,1-2.5-.93,3.55,3.55,0,0,1-.9-2.57,3.86,3.86,0,0,1,.84-2.63,2.87,2.87,0,0,1,2.29-1,2.82,2.82,0,0,1,2.14.83,3.13,3.13,0,0,1,.78,2.26v.78h-4.55a2.21,2.21,0,0,0,.54,1.53,1.85,1.85,0,0,0,1.42.54,5,5,0,0,0,1.13-.12,5.29,5.29,0,0,0,1.12-.38v1.18a4.35,4.35,0,0,1-1.07.36A6.57,6.57,0,0,1,299.27,203.27Zm-.27-6a1.48,1.48,0,0,0-1.11.44,2.14,2.14,0,0,0-.5,1.28h3.11a1.92,1.92,0,0,0-.41-1.28A1.4,1.4,0,0,0,299,197.28Z" transform="translate(-11.57 -193.53)"/><path class="e" d="M309.18,203.14l-.89-3.19c-.1-.33-.3-1.12-.58-2.35h0q-.36,1.67-.57,2.37l-.91,3.17h-1.6l-1.92-6.83h1.48l.87,3.37q.3,1.24.42,2.13h0c0-.3.11-.64.19-1s.16-.68.22-.88l1-3.59h1.59l1,3.59c.06.21.14.52.23.93a6.56,6.56,0,0,1,.16,1h0a20.3,20.3,0,0,1,.44-2.12l.88-3.37h1.46l-1.93,6.83Z" transform="translate(-11.57 -193.53)"/><path class="e" d="M323.21,203.14h-1.46v-4.2a1.85,1.85,0,0,0-.31-1.18,1.25,1.25,0,0,0-1-.39,1.57,1.57,0,0,0-1.34.55,3,3,0,0,0-.43,1.82v3.4H317.2v-6.83h1.14l.2.89h.07a2.09,2.09,0,0,1,.88-.75,2.91,2.91,0,0,1,1.26-.27,2.2,2.2,0,0,1,2.46,2.51Z" transform="translate(-11.57 -193.53)"/><path class="e" d="M331.29,199.71a3.76,3.76,0,0,1-.85,2.62,3.12,3.12,0,0,1-2.4.94,3.27,3.27,0,0,1-1.69-.44,2.78,2.78,0,0,1-1.13-1.24,4.27,4.27,0,0,1-.4-1.88,3.68,3.68,0,0,1,.86-2.59,3.1,3.1,0,0,1,2.4-.94,3,3,0,0,1,2.35,1A3.67,3.67,0,0,1,331.29,199.71Zm-5,0c0,1.58.58,2.37,1.75,2.37s1.73-.79,1.73-2.37-.58-2.34-1.74-2.34a1.48,1.48,0,0,0-1.33.61A3.09,3.09,0,0,0,326.32,199.71Z" transform="translate(-11.57 -193.53)"/><path class="e" d="M335.27,203.27a2.39,2.39,0,0,1-2-.93,4.16,4.16,0,0,1-.72-2.6,4.23,4.23,0,0,1,.73-2.62,2.43,2.43,0,0,1,2-.94,2.36,2.36,0,0,1,2,1h.08a8.91,8.91,0,0,1-.11-1.16v-2.49h1.46v9.61h-1.14l-.25-.89h-.07A2.3,2.3,0,0,1,335.27,203.27Zm.39-1.18a1.6,1.6,0,0,0,1.3-.5,2.69,2.69,0,0,0,.42-1.64v-.2a3,3,0,0,0-.42-1.83,1.55,1.55,0,0,0-1.32-.55,1.35,1.35,0,0,0-1.18.62,3.26,3.26,0,0,0-.41,1.77,3.11,3.11,0,0,0,.4,1.74A1.37,1.37,0,0,0,335.66,202.09Z" transform="translate(-11.57 -193.53)"/><path class="e" d="M343.83,203.27a3.3,3.3,0,0,1-2.49-.93,3.55,3.55,0,0,1-.9-2.57,3.91,3.91,0,0,1,.83-2.63,2.89,2.89,0,0,1,2.3-1,2.83,2.83,0,0,1,2.14.83,3.13,3.13,0,0,1,.78,2.26v.78h-4.55a2.21,2.21,0,0,0,.53,1.53,1.88,1.88,0,0,0,1.43.54A5.09,5.09,0,0,0,345,202a5.29,5.29,0,0,0,1.12-.38v1.18a4.42,4.42,0,0,1-1.08.36A6.49,6.49,0,0,1,343.83,203.27Zm-.26-6a1.48,1.48,0,0,0-1.11.44A2.08,2.08,0,0,0,342,199h3.1a1.87,1.87,0,0,0-.41-1.28A1.38,1.38,0,0,0,343.57,197.28Z" transform="translate(-11.57 -193.53)"/><path class="e" d="M269.33,209.68a.83.83,0,0,1,.21-.6.84.84,0,0,1,.61-.21.73.73,0,0,1,.81.81.8.8,0,0,1-.21.59.83.83,0,0,1-.6.21.84.84,0,0,1-.61-.21A.8.8,0,0,1,269.33,209.68Zm1.54,8.65h-1.45v-6.84h1.45Z" transform="translate(-11.57 -193.53)"/><path class="e" d="M277.53,216.38a1.81,1.81,0,0,1-.72,1.54,3.56,3.56,0,0,1-2.09.53,5.08,5.08,0,0,1-2.2-.41v-1.26a5.43,5.43,0,0,0,2.25.56c.89,0,1.34-.27,1.34-.81a.63.63,0,0,0-.15-.43,1.59,1.59,0,0,0-.49-.36c-.23-.12-.54-.26-.94-.42a4.38,4.38,0,0,1-1.6-.91,1.7,1.7,0,0,1-.42-1.19,1.55,1.55,0,0,1,.71-1.36,3.29,3.29,0,0,1,1.92-.49,5.34,5.34,0,0,1,2.28.49L277,213a5.07,5.07,0,0,0-1.86-.45c-.76,0-1.15.21-1.15.65a.63.63,0,0,0,.3.54,6.5,6.5,0,0,0,1.31.62,5,5,0,0,1,1.23.6,1.75,1.75,0,0,1,.57.62A1.87,1.87,0,0,1,277.53,216.38Z" transform="translate(-11.57 -193.53)"/><path class="e" d="M285.86,218.45a2.4,2.4,0,0,1-2-.93h-.08c.05.58.08.93.08,1v2.8h-1.45v-9.88h1.18c0,.13.1.44.2.92h.07a2.3,2.3,0,0,1,2-1,2.38,2.38,0,0,1,2,.93,4.21,4.21,0,0,1,.71,2.6,4.11,4.11,0,0,1-.73,2.61A2.37,2.37,0,0,1,285.86,218.45Zm-.35-5.89a1.54,1.54,0,0,0-1.27.5,2.68,2.68,0,0,0-.4,1.62v.22a3.25,3.25,0,0,0,.4,1.81,1.47,1.47,0,0,0,1.29.56,1.32,1.32,0,0,0,1.16-.62,3.2,3.2,0,0,0,.41-1.76,3.15,3.15,0,0,0-.4-1.74A1.34,1.34,0,0,0,285.51,212.56Z" transform="translate(-11.57 -193.53)"/><path class="e" d="M293.74,211.37a3.62,3.62,0,0,1,.73.06l-.15,1.36a2.67,2.67,0,0,0-.64-.08,1.85,1.85,0,0,0-1.41.57,2.06,2.06,0,0,0-.54,1.48v3.57h-1.45v-6.84h1.13l.19,1.21h.08a2.69,2.69,0,0,1,.89-1A2.07,2.07,0,0,1,293.74,211.37Z" transform="translate(-11.57 -193.53)"/><path class="e" d="M301.79,214.9a3.71,3.71,0,0,1-.85,2.61,3.08,3.08,0,0,1-2.4.94,3.27,3.27,0,0,1-1.69-.43,2.84,2.84,0,0,1-1.13-1.24,4.3,4.3,0,0,1-.4-1.88,3.72,3.72,0,0,1,.86-2.6,3.1,3.1,0,0,1,2.4-.93,3,3,0,0,1,2.35,1A3.65,3.65,0,0,1,301.79,214.9Zm-5,0c0,1.58.58,2.37,1.75,2.37s1.73-.79,1.73-2.37-.58-2.34-1.74-2.34a1.49,1.49,0,0,0-1.33.6A3.15,3.15,0,0,0,296.82,214.9Z" transform="translate(-11.57 -193.53)"/><path class="e" d="M305,218.33l-2.6-6.84H304l1.39,4a7.89,7.89,0,0,1,.43,1.62h.05a11.12,11.12,0,0,1,.43-1.62l1.39-4h1.55l-2.61,6.84Z" transform="translate(-11.57 -193.53)"/><path class="e" d="M310.15,209.68a.83.83,0,0,1,.21-.6.84.84,0,0,1,.61-.21.73.73,0,0,1,.81.81.8.8,0,0,1-.21.59.83.83,0,0,1-.6.21.84.84,0,0,1-.61-.21A.8.8,0,0,1,310.15,209.68Zm1.54,8.65h-1.45v-6.84h1.45Z" transform="translate(-11.57 -193.53)"/><path class="e" d="M318.35,216.38a1.81,1.81,0,0,1-.72,1.54,3.56,3.56,0,0,1-2.09.53,5.08,5.08,0,0,1-2.2-.41v-1.26a5.43,5.43,0,0,0,2.25.56c.89,0,1.34-.27,1.34-.81a.63.63,0,0,0-.15-.43,1.59,1.59,0,0,0-.49-.36c-.23-.12-.54-.26-.94-.42a4.38,4.38,0,0,1-1.6-.91,1.7,1.7,0,0,1-.42-1.19,1.55,1.55,0,0,1,.71-1.36,3.29,3.29,0,0,1,1.92-.49,5.34,5.34,0,0,1,2.28.49l-.47,1.09a5.07,5.07,0,0,0-1.86-.45c-.76,0-1.15.21-1.15.65a.63.63,0,0,0,.3.54,6.5,6.5,0,0,0,1.31.62,5,5,0,0,1,1.23.6,1.75,1.75,0,0,1,.57.62A1.87,1.87,0,0,1,318.35,216.38Z" transform="translate(-11.57 -193.53)"/><path class="e" d="M319.84,209.68a.83.83,0,0,1,.21-.6.84.84,0,0,1,.61-.21.73.73,0,0,1,.81.81.8.8,0,0,1-.21.59.83.83,0,0,1-.6.21.84.84,0,0,1-.61-.21A.8.8,0,0,1,319.84,209.68Zm1.54,8.65h-1.46v-6.84h1.46Z" transform="translate(-11.57 -193.53)"/><path class="e" d="M329.51,214.9a3.71,3.71,0,0,1-.85,2.61,3.08,3.08,0,0,1-2.4.94,3.27,3.27,0,0,1-1.69-.43,2.84,2.84,0,0,1-1.13-1.24,4.3,4.3,0,0,1-.4-1.88,3.72,3.72,0,0,1,.86-2.6,3.1,3.1,0,0,1,2.4-.93,3,3,0,0,1,2.35,1A3.65,3.65,0,0,1,329.51,214.9Zm-5,0c0,1.58.58,2.37,1.75,2.37s1.73-.79,1.73-2.37-.58-2.34-1.74-2.34a1.51,1.51,0,0,0-1.33.6A3.15,3.15,0,0,0,324.54,214.9Z" transform="translate(-11.57 -193.53)"/><path class="e" d="M337.2,218.33h-1.46v-4.2a1.85,1.85,0,0,0-.32-1.18,1.23,1.23,0,0,0-1-.39,1.62,1.62,0,0,0-1.35.54,3,3,0,0,0-.42,1.82v3.41h-1.46v-6.84h1.14l.2.9h.08a2,2,0,0,1,.88-.75,2.91,2.91,0,0,1,1.26-.27,2.19,2.19,0,0,1,2.46,2.5Z" transform="translate(-11.57 -193.53)"/><path class="e" d="M342.2,218.45a3.3,3.3,0,0,1-2.49-.93,3.52,3.52,0,0,1-.9-2.56,3.91,3.91,0,0,1,.83-2.63,2.89,2.89,0,0,1,2.3-1,2.82,2.82,0,0,1,2.13.82,3.11,3.11,0,0,1,.79,2.26v.79H340.3a2.3,2.3,0,0,0,.54,1.53,1.91,1.91,0,0,0,1.43.53,5.1,5.1,0,0,0,1.13-.11,5.93,5.93,0,0,0,1.12-.38V218a4.42,4.42,0,0,1-1.08.36A6.55,6.55,0,0,1,342.2,218.45Zm-.26-6a1.45,1.45,0,0,0-1.11.44,2.06,2.06,0,0,0-.5,1.28h3.1a1.85,1.85,0,0,0-.41-1.28A1.38,1.38,0,0,0,341.94,212.47Z" transform="translate(-11.57 -193.53)"/><path class="e" d="M348.81,218.45a2.39,2.39,0,0,1-2-.92,4.18,4.18,0,0,1-.72-2.61,4.11,4.11,0,0,1,.73-2.61,2.38,2.38,0,0,1,2-.94,2.34,2.34,0,0,1,2.05,1H351a8.58,8.58,0,0,1-.1-1.17v-2.49h1.46v9.62h-1.14l-.25-.9h-.07A2.33,2.33,0,0,1,348.81,218.45Zm.39-1.17a1.58,1.58,0,0,0,1.31-.51,2.66,2.66,0,0,0,.42-1.63v-.2a3.08,3.08,0,0,0-.42-1.84,1.57,1.57,0,0,0-1.32-.54,1.33,1.33,0,0,0-1.18.62,3.13,3.13,0,0,0-.41,1.77,3.07,3.07,0,0,0,.4,1.73A1.35,1.35,0,0,0,349.2,217.28Z" transform="translate(-11.57 -193.53)"/><path class="e" d="M389.92,201.17h-1.21v2h-1.42v-2h-4.12v-1.12l4.12-6h1.42V200h1.21Zm-2.63-1.2V197.7c0-.81,0-1.47.06-2h-.05a5.6,5.6,0,0,1-.54,1L384.52,200Z" transform="translate(-11.57 -193.53)"/><path class="e" d="M391,202.37a1,1,0,0,1,.23-.69.92.92,0,0,1,.68-.24.9.9,0,0,1,.69.25.92.92,0,0,1,.23.68,1,1,0,0,1-.23.69.87.87,0,0,1-.69.26.89.89,0,0,1-.68-.25A1,1,0,0,1,391,202.37Z" transform="translate(-11.57 -193.53)"/><path class="e" d="M404.09,196.84a2.65,2.65,0,0,1-.93,2.17,4.11,4.11,0,0,1-2.64.75h-.94v3.38h-1.47v-9h2.6a4,4,0,0,1,2.54.69A2.49,2.49,0,0,1,404.09,196.84Zm-4.51,1.68h.79a2.78,2.78,0,0,0,1.67-.4,1.43,1.43,0,0,0,.53-1.23,1.38,1.38,0,0,0-.48-1.16,2.3,2.3,0,0,0-1.48-.39h-1Z" transform="translate(-11.57 -193.53)"/><path class="e" d="M411.8,199.71a3.76,3.76,0,0,1-.86,2.62,3.09,3.09,0,0,1-2.39.94,3.25,3.25,0,0,1-1.69-.44,2.84,2.84,0,0,1-1.13-1.24,4.16,4.16,0,0,1-.4-1.88,3.68,3.68,0,0,1,.85-2.59,3.08,3.08,0,0,1,2.41-.94,3,3,0,0,1,2.35,1A3.7,3.7,0,0,1,411.8,199.71Zm-5,0q0,2.37,1.74,2.37c1.16,0,1.73-.79,1.73-2.37s-.58-2.34-1.74-2.34a1.46,1.46,0,0,0-1.32.61A3,3,0,0,0,406.83,199.71Z" transform="translate(-11.57 -193.53)"/><path class="e" d="M415.77,203.27a2.36,2.36,0,0,1-2-.93,5.06,5.06,0,0,1,0-5.22,2.41,2.41,0,0,1,2-.94,2.36,2.36,0,0,1,2.05,1h.07a8.58,8.58,0,0,1-.1-1.16v-2.49h1.46v9.61h-1.14l-.25-.89h-.07A2.33,2.33,0,0,1,415.77,203.27Zm.39-1.18a1.62,1.62,0,0,0,1.31-.5,2.69,2.69,0,0,0,.42-1.64v-.2a3.1,3.1,0,0,0-.42-1.84,1.57,1.57,0,0,0-1.32-.54A1.35,1.35,0,0,0,415,198a3.18,3.18,0,0,0-.41,1.77,3.05,3.05,0,0,0,.4,1.73A1.34,1.34,0,0,0,416.16,202.09Z" transform="translate(-11.57 -193.53)"/><path class="e" d="M425.94,201.2a1.78,1.78,0,0,1-.73,1.53,3.44,3.44,0,0,1-2.08.54,4.9,4.9,0,0,1-2.2-.42V201.6a5.41,5.41,0,0,0,2.25.55c.89,0,1.34-.27,1.34-.81a.64.64,0,0,0-.15-.43,2,2,0,0,0-.49-.36,9.77,9.77,0,0,0-.95-.42,4.41,4.41,0,0,1-1.59-.91,1.7,1.7,0,0,1-.42-1.19,1.56,1.56,0,0,1,.71-1.36,3.37,3.37,0,0,1,1.92-.49,5.49,5.49,0,0,1,2.28.49l-.47,1.1a4.92,4.92,0,0,0-1.86-.46c-.76,0-1.15.22-1.15.65a.66.66,0,0,0,.3.55,6.65,6.65,0,0,0,1.31.61,6.39,6.39,0,0,1,1.23.6,1.78,1.78,0,0,1,.57.63A1.84,1.84,0,0,1,425.94,201.2Z" transform="translate(-11.57 -193.53)"/><path class="e" d="M435.08,203.14l-.29-.95h-.05a2.72,2.72,0,0,1-1,.85,3.12,3.12,0,0,1-1.28.23,2.22,2.22,0,0,1-1.58-.55,2,2,0,0,1-.56-1.54,1.81,1.81,0,0,1,.78-1.59,4.51,4.51,0,0,1,2.4-.59l1.17,0v-.36a1.4,1.4,0,0,0-.3-1,1.23,1.23,0,0,0-.95-.32,3.43,3.43,0,0,0-1,.15,6.76,6.76,0,0,0-.92.36l-.47-1a5.13,5.13,0,0,1,1.21-.45,5.67,5.67,0,0,1,1.25-.15,3,3,0,0,1,2,.57,2.25,2.25,0,0,1,.67,1.79v4.6Zm-2.17-1a1.77,1.77,0,0,0,1.27-.44,1.6,1.6,0,0,0,.48-1.24v-.59l-.87,0a3,3,0,0,0-1.5.34,1,1,0,0,0-.46.94.9.9,0,0,0,.27.7A1.14,1.14,0,0,0,432.91,202.15Z" transform="translate(-11.57 -193.53)"/><path class="e" d="M441.61,196.18a2.92,2.92,0,0,1,.72.07l-.14,1.35a2.74,2.74,0,0,0-.64-.08,1.85,1.85,0,0,0-1.41.57,2.06,2.06,0,0,0-.55,1.48v3.57h-1.45v-6.83h1.14l.19,1.2h.07a2.78,2.78,0,0,1,.89-1A2.12,2.12,0,0,1,441.61,196.18Z" transform="translate(-11.57 -193.53)"/><path class="e" d="M446.58,203.27a3.27,3.27,0,0,1-2.49-.94,3.51,3.51,0,0,1-.9-2.56,3.86,3.86,0,0,1,.84-2.63,2.87,2.87,0,0,1,2.29-1,2.83,2.83,0,0,1,2.14.83,3.13,3.13,0,0,1,.78,2.26v.78h-4.55a2.25,2.25,0,0,0,.53,1.53,1.88,1.88,0,0,0,1.43.54,5.09,5.09,0,0,0,1.13-.12,5.29,5.29,0,0,0,1.12-.38v1.18a4.35,4.35,0,0,1-1.07.36A6.68,6.68,0,0,1,446.58,203.27Zm-.26-6a1.48,1.48,0,0,0-1.11.44,2.06,2.06,0,0,0-.5,1.28h3.1a1.92,1.92,0,0,0-.4-1.28A1.42,1.42,0,0,0,446.32,197.28Z" transform="translate(-11.57 -193.53)"/><path class="e" d="M458.77,201.2a1.78,1.78,0,0,1-.73,1.53,3.47,3.47,0,0,1-2.09.54,4.85,4.85,0,0,1-2.19-.42V201.6a5.37,5.37,0,0,0,2.24.55c.89,0,1.34-.27,1.34-.81a.64.64,0,0,0-.15-.43,2.11,2.11,0,0,0-.48-.36c-.23-.12-.55-.26-.95-.42a4.38,4.38,0,0,1-1.6-.91,1.69,1.69,0,0,1-.41-1.19,1.55,1.55,0,0,1,.7-1.36,3.4,3.4,0,0,1,1.93-.49,5.56,5.56,0,0,1,2.28.49l-.47,1.1a5,5,0,0,0-1.86-.46c-.77,0-1.15.22-1.15.65a.66.66,0,0,0,.3.55,6.36,6.36,0,0,0,1.31.61,6.39,6.39,0,0,1,1.23.6,1.75,1.75,0,0,1,.56.63A1.72,1.72,0,0,1,458.77,201.2Z" transform="translate(-11.57 -193.53)"/><path class="e" d="M463.09,203.27a3,3,0,0,1-2.35-.91,3.77,3.77,0,0,1-.81-2.6,3.81,3.81,0,0,1,.84-2.65,3.14,3.14,0,0,1,2.44-.93,4.57,4.57,0,0,1,2,.41l-.44,1.16a4.31,4.31,0,0,0-1.52-.35c-1.18,0-1.77.78-1.77,2.35a2.8,2.8,0,0,0,.44,1.73,1.52,1.52,0,0,0,1.29.57,3.74,3.74,0,0,0,1.84-.48v1.27a3.13,3.13,0,0,1-.83.33A5.52,5.52,0,0,1,463.09,203.27Z" transform="translate(-11.57 -193.53)"/><path class="e" d="M472.62,203.14h-1.46v-4.2a1.85,1.85,0,0,0-.32-1.18,1.23,1.23,0,0,0-1-.39,1.57,1.57,0,0,0-1.34.55,3,3,0,0,0-.43,1.83v3.39H466.6v-9.61h1.46V196a11.19,11.19,0,0,1-.08,1.25h.1a2,2,0,0,1,.82-.76,2.54,2.54,0,0,1,1.23-.28,2.21,2.21,0,0,1,2.49,2.51Z" transform="translate(-11.57 -193.53)"/><path class="e" d="M477.62,203.27a3.27,3.27,0,0,1-2.49-.94,3.51,3.51,0,0,1-.9-2.56,3.91,3.91,0,0,1,.83-2.63,2.89,2.89,0,0,1,2.3-1,2.83,2.83,0,0,1,2.14.83,3.13,3.13,0,0,1,.78,2.26v.78h-4.55a2.21,2.21,0,0,0,.53,1.53,1.88,1.88,0,0,0,1.43.54,5.09,5.09,0,0,0,1.13-.12,5.29,5.29,0,0,0,1.12-.38v1.18a4.42,4.42,0,0,1-1.08.36A6.49,6.49,0,0,1,477.62,203.27Zm-.26-6a1.48,1.48,0,0,0-1.11.44,2.06,2.06,0,0,0-.5,1.28h3.1a1.87,1.87,0,0,0-.41-1.28A1.38,1.38,0,0,0,477.36,197.28Z" transform="translate(-11.57 -193.53)"/><path class="e" d="M484.23,203.27a2.37,2.37,0,0,1-2-.93,5.06,5.06,0,0,1,0-5.22,2.41,2.41,0,0,1,2-.94,2.36,2.36,0,0,1,2.05,1h.07a8.58,8.58,0,0,1-.1-1.16v-2.49h1.46v9.61H486.6l-.25-.89h-.07A2.33,2.33,0,0,1,484.23,203.27Zm.39-1.18a1.6,1.6,0,0,0,1.31-.5,2.69,2.69,0,0,0,.42-1.64v-.2a3.1,3.1,0,0,0-.42-1.84,1.57,1.57,0,0,0-1.32-.54,1.35,1.35,0,0,0-1.18.62,3.18,3.18,0,0,0-.41,1.77,3.05,3.05,0,0,0,.4,1.73A1.35,1.35,0,0,0,484.62,202.09Z" transform="translate(-11.57 -193.53)"/><path class="e" d="M494.63,203.14l-.2-.89h-.07a2.12,2.12,0,0,1-.87.74,2.86,2.86,0,0,1-1.27.28,2.53,2.53,0,0,1-1.86-.62,2.61,2.61,0,0,1-.61-1.88v-4.46h1.47v4.21a1.81,1.81,0,0,0,.32,1.18,1.22,1.22,0,0,0,1,.39,1.61,1.61,0,0,0,1.35-.55,3,3,0,0,0,.43-1.83v-3.4h1.46v6.83Z" transform="translate(-11.57 -193.53)"/><path class="e" d="M499.3,203.14h-1.45v-9.61h1.45Z" transform="translate(-11.57 -193.53)"/><path class="e" d="M504.36,203.27a3.27,3.27,0,0,1-2.49-.94,3.51,3.51,0,0,1-.9-2.56,3.91,3.91,0,0,1,.83-2.63,2.88,2.88,0,0,1,2.29-1,2.8,2.8,0,0,1,2.14.83,3.14,3.14,0,0,1,.79,2.26v.78h-4.56a2.21,2.21,0,0,0,.54,1.53,1.86,1.86,0,0,0,1.43.54,5.09,5.09,0,0,0,1.13-.12,5.49,5.49,0,0,0,1.12-.38v1.18a4.57,4.57,0,0,1-1.08.36A6.49,6.49,0,0,1,504.36,203.27Zm-.27-6a1.48,1.48,0,0,0-1.11.44,2.11,2.11,0,0,0-.49,1.28h3.1a1.87,1.87,0,0,0-.41-1.28A1.39,1.39,0,0,0,504.09,197.28Z" transform="translate(-11.57 -193.53)"/><path class="e" d="M511,203.27a2.36,2.36,0,0,1-2-.93,5.06,5.06,0,0,1,0-5.22,2.41,2.41,0,0,1,2-.94,2.38,2.38,0,0,1,2,1h.07A8.58,8.58,0,0,1,513,196v-2.49h1.46v9.61h-1.14l-.26-.89H513A2.33,2.33,0,0,1,511,203.27Zm.39-1.18a1.62,1.62,0,0,0,1.31-.5,2.63,2.63,0,0,0,.41-1.64v-.2a3.11,3.11,0,0,0-.41-1.84,1.58,1.58,0,0,0-1.32-.54,1.34,1.34,0,0,0-1.18.62,3.17,3.17,0,0,0-.42,1.77,3,3,0,0,0,.41,1.73A1.34,1.34,0,0,0,511.36,202.09Z" transform="translate(-11.57 -193.53)"/><path class="e" d="M405.05,214.9a3.71,3.71,0,0,1-.85,2.61,3.08,3.08,0,0,1-2.4.94,3.27,3.27,0,0,1-1.69-.43,2.84,2.84,0,0,1-1.13-1.24,4.3,4.3,0,0,1-.4-1.88,3.72,3.72,0,0,1,.86-2.6,3.1,3.1,0,0,1,2.4-.93,3,3,0,0,1,2.35.95A3.69,3.69,0,0,1,405.05,214.9Zm-5,0c0,1.58.58,2.37,1.75,2.37s1.73-.79,1.73-2.37-.58-2.34-1.74-2.34a1.51,1.51,0,0,0-1.33.6A3.13,3.13,0,0,0,400.08,214.9Z" transform="translate(-11.57 -193.53)"/><path class="e" d="M412.74,218.33h-1.46v-4.2A1.85,1.85,0,0,0,411,213a1.23,1.23,0,0,0-1-.39,1.62,1.62,0,0,0-1.35.54,3,3,0,0,0-.42,1.82v3.41h-1.46v-6.84h1.14l.2.9h.08a1.91,1.91,0,0,1,.88-.75,2.91,2.91,0,0,1,1.26-.27,2.19,2.19,0,0,1,2.46,2.5Z" transform="translate(-11.57 -193.53)"/><path class="e" d="M420.59,217.28a3.56,3.56,0,0,0,1.06-.17v1.09a2.93,2.93,0,0,1-.62.18,4,4,0,0,1-.79.07c-1.37,0-2.06-.72-2.06-2.17v-3.69h-.93V212l1-.53.49-1.45h.9v1.52h1.94v1.1h-1.94v3.66a1.06,1.06,0,0,0,.26.78A1,1,0,0,0,420.59,217.28Z" transform="translate(-11.57 -193.53)"/><path class="e" d="M429,218.33h-1.46v-4.2a1.79,1.79,0,0,0-.32-1.18,1.21,1.21,0,0,0-1-.39,1.61,1.61,0,0,0-1.34.54,3,3,0,0,0-.43,1.84v3.39H423v-9.62h1.45v2.44a11.26,11.26,0,0,1-.07,1.26h.09a2,2,0,0,1,.82-.77,2.73,2.73,0,0,1,1.24-.27,2.2,2.2,0,0,1,2.48,2.5Z" transform="translate(-11.57 -193.53)"/><path class="e" d="M434,218.45a3.31,3.31,0,0,1-2.5-.93,3.52,3.52,0,0,1-.9-2.56,3.85,3.85,0,0,1,.84-2.63,2.87,2.87,0,0,1,2.29-1,2.81,2.81,0,0,1,2.14.82,3.15,3.15,0,0,1,.78,2.26v.79h-4.55a2.25,2.25,0,0,0,.54,1.53,1.87,1.87,0,0,0,1.42.53,5.7,5.7,0,0,0,1.13-.11,5.93,5.93,0,0,0,1.12-.38V218a4.35,4.35,0,0,1-1.07.36A6.62,6.62,0,0,1,434,218.45Zm-.27-6a1.48,1.48,0,0,0-1.11.44,2.12,2.12,0,0,0-.5,1.28h3.11a1.9,1.9,0,0,0-.41-1.28A1.42,1.42,0,0,0,433.77,212.47Z" transform="translate(-11.57 -193.53)"/><path class="e" d="M447.64,218.33h-1.45v-4.2a1.85,1.85,0,0,0-.32-1.18,1.24,1.24,0,0,0-1-.39,1.6,1.6,0,0,0-1.35.54,3,3,0,0,0-.43,1.82v3.41h-1.45v-6.84h1.14l.2.9h.08a1.89,1.89,0,0,1,.87-.75,2.91,2.91,0,0,1,1.26-.27,2.19,2.19,0,0,1,2.46,2.5Z" transform="translate(-11.57 -193.53)"/><path class="e" d="M452.65,218.45a3.29,3.29,0,0,1-2.49-.93,3.52,3.52,0,0,1-.9-2.56,3.84,3.84,0,0,1,.83-2.63,2.88,2.88,0,0,1,2.29-1,2.8,2.8,0,0,1,2.14.82,3.16,3.16,0,0,1,.79,2.26v.79h-4.56a2.25,2.25,0,0,0,.54,1.53,1.89,1.89,0,0,0,1.43.53,5.6,5.6,0,0,0,1.12-.11,6,6,0,0,0,1.13-.38V218a4.57,4.57,0,0,1-1.08.36A6.62,6.62,0,0,1,452.65,218.45Zm-.27-6a1.48,1.48,0,0,0-1.11.44,2.11,2.11,0,0,0-.49,1.28h3.1a1.9,1.9,0,0,0-.41-1.28A1.4,1.4,0,0,0,452.38,212.47Z" transform="translate(-11.57 -193.53)"/><path class="e" d="M462.56,218.33l-.88-3.19c-.11-.34-.3-1.12-.58-2.35H461c-.24,1.11-.43,1.9-.57,2.36l-.91,3.18H458L456,211.49h1.48l.87,3.37c.2.83.34,1.55.43,2.14h0c0-.3.11-.65.19-1s.16-.68.22-.87l1-3.6h1.59l1,3.6c.06.2.14.51.23.93a6.36,6.36,0,0,1,.16,1h0a20.38,20.38,0,0,1,.44-2.13l.88-3.37h1.46l-1.93,6.84Z" transform="translate(-11.57 -193.53)"/><path class="e" d="M476.59,218.33h-1.45v-4.2a1.85,1.85,0,0,0-.32-1.18,1.24,1.24,0,0,0-1-.39,1.6,1.6,0,0,0-1.35.54,3,3,0,0,0-.43,1.82v3.41h-1.45v-6.84h1.14l.2.9H472a1.89,1.89,0,0,1,.87-.75,2.91,2.91,0,0,1,1.26-.27,2.19,2.19,0,0,1,2.46,2.5Z" transform="translate(-11.57 -193.53)"/><path class="e" d="M484.68,214.9a3.72,3.72,0,0,1-.86,2.61,3.06,3.06,0,0,1-2.39.94,3.28,3.28,0,0,1-1.7-.43,2.9,2.9,0,0,1-1.13-1.24,4.3,4.3,0,0,1-.39-1.88,3.72,3.72,0,0,1,.85-2.6,3.1,3.1,0,0,1,2.4-.93,3,3,0,0,1,2.35.95A3.7,3.7,0,0,1,484.68,214.9Zm-5,0c0,1.58.59,2.37,1.75,2.37s1.73-.79,1.73-2.37-.58-2.34-1.74-2.34a1.51,1.51,0,0,0-1.33.6A3.13,3.13,0,0,0,479.7,214.9Z" transform="translate(-11.57 -193.53)"/><path class="e" d="M488.65,218.45a2.39,2.39,0,0,1-2-.93,4.13,4.13,0,0,1-.71-2.6,4.18,4.18,0,0,1,.72-2.61,2.4,2.4,0,0,1,2-.94,2.34,2.34,0,0,1,2.05,1h.08a8.89,8.89,0,0,1-.11-1.17v-2.49h1.46v9.62H491l-.26-.9h-.07A2.3,2.3,0,0,1,488.65,218.45Zm.39-1.17a1.57,1.57,0,0,0,1.3-.51,2.66,2.66,0,0,0,.42-1.63v-.2a3.06,3.06,0,0,0-.42-1.84,1.56,1.56,0,0,0-1.31-.54,1.3,1.3,0,0,0-1.18.62,3.13,3.13,0,0,0-.42,1.77,3.16,3.16,0,0,0,.4,1.73A1.36,1.36,0,0,0,489,217.28Z" transform="translate(-11.57 -193.53)"/><path class="e" d="M497.21,218.45a3.3,3.3,0,0,1-2.49-.93,3.52,3.52,0,0,1-.9-2.56,3.85,3.85,0,0,1,.84-2.63,2.87,2.87,0,0,1,2.29-1,2.83,2.83,0,0,1,2.14.82,3.15,3.15,0,0,1,.78,2.26v.79h-4.55a2.29,2.29,0,0,0,.53,1.53,1.91,1.91,0,0,0,1.43.53,5.78,5.78,0,0,0,1.13-.11,5.93,5.93,0,0,0,1.12-.38V218a4.35,4.35,0,0,1-1.07.36A6.73,6.73,0,0,1,497.21,218.45Zm-.26-6a1.48,1.48,0,0,0-1.11.44,2.06,2.06,0,0,0-.5,1.28h3.1a1.9,1.9,0,0,0-.4-1.28A1.42,1.42,0,0,0,497,212.47Z" transform="translate(-11.57 -193.53)"/><rect class="f" x="364.25" y="34.31" width="70.87" height="92.95"/><path class="e" d="M387.3,240.2h-1.45l-3.55-5.76h0l0,.32c.05.62.07,1.18.07,1.69v3.75h-1.07V233h1.43l3.55,5.72h0c0-.07,0-.35,0-.82s0-.85,0-1.12V233h1.08Z" transform="translate(-11.57 -193.53)"/><path class="e" d="M393.93,237.46a3,3,0,0,1-.68,2.09,2.48,2.48,0,0,1-1.92.75A2.6,2.6,0,0,1,390,240a2.36,2.36,0,0,1-.9-1,3.25,3.25,0,0,1-.32-1.5,3,3,0,0,1,.68-2.08,2.51,2.51,0,0,1,1.92-.74,2.39,2.39,0,0,1,1.88.76A3,3,0,0,1,393.93,237.46Zm-4,0c0,1.26.46,1.89,1.39,1.89s1.39-.63,1.39-1.89-.47-1.87-1.4-1.87a1.2,1.2,0,0,0-1.06.48A2.55,2.55,0,0,0,390,237.46Z" transform="translate(-11.57 -193.53)"/><path class="e" d="M397.11,240.3a1.9,1.9,0,0,1-1.59-.74,3.28,3.28,0,0,1-.58-2.08,3.35,3.35,0,0,1,.58-2.09,1.93,1.93,0,0,1,1.61-.75,1.87,1.87,0,0,1,1.64.79h.06a7.91,7.91,0,0,1-.08-.93v-2h1.17v7.69H399l-.21-.71h-.05A1.86,1.86,0,0,1,397.11,240.3Zm.31-.94a1.27,1.27,0,0,0,1.05-.4,2.15,2.15,0,0,0,.33-1.31v-.16a2.49,2.49,0,0,0-.33-1.47,1.26,1.26,0,0,0-1.06-.43,1.07,1.07,0,0,0-.94.49,3.2,3.2,0,0,0,0,2.81A1.1,1.1,0,0,0,397.42,239.36Z" transform="translate(-11.57 -193.53)"/><path class="e" d="M404,240.3a2.67,2.67,0,0,1-2-.74,2.83,2.83,0,0,1-.72-2.05,3.09,3.09,0,0,1,.67-2.11,2.58,2.58,0,0,1,3.54-.11,2.52,2.52,0,0,1,.63,1.81v.63h-3.64a1.75,1.75,0,0,0,.43,1.22,1.48,1.48,0,0,0,1.14.43,4.29,4.29,0,0,0,.9-.09,4.74,4.74,0,0,0,.9-.3v.94a3.49,3.49,0,0,1-.86.29A5.87,5.87,0,0,1,404,240.3Zm-.21-4.78a1.12,1.12,0,0,0-.88.35,1.59,1.59,0,0,0-.4,1H405a1.57,1.57,0,0,0-.33-1A1.12,1.12,0,0,0,403.75,235.52Z" transform="translate(-11.57 -193.53)"/><path class="e" d="M413.07,240.2H411.9v-4.66c0-.56,0-1,0-1.33a2.44,2.44,0,0,1-.28.26l-1.11.91-.58-.73L412.1,233h1Z" transform="translate(-11.57 -193.53)"/><rect class="g" x="369.31" y="51.87" width="60.75" height="20.25"/><path class="b" d="M390.68,254a2.13,2.13,0,0,1-.74,1.74,3.3,3.3,0,0,1-2.12.6h-.75V259h-1.18v-7.22H388a3.13,3.13,0,0,1,2,.55A2,2,0,0,1,390.68,254Zm-3.61,1.35h.63A2.28,2.28,0,0,0,389,255a1.35,1.35,0,0,0,0-1.92,1.91,1.91,0,0,0-1.19-.31h-.82Z" transform="translate(-11.57 -193.53)"/><path class="b" d="M396.85,256.29a3,3,0,0,1-.69,2.09,2.47,2.47,0,0,1-1.91.75,2.64,2.64,0,0,1-1.36-.34,2.3,2.3,0,0,1-.9-1,3.38,3.38,0,0,1-.32-1.5,3,3,0,0,1,.68-2.08,2.52,2.52,0,0,1,1.93-.74,2.38,2.38,0,0,1,1.87.76A2.92,2.92,0,0,1,396.85,256.29Zm-4,0c0,1.26.46,1.89,1.4,1.89s1.38-.63,1.38-1.89-.47-1.87-1.39-1.87a1.18,1.18,0,0,0-1.06.48A2.46,2.46,0,0,0,392.87,256.29Z" transform="translate(-11.57 -193.53)"/><path class="b" d="M400,259.13a1.91,1.91,0,0,1-1.6-.74,3.34,3.34,0,0,1-.58-2.08,3.29,3.29,0,0,1,.59-2.09,2.1,2.1,0,0,1,3.25,0h.06a6.46,6.46,0,0,1-.09-.93v-2h1.17V259h-.91l-.2-.71h-.06A1.86,1.86,0,0,1,400,259.13Zm.31-.94a1.27,1.27,0,0,0,1-.4,2.12,2.12,0,0,0,.34-1.31v-.16a2.48,2.48,0,0,0-.34-1.47,1.24,1.24,0,0,0-1.05-.43,1.07,1.07,0,0,0-.95.49,2.57,2.57,0,0,0-.33,1.42,2.53,2.53,0,0,0,.32,1.39A1.11,1.11,0,0,0,400.34,258.19Z" transform="translate(-11.57 -193.53)"/><path class="b" d="M410.14,259H409v-4.66c0-.56,0-1,0-1.33a2.44,2.44,0,0,1-.28.26l-1.11.91-.58-.73,2.12-1.67h1Z" transform="translate(-11.57 -193.53)"/><rect class="g" x="369.31" y="76.63" width="60.75" height="20.25"/><path class="b" d="M390.68,278.76a2.11,2.11,0,0,1-.74,1.73,3.25,3.25,0,0,1-2.12.61h-.75v2.7h-1.18v-7.23H388a3.13,3.13,0,0,1,2,.56A2,2,0,0,1,390.68,278.76Zm-3.61,1.34h.63a2.29,2.29,0,0,0,1.34-.31,1.16,1.16,0,0,0,.42-1,1.12,1.12,0,0,0-.38-.93,1.84,1.84,0,0,0-1.19-.31h-.82Z" transform="translate(-11.57 -193.53)"/><path class="b" d="M396.85,281.06a3,3,0,0,1-.69,2.09,2.47,2.47,0,0,1-1.91.75,2.65,2.65,0,0,1-1.36-.35,2.28,2.28,0,0,1-.9-1,3.38,3.38,0,0,1-.32-1.5,3,3,0,0,1,.68-2.08,2.49,2.49,0,0,1,1.93-.75,2.39,2.39,0,0,1,1.87.77A2.91,2.91,0,0,1,396.85,281.06Zm-4,0c0,1.26.46,1.89,1.4,1.89s1.38-.63,1.38-1.89-.47-1.88-1.39-1.88a1.16,1.16,0,0,0-1.06.49A2.44,2.44,0,0,0,392.87,281.06Z" transform="translate(-11.57 -193.53)"/><path class="b" d="M400,283.9a1.91,1.91,0,0,1-1.6-.74,4,4,0,0,1,0-4.18,2.09,2.09,0,0,1,3.25,0h.06a6.46,6.46,0,0,1-.09-.93v-2h1.17v7.69h-.91l-.2-.72h-.06A1.84,1.84,0,0,1,400,283.9Zm.31-.94a1.27,1.27,0,0,0,1-.4,2.14,2.14,0,0,0,.34-1.31v-.16a2.48,2.48,0,0,0-.34-1.47,1.25,1.25,0,0,0-1.05-.44,1.08,1.08,0,0,0-.95.5,2.55,2.55,0,0,0-.33,1.42,2.49,2.49,0,0,0,.32,1.38A1.1,1.1,0,0,0,400.34,283Z" transform="translate(-11.57 -193.53)"/><path class="b" d="M411.63,283.8h-4.9v-.88l1.87-1.87c.55-.57.91-1,1.09-1.2a2.81,2.81,0,0,0,.39-.67,1.62,1.62,0,0,0,.13-.66,1,1,0,0,0-.3-.77,1.1,1.1,0,0,0-.81-.29,2,2,0,0,0-.8.16,3.56,3.56,0,0,0-.9.55l-.63-.77a4.08,4.08,0,0,1,1.17-.72,3.51,3.51,0,0,1,1.22-.21,2.37,2.37,0,0,1,1.61.53,1.76,1.76,0,0,1,.61,1.41,2.41,2.41,0,0,1-.18.93,3.62,3.62,0,0,1-.53.91,13.93,13.93,0,0,1-1.21,1.26l-1.26,1.22v0h3.43Z" transform="translate(-11.57 -193.53)"/><rect class="g" x="369.31" y="101.94" width="60.75" height="20.25"/><path class="b" d="M390.68,304.07a2.11,2.11,0,0,1-.74,1.73,3.25,3.25,0,0,1-2.12.61h-.75v2.7h-1.18v-7.23H388a3.13,3.13,0,0,1,2,.56A2,2,0,0,1,390.68,304.07Zm-3.61,1.34h.63a2.29,2.29,0,0,0,1.34-.31,1.16,1.16,0,0,0,.42-1,1.12,1.12,0,0,0-.38-.93,1.84,1.84,0,0,0-1.19-.31h-.82Z" transform="translate(-11.57 -193.53)"/><path class="b" d="M396.85,306.37a3,3,0,0,1-.69,2.09,2.47,2.47,0,0,1-1.91.75,2.65,2.65,0,0,1-1.36-.35,2.28,2.28,0,0,1-.9-1,3.38,3.38,0,0,1-.32-1.5,3,3,0,0,1,.68-2.08,2.49,2.49,0,0,1,1.93-.75,2.39,2.39,0,0,1,1.87.77A2.91,2.91,0,0,1,396.85,306.37Zm-4,0c0,1.26.46,1.89,1.4,1.89s1.38-.63,1.38-1.89-.47-1.88-1.39-1.88a1.18,1.18,0,0,0-1.06.49A2.44,2.44,0,0,0,392.87,306.37Z" transform="translate(-11.57 -193.53)"/><path class="b" d="M400,309.21a1.91,1.91,0,0,1-1.6-.74,4,4,0,0,1,0-4.18,2.09,2.09,0,0,1,3.25,0h.06a6.46,6.46,0,0,1-.09-.93v-2h1.17v7.69h-.91l-.2-.72h-.06A1.84,1.84,0,0,1,400,309.21Zm.31-.94a1.27,1.27,0,0,0,1-.4,2.14,2.14,0,0,0,.34-1.31v-.16a2.48,2.48,0,0,0-.34-1.47,1.25,1.25,0,0,0-1.05-.44,1.08,1.08,0,0,0-.95.5,2.55,2.55,0,0,0-.33,1.42,2.49,2.49,0,0,0,.32,1.38A1.1,1.1,0,0,0,400.34,308.27Z" transform="translate(-11.57 -193.53)"/><path class="b" d="M411.93,309.11h-1.17v-3.36a1.45,1.45,0,0,0-.25-.94,1,1,0,0,0-.81-.32,1.3,1.3,0,0,0-1.08.44,2.39,2.39,0,0,0-.34,1.46v2.72h-1.16v-5.47H408l.16.72h.06a1.64,1.64,0,0,1,.7-.6,2.41,2.41,0,0,1,1-.22,1.76,1.76,0,0,1,2,2Z" transform="translate(-11.57 -193.53)"/><rect class="f" x="440.18" y="34.31" width="70.87" height="92.95"/><path class="e" d="M463.23,240.2h-1.45l-3.55-5.76h0l0,.32c.05.62.07,1.18.07,1.69v3.75h-1.07V233h1.43l3.55,5.72h0c0-.07,0-.35,0-.82s0-.85,0-1.12V233h1.08Z" transform="translate(-11.57 -193.53)"/><path class="e" d="M469.87,237.46a3,3,0,0,1-.69,2.09,2.47,2.47,0,0,1-1.91.75,2.64,2.64,0,0,1-1.36-.34,2.36,2.36,0,0,1-.9-1,3.38,3.38,0,0,1-.32-1.5,3,3,0,0,1,.68-2.08,2.52,2.52,0,0,1,1.93-.74,2.38,2.38,0,0,1,1.87.76A2.92,2.92,0,0,1,469.87,237.46Zm-4,0c0,1.26.46,1.89,1.4,1.89s1.38-.63,1.38-1.89-.46-1.87-1.39-1.87a1.18,1.18,0,0,0-1.06.48A2.46,2.46,0,0,0,465.89,237.46Z" transform="translate(-11.57 -193.53)"/><path class="e" d="M473,240.3a1.9,1.9,0,0,1-1.59-.74,3.34,3.34,0,0,1-.58-2.08,3.29,3.29,0,0,1,.59-2.09,2.1,2.1,0,0,1,3.25,0h.05a7.91,7.91,0,0,1-.08-.93v-2h1.17v7.69h-.91l-.2-.71h-.06A1.86,1.86,0,0,1,473,240.3Zm.32-.94a1.27,1.27,0,0,0,1-.4,2.14,2.14,0,0,0,.34-1.31v-.16a2.48,2.48,0,0,0-.34-1.47,1.26,1.26,0,0,0-1-.43,1.07,1.07,0,0,0-1,.49,3.2,3.2,0,0,0,0,2.81A1.11,1.11,0,0,0,473.36,239.36Z" transform="translate(-11.57 -193.53)"/><path class="e" d="M479.9,240.3a2.68,2.68,0,0,1-2-.74,2.83,2.83,0,0,1-.72-2.05,3.14,3.14,0,0,1,.67-2.11,2.3,2.3,0,0,1,1.83-.76,2.25,2.25,0,0,1,1.71.65,2.52,2.52,0,0,1,.63,1.81v.63h-3.64a1.8,1.8,0,0,0,.43,1.22,1.48,1.48,0,0,0,1.14.43,4.22,4.22,0,0,0,.9-.09,4.74,4.74,0,0,0,.9-.3v.94a3.49,3.49,0,0,1-.86.29A5.83,5.83,0,0,1,479.9,240.3Zm-.22-4.78a1.14,1.14,0,0,0-.88.35,1.59,1.59,0,0,0-.4,1h2.48a1.51,1.51,0,0,0-.33-1A1.12,1.12,0,0,0,479.68,235.52Z" transform="translate(-11.57 -193.53)"/><path class="e" d="M490.49,240.2h-4.9v-.88l1.86-1.87a12.57,12.57,0,0,0,1.09-1.2,3.06,3.06,0,0,0,.4-.66,1.85,1.85,0,0,0,.12-.67,1,1,0,0,0-.29-.77,1.13,1.13,0,0,0-.82-.28,2.22,2.22,0,0,0-.8.15,3.88,3.88,0,0,0-.9.55l-.62-.76a4.22,4.22,0,0,1,1.17-.73,3.46,3.46,0,0,1,1.21-.21,2.37,2.37,0,0,1,1.61.53,1.76,1.76,0,0,1,.61,1.41,2.6,2.6,0,0,1-.17.93,3.81,3.81,0,0,1-.54.91,12.64,12.64,0,0,1-1.21,1.26l-1.26,1.22v.05h3.44Z" transform="translate(-11.57 -193.53)"/><rect class="g" x="445.24" y="51.87" width="60.75" height="20.25"/><path class="b" d="M466.61,254a2.13,2.13,0,0,1-.74,1.74,3.29,3.29,0,0,1-2.11.6H463V259h-1.18v-7.22h2.08a3.13,3.13,0,0,1,2,.55A2,2,0,0,1,466.61,254ZM463,255.34h.63A2.28,2.28,0,0,0,465,255a1.16,1.16,0,0,0,.42-1,1.12,1.12,0,0,0-.38-.93,1.89,1.89,0,0,0-1.18-.31H463Z" transform="translate(-11.57 -193.53)"/><path class="b" d="M472.78,256.29a3,3,0,0,1-.69,2.09,2.46,2.46,0,0,1-1.91.75,2.64,2.64,0,0,1-1.36-.34,2.3,2.3,0,0,1-.9-1,3.38,3.38,0,0,1-.32-1.5,3,3,0,0,1,.68-2.08,2.52,2.52,0,0,1,1.93-.74,2.42,2.42,0,0,1,1.88.76A3,3,0,0,1,472.78,256.29Zm-4,0c0,1.26.46,1.89,1.4,1.89s1.38-.63,1.38-1.89-.46-1.87-1.39-1.87a1.19,1.19,0,0,0-1.06.48A2.46,2.46,0,0,0,468.8,256.29Z" transform="translate(-11.57 -193.53)"/><path class="b" d="M476,259.13a1.91,1.91,0,0,1-1.6-.74,3.34,3.34,0,0,1-.57-2.08,3.29,3.29,0,0,1,.58-2.09,1.91,1.91,0,0,1,1.61-.75,1.88,1.88,0,0,1,1.64.79h.06a6.46,6.46,0,0,1-.09-.93v-2h1.17V259h-.91l-.2-.71h-.06A1.86,1.86,0,0,1,476,259.13Zm.31-.94a1.25,1.25,0,0,0,1-.4,2.12,2.12,0,0,0,.34-1.31v-.16a2.41,2.41,0,0,0-.34-1.47,1.23,1.23,0,0,0-1.05-.43,1.08,1.08,0,0,0-.95.49,2.57,2.57,0,0,0-.33,1.42,2.53,2.53,0,0,0,.32,1.39A1.11,1.11,0,0,0,476.27,258.19Z" transform="translate(-11.57 -193.53)"/><path class="b" d="M486.08,259h-1.17v-4.66c0-.56,0-1,0-1.33a2.44,2.44,0,0,1-.28.26l-1.11.91-.58-.73,2.13-1.67h1Z" transform="translate(-11.57 -193.53)"/><rect class="g" x="445.24" y="76.63" width="60.75" height="20.25"/><path class="b" d="M466.61,278.76a2.11,2.11,0,0,1-.74,1.73,3.24,3.24,0,0,1-2.11.61H463v2.7h-1.18v-7.23h2.08a3.13,3.13,0,0,1,2,.56A2,2,0,0,1,466.61,278.76ZM463,280.1h.63a2.29,2.29,0,0,0,1.34-.31,1.16,1.16,0,0,0,.42-1,1.09,1.09,0,0,0-.38-.93,1.83,1.83,0,0,0-1.18-.31H463Z" transform="translate(-11.57 -193.53)"/><path class="b" d="M472.78,281.06a3,3,0,0,1-.69,2.09,2.46,2.46,0,0,1-1.91.75,2.65,2.65,0,0,1-1.36-.35,2.28,2.28,0,0,1-.9-1,3.38,3.38,0,0,1-.32-1.5,3,3,0,0,1,.68-2.08,2.49,2.49,0,0,1,1.93-.75,2.43,2.43,0,0,1,1.88.77A3,3,0,0,1,472.78,281.06Zm-4,0c0,1.26.46,1.89,1.4,1.89s1.38-.63,1.38-1.89-.46-1.88-1.39-1.88a1.17,1.17,0,0,0-1.06.49A2.44,2.44,0,0,0,468.8,281.06Z" transform="translate(-11.57 -193.53)"/><path class="b" d="M476,283.9a1.91,1.91,0,0,1-1.6-.74,4.09,4.09,0,0,1,0-4.18,2.09,2.09,0,0,1,3.25,0h.06a6.46,6.46,0,0,1-.09-.93v-2h1.17v7.69h-.91l-.2-.72h-.06A1.84,1.84,0,0,1,476,283.9Zm.31-.94a1.25,1.25,0,0,0,1-.4,2.14,2.14,0,0,0,.34-1.31v-.16a2.41,2.41,0,0,0-.34-1.47,1.24,1.24,0,0,0-1.05-.44,1.09,1.09,0,0,0-.95.5,2.55,2.55,0,0,0-.33,1.42,2.49,2.49,0,0,0,.32,1.38A1.1,1.1,0,0,0,476.27,283Z" transform="translate(-11.57 -193.53)"/><path class="b" d="M487.56,283.8h-4.89v-.88l1.86-1.87c.55-.57.91-1,1.09-1.2a3.28,3.28,0,0,0,.4-.67,1.8,1.8,0,0,0,.12-.66,1,1,0,0,0-.29-.77,1.14,1.14,0,0,0-.82-.29,2,2,0,0,0-.8.16,3.56,3.56,0,0,0-.9.55l-.63-.77a4.12,4.12,0,0,1,1.18-.72,3.42,3.42,0,0,1,1.21-.21,2.37,2.37,0,0,1,1.61.53,1.76,1.76,0,0,1,.61,1.41,2.6,2.6,0,0,1-.17.93,4,4,0,0,1-.54.91,13.93,13.93,0,0,1-1.21,1.26l-1.26,1.22v0h3.43Z" transform="translate(-11.57 -193.53)"/><rect class="g" x="445.24" y="101.94" width="60.75" height="20.25"/><path class="b" d="M466.61,304.07a2.11,2.11,0,0,1-.74,1.73,3.24,3.24,0,0,1-2.11.61H463v2.7h-1.18v-7.23h2.08a3.13,3.13,0,0,1,2,.56A2,2,0,0,1,466.61,304.07ZM463,305.41h.63a2.29,2.29,0,0,0,1.34-.31,1.16,1.16,0,0,0,.42-1,1.09,1.09,0,0,0-.38-.93,1.83,1.83,0,0,0-1.18-.31H463Z" transform="translate(-11.57 -193.53)"/><path class="b" d="M472.78,306.37a3,3,0,0,1-.69,2.09,2.46,2.46,0,0,1-1.91.75,2.65,2.65,0,0,1-1.36-.35,2.28,2.28,0,0,1-.9-1,3.38,3.38,0,0,1-.32-1.5,3,3,0,0,1,.68-2.08,2.49,2.49,0,0,1,1.93-.75,2.43,2.43,0,0,1,1.88.77A3,3,0,0,1,472.78,306.37Zm-4,0c0,1.26.46,1.89,1.4,1.89s1.38-.63,1.38-1.89-.46-1.88-1.39-1.88a1.2,1.2,0,0,0-1.06.49A2.44,2.44,0,0,0,468.8,306.37Z" transform="translate(-11.57 -193.53)"/><path class="b" d="M476,309.21a1.91,1.91,0,0,1-1.6-.74,4.09,4.09,0,0,1,0-4.18,2.09,2.09,0,0,1,3.25,0h.06a6.46,6.46,0,0,1-.09-.93v-2h1.17v7.69h-.91l-.2-.72h-.06A1.84,1.84,0,0,1,476,309.21Zm.31-.94a1.25,1.25,0,0,0,1-.4,2.14,2.14,0,0,0,.34-1.31v-.16a2.41,2.41,0,0,0-.34-1.47,1.24,1.24,0,0,0-1.05-.44,1.09,1.09,0,0,0-.95.5,2.55,2.55,0,0,0-.33,1.42,2.49,2.49,0,0,0,.32,1.38A1.1,1.1,0,0,0,476.27,308.27Z" transform="translate(-11.57 -193.53)"/><path class="b" d="M487.86,309.11h-1.17v-3.36a1.45,1.45,0,0,0-.25-.94,1,1,0,0,0-.81-.32,1.3,1.3,0,0,0-1.08.44,2.47,2.47,0,0,0-.34,1.46v2.72h-1.16v-5.47H484l.16.72h.06a1.64,1.64,0,0,1,.7-.6,2.41,2.41,0,0,1,1-.22,1.76,1.76,0,0,1,2,2Z" transform="translate(-11.57 -193.53)"/><rect class="f" x="263.86" y="34.31" width="70.87" height="92.95"/><path class="e" d="M286.91,240.2h-1.45l-3.55-5.76h0l0,.32c0,.62.06,1.18.06,1.69v3.75h-1.07V233h1.44l3.54,5.72h0c0-.07,0-.35,0-.82s0-.85,0-1.12V233h1.08Z" transform="translate(-11.57 -193.53)"/><path class="e" d="M293.55,237.46a3,3,0,0,1-.69,2.09,2.47,2.47,0,0,1-1.91.75,2.64,2.64,0,0,1-1.36-.34,2.36,2.36,0,0,1-.9-1,3.38,3.38,0,0,1-.32-1.5,3,3,0,0,1,.68-2.08,2.52,2.52,0,0,1,1.93-.74,2.42,2.42,0,0,1,1.88.76A3,3,0,0,1,293.55,237.46Zm-4,0c0,1.26.46,1.89,1.4,1.89s1.38-.63,1.38-1.89-.46-1.87-1.39-1.87a1.19,1.19,0,0,0-1.06.48A2.46,2.46,0,0,0,289.57,237.46Z" transform="translate(-11.57 -193.53)"/><path class="e" d="M296.73,240.3a1.91,1.91,0,0,1-1.6-.74,3.34,3.34,0,0,1-.58-2.08,3.29,3.29,0,0,1,.59-2.09,2.1,2.1,0,0,1,3.25,0h.06a6.46,6.46,0,0,1-.09-.93v-2h1.17v7.69h-.91l-.2-.71h-.06A1.86,1.86,0,0,1,296.73,240.3Zm.31-.94a1.27,1.27,0,0,0,1-.4,2.14,2.14,0,0,0,.34-1.31v-.16a2.48,2.48,0,0,0-.34-1.47,1.24,1.24,0,0,0-1.05-.43,1.07,1.07,0,0,0-.95.49,3.2,3.2,0,0,0,0,2.81A1.11,1.11,0,0,0,297,239.36Z" transform="translate(-11.57 -193.53)"/><path class="e" d="M303.58,240.3a2.68,2.68,0,0,1-2-.74,2.83,2.83,0,0,1-.72-2.05,3.14,3.14,0,0,1,.67-2.11,2.32,2.32,0,0,1,1.84-.76,2.28,2.28,0,0,1,1.71.65,2.56,2.56,0,0,1,.62,1.81v.63h-3.64a1.8,1.8,0,0,0,.43,1.22,1.48,1.48,0,0,0,1.14.43,4.16,4.16,0,0,0,.9-.09,4.74,4.74,0,0,0,.9-.3v.94a3.49,3.49,0,0,1-.86.29A5.83,5.83,0,0,1,303.58,240.3Zm-.21-4.78a1.15,1.15,0,0,0-.89.35,1.59,1.59,0,0,0-.4,1h2.48a1.56,1.56,0,0,0-.32-1A1.15,1.15,0,0,0,303.37,235.52Z" transform="translate(-11.57 -193.53)"/><path class="e" d="M314.17,240.2h-4.9v-.88l1.86-1.87a14.86,14.86,0,0,0,1.1-1.2,3,3,0,0,0,.39-.66,1.85,1.85,0,0,0,.12-.67,1,1,0,0,0-.29-.77,1.13,1.13,0,0,0-.82-.28,2.22,2.22,0,0,0-.8.15,3.88,3.88,0,0,0-.9.55l-.62-.76a4.22,4.22,0,0,1,1.17-.73,3.46,3.46,0,0,1,1.21-.21,2.41,2.41,0,0,1,1.62.53,1.78,1.78,0,0,1,.6,1.41,2.4,2.4,0,0,1-.17.93,3.81,3.81,0,0,1-.54.91,12.64,12.64,0,0,1-1.21,1.26l-1.25,1.22v.05h3.43Z" transform="translate(-11.57 -193.53)"/><rect class="f" x="4.77" y="34.31" width="84.25" height="92.95"/><path class="e" d="M27.82,240.2H26.38l-3.56-5.76h0l0,.32c0,.62.07,1.18.07,1.69v3.75H21.8V233h1.44l3.54,5.72h0c0-.07,0-.35,0-.82s0-.85,0-1.12V233h1.08Z" transform="translate(-11.57 -193.53)"/><path class="e" d="M34.46,237.46a3,3,0,0,1-.69,2.09,2.47,2.47,0,0,1-1.91.75A2.67,2.67,0,0,1,30.5,240a2.36,2.36,0,0,1-.9-1,3.38,3.38,0,0,1-.32-1.5,3,3,0,0,1,.68-2.08,2.52,2.52,0,0,1,1.93-.74,2.42,2.42,0,0,1,1.88.76A3,3,0,0,1,34.46,237.46Zm-4,0c0,1.26.46,1.89,1.4,1.89s1.38-.63,1.38-1.89-.46-1.87-1.39-1.87a1.19,1.19,0,0,0-1.06.48A2.46,2.46,0,0,0,30.48,237.46Z" transform="translate(-11.57 -193.53)"/><path class="e" d="M37.64,240.3a1.91,1.91,0,0,1-1.6-.74,3.34,3.34,0,0,1-.57-2.08,3.29,3.29,0,0,1,.58-2.09,1.91,1.91,0,0,1,1.61-.75,1.88,1.88,0,0,1,1.64.79h.06a6.46,6.46,0,0,1-.09-.93v-2h1.17v7.69h-.91l-.2-.71h-.06A1.85,1.85,0,0,1,37.64,240.3Zm.31-.94a1.25,1.25,0,0,0,1-.4,2.14,2.14,0,0,0,.34-1.31v-.16A2.41,2.41,0,0,0,39,236a1.23,1.23,0,0,0-1.05-.43,1.07,1.07,0,0,0-.95.49,3.2,3.2,0,0,0,0,2.81A1.11,1.11,0,0,0,38,239.36Z" transform="translate(-11.57 -193.53)"/><path class="e" d="M44.49,240.3a2.68,2.68,0,0,1-2-.74,2.83,2.83,0,0,1-.72-2.05,3.14,3.14,0,0,1,.67-2.11,2.32,2.32,0,0,1,1.84-.76,2.28,2.28,0,0,1,1.71.65,2.56,2.56,0,0,1,.62,1.81v.63H43A1.8,1.8,0,0,0,43.4,239a1.48,1.48,0,0,0,1.14.43,4.16,4.16,0,0,0,.9-.09,4.74,4.74,0,0,0,.9-.3v.94a3.49,3.49,0,0,1-.86.29A5.83,5.83,0,0,1,44.49,240.3Zm-.21-4.78a1.15,1.15,0,0,0-.89.35,1.65,1.65,0,0,0-.4,1h2.48a1.51,1.51,0,0,0-.32-1A1.15,1.15,0,0,0,44.28,235.52Z" transform="translate(-11.57 -193.53)"/><path class="e" d="M53.59,240.2H52.43v-4.66c0-.56,0-1,0-1.33a3.71,3.71,0,0,1-.28.26l-1.11.91-.59-.73L52.62,233h1Z" transform="translate(-11.57 -193.53)"/><rect class="g" x="9.83" y="51.87" width="60.75" height="20.25"/><path class="b" d="M31.2,254a2.13,2.13,0,0,1-.74,1.74,3.29,3.29,0,0,1-2.11.6H27.6V259H26.41v-7.22H28.5a3.1,3.1,0,0,1,2,.55A2,2,0,0,1,31.2,254Zm-3.6,1.35h.62a2.28,2.28,0,0,0,1.34-.32,1.16,1.16,0,0,0,.42-1,1.12,1.12,0,0,0-.38-.93,1.89,1.89,0,0,0-1.18-.31H27.6Z" transform="translate(-11.57 -193.53)"/><path class="b" d="M37.37,256.29a3,3,0,0,1-.69,2.09,2.46,2.46,0,0,1-1.91.75,2.67,2.67,0,0,1-1.36-.34,2.3,2.3,0,0,1-.9-1,3.38,3.38,0,0,1-.32-1.5,3,3,0,0,1,.69-2.08,2.48,2.48,0,0,1,1.92-.74,2.41,2.41,0,0,1,1.88.76A3,3,0,0,1,37.37,256.29Zm-4,0c0,1.26.47,1.89,1.4,1.89s1.38-.63,1.38-1.89-.46-1.87-1.39-1.87a1.19,1.19,0,0,0-1.06.48A2.46,2.46,0,0,0,33.39,256.29Z" transform="translate(-11.57 -193.53)"/><path class="b" d="M40.55,259.13a1.92,1.92,0,0,1-1.6-.74,3.34,3.34,0,0,1-.57-2.08,3.29,3.29,0,0,1,.58-2.09,1.92,1.92,0,0,1,1.61-.75,1.88,1.88,0,0,1,1.64.79h.06a6.46,6.46,0,0,1-.09-.93v-2h1.17V259h-.91l-.2-.71h-.06A1.85,1.85,0,0,1,40.55,259.13Zm.31-.94a1.24,1.24,0,0,0,1-.4,2.12,2.12,0,0,0,.34-1.31v-.16a2.41,2.41,0,0,0-.34-1.47,1.23,1.23,0,0,0-1-.43,1.06,1.06,0,0,0-.94.49,2.48,2.48,0,0,0-.34,1.42,2.44,2.44,0,0,0,.33,1.39A1.08,1.08,0,0,0,40.86,258.19Z" transform="translate(-11.57 -193.53)"/><path class="b" d="M50.67,259H49.51v-4.66c0-.56,0-1,0-1.33a2.27,2.27,0,0,1-.27.26l-1.11.91-.59-.73,2.13-1.67h1Z" transform="translate(-11.57 -193.53)"/><rect class="g" x="9.83" y="76.63" width="60.75" height="20.25"/><path class="b" d="M31.2,278.76a2.11,2.11,0,0,1-.74,1.73,3.24,3.24,0,0,1-2.11.61H27.6v2.7H26.41v-7.23H28.5a3.1,3.1,0,0,1,2,.56A2,2,0,0,1,31.2,278.76Zm-3.6,1.34h.62a2.29,2.29,0,0,0,1.34-.31,1.16,1.16,0,0,0,.42-1,1.09,1.09,0,0,0-.38-.93,1.83,1.83,0,0,0-1.18-.31H27.6Z" transform="translate(-11.57 -193.53)"/><path class="b" d="M37.37,281.06a3,3,0,0,1-.69,2.09,2.46,2.46,0,0,1-1.91.75,2.67,2.67,0,0,1-1.36-.35,2.28,2.28,0,0,1-.9-1,3.38,3.38,0,0,1-.32-1.5,3,3,0,0,1,.69-2.08,2.45,2.45,0,0,1,1.92-.75,2.41,2.41,0,0,1,1.88.77A3,3,0,0,1,37.37,281.06Zm-4,0c0,1.26.47,1.89,1.4,1.89s1.38-.63,1.38-1.89-.46-1.88-1.39-1.88a1.17,1.17,0,0,0-1.06.49A2.44,2.44,0,0,0,33.39,281.06Z" transform="translate(-11.57 -193.53)"/><path class="b" d="M40.55,283.9a1.92,1.92,0,0,1-1.6-.74A4.09,4.09,0,0,1,39,279a1.92,1.92,0,0,1,1.61-.75,1.89,1.89,0,0,1,1.64.8h.06a6.46,6.46,0,0,1-.09-.93v-2h1.17v7.69h-.91l-.2-.72h-.06A1.83,1.83,0,0,1,40.55,283.9Zm.31-.94a1.24,1.24,0,0,0,1-.4,2.14,2.14,0,0,0,.34-1.31v-.16a2.41,2.41,0,0,0-.34-1.47,1.24,1.24,0,0,0-1-.44,1.06,1.06,0,0,0-.94.5,2.46,2.46,0,0,0-.34,1.42,2.4,2.4,0,0,0,.33,1.38A1.07,1.07,0,0,0,40.86,283Z" transform="translate(-11.57 -193.53)"/><path class="b" d="M52.15,283.8H47.26v-.88l1.86-1.87a15.73,15.73,0,0,0,1.09-1.2,2.88,2.88,0,0,0,.4-.67,1.8,1.8,0,0,0,.12-.66,1,1,0,0,0-.29-.77,1.14,1.14,0,0,0-.82-.29,2,2,0,0,0-.8.16,3.56,3.56,0,0,0-.9.55l-.62-.77a4,4,0,0,1,1.17-.72,3.46,3.46,0,0,1,1.21-.21,2.37,2.37,0,0,1,1.61.53,1.76,1.76,0,0,1,.61,1.41,2.6,2.6,0,0,1-.17.93,4,4,0,0,1-.54.91A12.64,12.64,0,0,1,50,281.51l-1.26,1.22v0h3.43Z" transform="translate(-11.57 -193.53)"/><rect class="g" x="9.83" y="101.94" width="60.75" height="20.25"/><path class="b" d="M31.2,304.07a2.11,2.11,0,0,1-.74,1.73,3.24,3.24,0,0,1-2.11.61H27.6v2.7H26.41v-7.23H28.5a3.1,3.1,0,0,1,2,.56A2,2,0,0,1,31.2,304.07Zm-3.6,1.34h.62a2.29,2.29,0,0,0,1.34-.31,1.16,1.16,0,0,0,.42-1,1.09,1.09,0,0,0-.38-.93,1.83,1.83,0,0,0-1.18-.31H27.6Z" transform="translate(-11.57 -193.53)"/><path class="b" d="M37.37,306.37a3,3,0,0,1-.69,2.09,2.46,2.46,0,0,1-1.91.75,2.67,2.67,0,0,1-1.36-.35,2.28,2.28,0,0,1-.9-1,3.38,3.38,0,0,1-.32-1.5,3,3,0,0,1,.69-2.08,2.45,2.45,0,0,1,1.92-.75,2.41,2.41,0,0,1,1.88.77A3,3,0,0,1,37.37,306.37Zm-4,0c0,1.26.47,1.89,1.4,1.89s1.38-.63,1.38-1.89-.46-1.88-1.39-1.88a1.2,1.2,0,0,0-1.06.49A2.44,2.44,0,0,0,33.39,306.37Z" transform="translate(-11.57 -193.53)"/><path class="b" d="M40.55,309.21a1.92,1.92,0,0,1-1.6-.74,4.09,4.09,0,0,1,0-4.18,1.92,1.92,0,0,1,1.61-.75,1.89,1.89,0,0,1,1.64.8h.06a6.46,6.46,0,0,1-.09-.93v-2h1.17v7.69h-.91l-.2-.72h-.06A1.83,1.83,0,0,1,40.55,309.21Zm.31-.94a1.24,1.24,0,0,0,1-.4,2.14,2.14,0,0,0,.34-1.31v-.16a2.41,2.41,0,0,0-.34-1.47,1.24,1.24,0,0,0-1-.44,1.06,1.06,0,0,0-.94.5,2.46,2.46,0,0,0-.34,1.42,2.4,2.4,0,0,0,.33,1.38A1.07,1.07,0,0,0,40.86,308.27Z" transform="translate(-11.57 -193.53)"/><path class="b" d="M52.45,309.11H51.28v-3.36a1.45,1.45,0,0,0-.25-.94,1,1,0,0,0-.81-.32,1.3,1.3,0,0,0-1.08.44,2.47,2.47,0,0,0-.34,1.46v2.72H47.64v-5.47h.91l.16.72h.06a1.62,1.62,0,0,1,.71-.6,2.33,2.33,0,0,1,1-.22,1.76,1.76,0,0,1,2,2Z" transform="translate(-11.57 -193.53)"/><path class="h" d="M93.16,250.09h.76v-.9H86.33v.9h.76c0,2.55,1,4.68,2.3,5.26a1,1,0,0,0,0,.17.78.78,0,0,0,0,.16c-1.32.59-2.3,2.72-2.3,5.26h-.76v.91h7.59v-.91h-.76c0-2.54-1-4.67-2.3-5.26a.78.78,0,0,0,0-.16,1,1,0,0,0,0-.17C92.18,254.77,93.16,252.64,93.16,250.09Z" transform="translate(-11.57 -193.53)"/><path class="h" d="M93.16,274.86h.76V274H86.33v.9h.76c0,2.55,1,4.67,2.3,5.26a.88.88,0,0,0,0,.16,1,1,0,0,0,0,.17c-1.32.58-2.3,2.71-2.3,5.26h-.76v.9h7.59v-.9h-.76c0-2.55-1-4.68-2.3-5.26a1,1,0,0,0,0-.17.88.88,0,0,0,0-.16C92.18,279.53,93.16,277.41,93.16,274.86Z" transform="translate(-11.57 -193.53)"/><path class="h" d="M93.16,300.17h.76v-.9H86.33v.9h.76c0,2.55,1,4.67,2.3,5.26a1,1,0,0,0,0,.16,1,1,0,0,0,0,.17c-1.32.59-2.3,2.71-2.3,5.26h-.76v.9h7.59V311h-.76c0-2.55-1-4.67-2.3-5.26a1,1,0,0,0,0-.17,1,1,0,0,0,0-.16C92.18,304.84,93.16,302.72,93.16,300.17Z" transform="translate(-11.57 -193.53)"/><polygon class="e" points="144.82 80.78 139.76 76.98 139.76 80.46 103.55 80.46 103.55 81.1 139.76 81.1 139.76 84.58 144.82 80.78"/><polygon class="e" points="251.87 80.78 246.8 76.98 246.8 80.46 210.59 80.46 210.59 81.1 246.8 81.1 246.8 84.58 251.87 80.78"/><polygon class="e" points="357.74 80.78 352.68 76.98 352.68 80.46 341.74 80.46 341.74 81.1 352.68 81.1 352.68 84.58 357.74 80.78"/></svg>