<svg width="546" height="280" viewBox="0 0 546 280" fill="none" xmlns="http://www.w3.org/2000/svg">
<path d="M21 2H525.638V278H21V2Z" fill="white"/>
<path fill-rule="evenodd" clip-rule="evenodd" d="M524.638 3H22V277H524.638V3ZM21 2V278H525.638V2H21Z" fill="#FF6633"/>
<path d="M21 2H525.638V48H21V2Z" fill="#FF6633"/>
<path d="M163.256 25.4289C162.898 22.8437 160.909 21.3437 158.33 21.3437C155.29 21.3437 153 23.5596 153 27.321C153 31.0767 155.261 33.2983 158.33 33.2983C161.097 33.2983 162.932 31.5085 163.256 29.2869L161.131 29.2755C160.864 30.6392 159.75 31.4062 158.358 31.4062C156.472 31.4062 155.119 29.9914 155.119 27.321C155.119 24.696 156.46 23.2358 158.364 23.2358C159.778 23.2358 160.886 24.0369 161.131 25.4289H163.256Z" fill="white"/>
<path d="M167.452 21.5028H165.395V33.1392H167.452V21.5028Z" fill="white"/>
<path d="M173.674 33.3096C176.231 33.3096 177.856 31.5085 177.856 28.8096C177.856 26.1051 176.231 24.2983 173.674 24.2983C171.117 24.2983 169.492 26.1051 169.492 28.8096C169.492 31.5085 171.117 33.3096 173.674 33.3096ZM173.685 31.6619C172.27 31.6619 171.577 30.4005 171.577 28.8039C171.577 27.2074 172.27 25.9289 173.685 25.9289C175.077 25.9289 175.77 27.2074 175.77 28.8039C175.77 30.4005 175.077 31.6619 173.685 31.6619Z" fill="white"/>
<path d="M185.464 29.4687C185.464 30.7983 184.515 31.4574 183.606 31.4574C182.617 31.4574 181.958 30.7585 181.958 29.6505V24.4119H179.901V29.9687C179.901 32.0653 181.095 33.2528 182.811 33.2528C184.117 33.2528 185.038 32.5653 185.436 31.588H185.526V33.1392H187.521V24.4119H185.464V29.4687Z" fill="white"/>
<path d="M193.174 33.2926C194.674 33.2926 195.351 32.4005 195.674 31.7642H195.799V33.1392H197.822V21.5028H195.76V25.8551H195.674C195.362 25.2244 194.72 24.2983 193.18 24.2983C191.163 24.2983 189.578 25.8778 189.578 28.7869C189.578 31.6619 191.118 33.2926 193.174 33.2926ZM193.748 31.6051C192.39 31.6051 191.674 30.4119 191.674 28.7755C191.674 27.1505 192.379 25.9858 193.748 25.9858C195.072 25.9858 195.799 27.0824 195.799 28.7755C195.799 30.4687 195.061 31.6051 193.748 31.6051Z" fill="white"/>
<path d="M204.734 24.4119H202.922V23.7244C202.922 23.0426 203.206 22.6619 203.973 22.6619C204.297 22.6619 204.57 22.7358 204.74 22.7869L205.155 21.196C204.888 21.1051 204.303 20.9574 203.592 20.9574C202.075 20.9574 200.865 21.8267 200.865 23.588V24.4119H199.575V26.0028H200.865V33.1392H202.922V26.0028H204.734V24.4119Z" fill="white"/>
<path d="M208.702 21.5028H206.645V33.1392H208.702V21.5028Z" fill="white"/>
<path d="M213.628 33.3153C214.998 33.3153 215.816 32.6733 216.191 31.9403H216.259V33.1392H218.236V27.2983C218.236 24.9914 216.356 24.2983 214.691 24.2983C212.856 24.2983 211.447 25.1164 210.992 26.7074L212.912 26.9801C213.117 26.3835 213.697 25.8721 214.702 25.8721C215.657 25.8721 216.18 26.3608 216.18 27.2187V27.2528C216.18 27.8437 215.56 27.8721 214.02 28.0369C212.327 28.2187 210.708 28.7244 210.708 30.6903C210.708 32.4062 211.964 33.3153 213.628 33.3153ZM214.162 31.8039C213.305 31.8039 212.691 31.4119 212.691 30.6562C212.691 29.8664 213.378 29.5369 214.299 29.4062C214.839 29.3324 215.918 29.196 216.185 28.9801V30.0085C216.185 30.9801 215.401 31.8039 214.162 31.8039Z" fill="white"/>
<path d="M220.605 33.1392H222.661V28.0085C222.661 26.9005 223.497 26.1164 224.627 26.1164C224.974 26.1164 225.406 26.1789 225.582 26.2358V24.3437C225.394 24.3096 225.07 24.2869 224.843 24.2869C223.843 24.2869 223.008 24.8551 222.69 25.8664H222.599V24.4119H220.605V33.1392Z" fill="white"/>
<path d="M230.753 33.3096C232.787 33.3096 234.184 32.3153 234.548 30.7983L232.628 30.5824C232.349 31.321 231.667 31.7074 230.781 31.7074C229.451 31.7074 228.571 30.8324 228.554 29.338H234.633V28.7074C234.633 25.6449 232.792 24.2983 230.645 24.2983C228.145 24.2983 226.514 26.1335 226.514 28.8267C226.514 31.5653 228.122 33.3096 230.753 33.3096ZM228.559 27.9517C228.622 26.838 229.446 25.9005 230.673 25.9005C231.855 25.9005 232.65 26.7642 232.662 27.9517H228.559Z" fill="white"/>
<path d="M246.232 27.446H240.993V29.1392H246.232V27.446Z" fill="white"/>
<path d="M256.998 33.1392C260.543 33.1392 262.646 30.946 262.646 27.3096C262.646 23.6846 260.543 21.5028 257.078 21.5028H253.055V33.1392H256.998ZM255.163 31.3153V23.3267H256.958C259.322 23.3267 260.555 24.6449 260.555 27.3096C260.555 29.9858 259.322 31.3153 256.896 31.3153H255.163Z" fill="white"/>
<path d="M268.721 33.3096C270.755 33.3096 272.153 32.3153 272.517 30.7983L270.596 30.5824C270.318 31.321 269.636 31.7074 268.75 31.7074C267.42 31.7074 266.539 30.8324 266.522 29.338H272.602V28.7074C272.602 25.6449 270.761 24.2983 268.613 24.2983C266.113 24.2983 264.483 26.1335 264.483 28.8267C264.483 31.5653 266.091 33.3096 268.721 33.3096ZM266.528 27.9517C266.591 26.838 267.414 25.9005 268.642 25.9005C269.824 25.9005 270.619 26.7642 270.63 27.9517H266.528Z" fill="white"/>
<path d="M279.062 24.4119H277.25V23.7244C277.25 23.0426 277.534 22.6619 278.301 22.6619C278.625 22.6619 278.898 22.7358 279.068 22.7869L279.483 21.196C279.216 21.1051 278.631 20.9574 277.92 20.9574C276.403 20.9574 275.193 21.8267 275.193 23.588V24.4119H273.903V26.0028H275.193V33.1392H277.25V26.0028H279.062V24.4119Z" fill="white"/>
<path d="M280.973 33.1392H283.03V24.4119H280.973V33.1392ZM282.007 23.1733C282.661 23.1733 283.195 22.6733 283.195 22.0596C283.195 21.4403 282.661 20.9403 282.007 20.9403C281.348 20.9403 280.814 21.4403 280.814 22.0596C280.814 22.6733 281.348 23.1733 282.007 23.1733Z" fill="white"/>
<path d="M287.502 28.0255C287.502 26.7642 288.263 26.0369 289.349 26.0369C290.411 26.0369 291.047 26.7358 291.047 27.9005V33.1392H293.104V27.5824C293.11 25.4914 291.917 24.2983 290.116 24.2983C288.809 24.2983 287.911 24.9233 287.513 25.8949H287.411V24.4119H285.445V33.1392H287.502V28.0255Z" fill="white"/>
<path d="M295.495 33.1392H297.552V24.4119H295.495V33.1392ZM296.529 23.1733C297.183 23.1733 297.717 22.6733 297.717 22.0596C297.717 21.4403 297.183 20.9403 296.529 20.9403C295.87 20.9403 295.336 21.4403 295.336 22.0596C295.336 22.6733 295.87 23.1733 296.529 23.1733Z" fill="white"/>
<path d="M302.024 28.0255C302.024 26.7642 302.785 26.0369 303.87 26.0369C304.933 26.0369 305.569 26.7358 305.569 27.9005V33.1392H307.626V27.5824C307.632 25.4914 306.439 24.2983 304.637 24.2983C303.331 24.2983 302.433 24.9233 302.035 25.8949H301.933V24.4119H299.967V33.1392H302.024V28.0255Z" fill="white"/>
<path d="M313.812 36.5937C316.17 36.5937 317.909 35.5142 317.909 33.2812V24.4119H315.881V25.8551H315.767C315.455 25.2244 314.801 24.2983 313.261 24.2983C311.244 24.2983 309.659 25.8778 309.659 28.7471C309.659 31.5937 311.244 33.0142 313.256 33.0142C314.75 33.0142 315.449 32.213 315.767 31.571H315.869V33.2244C315.869 34.5085 315.017 35.0369 313.847 35.0369C312.608 35.0369 312.062 34.4517 311.812 33.9403L309.96 34.3892C310.335 35.6108 311.591 36.5937 313.812 36.5937ZM313.83 31.4005C312.472 31.4005 311.756 30.3437 311.756 28.7358C311.756 27.1505 312.46 25.9858 313.83 25.9858C315.153 25.9858 315.881 27.0824 315.881 28.7358C315.881 30.4005 315.142 31.4005 313.83 31.4005Z" fill="white"/>
<path d="M328.944 24.4119H327.222V22.321H325.165V24.4119H323.927V26.0028H325.165V30.8551C325.154 32.4971 326.347 33.3039 327.893 33.2585C328.478 33.2414 328.881 33.1278 329.103 33.0539L328.756 31.446C328.643 31.4744 328.41 31.5255 328.154 31.5255C327.637 31.5255 327.222 31.3437 327.222 30.5142V26.0028H328.944V24.4119Z" fill="white"/>
<path d="M333.208 28.0255C333.208 26.7642 333.992 26.0369 335.095 26.0369C336.174 26.0369 336.811 26.7244 336.811 27.9005V33.1392H338.867V27.5824C338.867 25.4744 337.674 24.2983 335.862 24.2983C334.521 24.2983 333.668 24.9062 333.265 25.8949H333.163V21.5028H331.151V33.1392H333.208V28.0255Z" fill="white"/>
<path d="M345.128 33.3096C347.162 33.3096 348.559 32.3153 348.923 30.7983L347.003 30.5824C346.724 31.321 346.042 31.7074 345.156 31.7074C343.826 31.7074 342.946 30.8324 342.929 29.338H349.008V28.7074C349.008 25.6449 347.167 24.2983 345.02 24.2983C342.52 24.2983 340.889 26.1335 340.889 28.8267C340.889 31.5653 342.497 33.3096 345.128 33.3096ZM342.934 27.9517C342.997 26.838 343.821 25.9005 345.048 25.9005C346.23 25.9005 347.025 26.7642 347.037 27.9517H342.934Z" fill="white"/>
<path d="M355.408 33.1392H363.022V31.3721H357.516V28.196H362.584V26.4289H357.516V23.2699H362.976V21.5028H355.408V33.1392Z" fill="white"/>
<path d="M368.574 33.2926C370.074 33.2926 370.751 32.4005 371.074 31.7642H371.199V33.1392H373.222V21.5028H371.16V25.8551H371.074C370.762 25.2244 370.12 24.2983 368.58 24.2983C366.563 24.2983 364.978 25.8778 364.978 28.7869C364.978 31.6619 366.518 33.2926 368.574 33.2926ZM369.148 31.6051C367.79 31.6051 367.074 30.4119 367.074 28.7755C367.074 27.1505 367.779 25.9858 369.148 25.9858C370.472 25.9858 371.199 27.0824 371.199 28.7755C371.199 30.4687 370.461 31.6051 369.148 31.6051Z" fill="white"/>
<path d="M379.509 36.5937C381.867 36.5937 383.606 35.5142 383.606 33.2812V24.4119H381.578V25.8551H381.464C381.151 25.2244 380.498 24.2983 378.958 24.2983C376.941 24.2983 375.356 25.8778 375.356 28.7471C375.356 31.5937 376.941 33.0142 378.953 33.0142C380.447 33.0142 381.146 32.213 381.464 31.571H381.566V33.2244C381.566 34.5085 380.714 35.0369 379.543 35.0369C378.305 35.0369 377.759 34.4517 377.509 33.9403L375.657 34.3892C376.032 35.6108 377.288 36.5937 379.509 36.5937ZM379.526 31.4005C378.168 31.4005 377.453 30.3437 377.453 28.7358C377.453 27.1505 378.157 25.9858 379.526 25.9858C380.85 25.9858 381.578 27.0824 381.578 28.7358C381.578 30.4005 380.839 31.4005 379.526 31.4005Z" fill="white"/>
<path d="M389.878 33.3096C391.912 33.3096 393.309 32.3153 393.673 30.7983L391.753 30.5824C391.474 31.321 390.792 31.7074 389.906 31.7074C388.576 31.7074 387.696 30.8324 387.679 29.338H393.758V28.7074C393.758 25.6449 391.917 24.2983 389.77 24.2983C387.27 24.2983 385.639 26.1335 385.639 28.8267C385.639 31.5653 387.247 33.3096 389.878 33.3096ZM387.684 27.9517C387.747 26.838 388.571 25.9005 389.798 25.9005C390.98 25.9005 391.775 26.7642 391.787 27.9517H387.684Z" fill="white"/>
<path d="M213.83 236.877C213.494 234.454 211.63 233.047 209.211 233.047C206.362 233.047 204.215 235.125 204.215 238.651C204.215 242.172 206.335 244.255 209.211 244.255C211.806 244.255 213.526 242.577 213.83 240.494L211.837 240.483C211.587 241.762 210.543 242.481 209.238 242.481C207.47 242.481 206.202 241.155 206.202 238.651C206.202 236.19 207.459 234.821 209.243 234.821C210.57 234.821 211.608 235.572 211.837 236.877H213.83Z" fill="#222222"/>
<path d="M217.482 233.197H215.554V244.106H217.482V233.197Z" fill="#222222"/>
<path d="M223.034 244.265C225.431 244.265 226.955 242.577 226.955 240.047C226.955 237.511 225.431 235.817 223.034 235.817C220.637 235.817 219.114 237.511 219.114 240.047C219.114 242.577 220.637 244.265 223.034 244.265ZM223.045 242.721C221.719 242.721 221.069 241.538 221.069 240.041C221.069 238.545 221.719 237.346 223.045 237.346C224.35 237.346 225 238.545 225 240.041C225 241.538 224.35 242.721 223.045 242.721Z" fill="#222222"/>
<path d="M233.806 240.665C233.806 241.911 232.917 242.529 232.064 242.529C231.137 242.529 230.52 241.874 230.52 240.835V235.924H228.591V241.133C228.591 243.099 229.71 244.212 231.319 244.212C232.544 244.212 233.407 243.568 233.78 242.651H233.865V244.106H235.734V235.924H233.806V240.665Z" fill="#222222"/>
<path d="M240.753 244.249C242.16 244.249 242.794 243.413 243.097 242.817H243.214V244.106H245.111V233.197H243.177V237.277H243.097C242.804 236.686 242.202 235.817 240.759 235.817C238.868 235.817 237.382 237.298 237.382 240.025C237.382 242.721 238.825 244.249 240.753 244.249ZM241.291 242.667C240.018 242.667 239.347 241.549 239.347 240.015C239.347 238.491 240.008 237.399 241.291 237.399C242.533 237.399 243.214 238.427 243.214 240.015C243.214 241.602 242.522 242.667 241.291 242.667Z" fill="#222222"/>
<path d="M251.31 235.924H249.61V235.279C249.61 234.64 249.877 234.283 250.596 234.283C250.9 234.283 251.155 234.352 251.315 234.4L251.704 232.909C251.454 232.824 250.905 232.685 250.239 232.685C248.817 232.685 247.682 233.5 247.682 235.151V235.924H246.473V237.415H247.682V244.106H249.61V237.415H251.31V235.924Z" fill="#222222"/>
<path d="M254.748 233.197H252.82V244.106H254.748V233.197Z" fill="#222222"/>
<path d="M259.085 244.271C260.369 244.271 261.136 243.669 261.488 242.982H261.552V244.106H263.405V238.63C263.405 236.467 261.642 235.817 260.081 235.817C258.361 235.817 257.04 236.584 256.614 238.076L258.414 238.331C258.606 237.772 259.149 237.293 260.092 237.293C260.987 237.293 261.477 237.751 261.477 238.555V238.587C261.477 239.141 260.896 239.168 259.453 239.322C257.866 239.493 256.347 239.967 256.347 241.81C256.347 243.418 257.525 244.271 259.085 244.271ZM259.586 242.854C258.782 242.854 258.206 242.486 258.206 241.778C258.206 241.037 258.851 240.729 259.714 240.606C260.22 240.537 261.232 240.409 261.482 240.206V241.171C261.482 242.081 260.747 242.854 259.586 242.854Z" fill="#222222"/>
<path d="M265.344 244.106H267.272V239.296C267.272 238.257 268.056 237.522 269.116 237.522C269.44 237.522 269.845 237.58 270.01 237.634V235.86C269.835 235.828 269.531 235.807 269.318 235.807C268.38 235.807 267.597 236.339 267.299 237.287H267.214V235.924H265.344V244.106Z" fill="#222222"/>
<path d="M274.577 244.265C276.484 244.265 277.794 243.333 278.135 241.911L276.335 241.709C276.074 242.401 275.434 242.763 274.603 242.763C273.357 242.763 272.531 241.943 272.515 240.542H278.215V239.951C278.215 237.08 276.489 235.817 274.476 235.817C272.132 235.817 270.603 237.538 270.603 240.063C270.603 242.63 272.11 244.265 274.577 244.265ZM272.521 239.242C272.579 238.198 273.352 237.319 274.502 237.319C275.61 237.319 276.356 238.129 276.367 239.242H272.521Z" fill="#222222"/>
<path d="M292.617 233.197H290.651V240.633H290.556L285.421 233.197H283.652V244.106H285.628V236.675H285.719L290.859 244.106H292.617V233.197Z" fill="#222222"/>
<path d="M298.307 244.265C300.214 244.265 301.525 243.333 301.865 241.911L300.065 241.709C299.804 242.401 299.165 242.763 298.334 242.763C297.087 242.763 296.262 241.943 296.246 240.542H301.945V239.951C301.945 237.08 300.219 235.817 298.206 235.817C295.862 235.817 294.333 237.538 294.333 240.063C294.333 242.63 295.841 244.265 298.307 244.265ZM296.251 239.242C296.31 238.198 297.082 237.319 298.233 237.319C299.341 237.319 300.086 238.129 300.097 239.242H296.251Z" fill="#222222"/>
<path d="M307.662 235.924H306.048V233.964H304.12V235.924H302.959V237.415H304.12V241.964C304.109 243.504 305.228 244.26 306.677 244.217C307.225 244.202 307.604 244.095 307.811 244.026L307.486 242.518C307.38 242.545 307.162 242.593 306.922 242.593C306.437 242.593 306.048 242.422 306.048 241.645V237.415H307.662V235.924Z" fill="#222222"/>
<path d="M310.963 244.106H312.977L314.511 238.577H314.623L316.157 244.106H318.165L320.482 235.924H318.511L317.094 241.645H317.015L315.544 235.924H313.6L312.13 241.677H312.055L310.617 235.924H308.652L310.963 244.106Z" fill="#222222"/>
<path d="M325.178 244.265C327.575 244.265 329.098 242.577 329.098 240.047C329.098 237.511 327.575 235.817 325.178 235.817C322.781 235.817 321.257 237.511 321.257 240.047C321.257 242.577 322.781 244.265 325.178 244.265ZM325.188 242.721C323.862 242.721 323.212 241.538 323.212 240.041C323.212 238.545 323.862 237.346 325.188 237.346C326.493 237.346 327.143 238.545 327.143 240.041C327.143 241.538 326.493 242.721 325.188 242.721Z" fill="#222222"/>
<path d="M330.735 244.106H332.663V239.296C332.663 238.257 333.446 237.522 334.506 237.522C334.831 237.522 335.236 237.58 335.401 237.634V235.86C335.225 235.828 334.922 235.807 334.709 235.807C333.771 235.807 332.988 236.339 332.69 237.287H332.605V235.924H330.735V244.106Z" fill="#222222"/>
<path d="M336.682 244.106H338.61V241.357L339.314 240.606L341.817 244.106H344.124L340.768 239.455L343.937 235.924H341.684L338.744 239.21H338.61V233.197H336.682V244.106Z" fill="#222222"/>
<path d="M289.514 221.511H260.868C258.016 221.505 255.282 220.368 253.265 218.351C251.248 216.334 250.112 213.6 250.106 210.748C250.121 209.155 250.481 207.584 251.161 206.143C251.84 204.701 252.823 203.424 254.042 202.399C256.082 200.673 258.713 199.807 261.379 199.985C262.588 197.008 264.746 194.514 267.516 192.888C270.287 191.262 273.516 190.596 276.704 190.991C279.892 191.387 282.861 192.823 285.15 195.076C287.439 197.33 288.921 200.276 289.366 203.458C291.572 203.359 293.734 204.095 295.422 205.518C296.817 206.733 297.809 208.343 298.267 210.135C298.725 211.927 298.627 213.816 297.987 215.551C297.346 217.286 296.193 218.785 294.68 219.849C293.168 220.914 291.367 221.493 289.518 221.509L289.514 221.511ZM260.698 202.99C258.972 202.985 257.302 203.597 255.989 204.716C255.106 205.457 254.394 206.379 253.902 207.42C253.409 208.461 253.147 209.596 253.134 210.748C253.137 212.794 253.95 214.757 255.395 216.206C256.84 217.655 258.8 218.474 260.846 218.483H289.513C291.107 218.481 292.634 217.847 293.761 216.72C294.888 215.593 295.522 214.065 295.523 212.471C295.531 211.594 295.351 210.725 294.994 209.923C294.638 209.122 294.114 208.405 293.458 207.823C292.731 207.244 291.885 206.833 290.979 206.621C290.074 206.41 289.133 206.402 288.225 206.599L286.519 206.874L286.471 205.146C286.392 202.406 285.343 199.783 283.51 197.744C281.677 195.705 279.18 194.384 276.463 194.014C273.747 193.645 270.988 194.253 268.677 195.729C266.367 197.204 264.656 199.452 263.848 202.072L263.456 203.349L262.141 203.117C261.665 203.033 261.182 202.99 260.698 202.99Z" fill="#0055DC"/>
<path d="M50.3164 129.03L51.2166 126.34H55.3182L56.2237 129.03H58.3331L54.4872 118.12H52.0476L48.207 129.03H50.3164ZM51.7493 124.752L53.2248 120.358H53.31L54.7855 124.752H51.7493Z" fill="#222222"/>
<path d="M59.6847 132.098H61.613V127.741H61.6929C61.9965 128.337 62.6304 129.173 64.0367 129.173C65.9649 129.173 67.4085 127.645 67.4085 124.949C67.4085 122.222 65.9223 120.741 64.0313 120.741C62.5878 120.741 61.9859 121.609 61.6929 122.201H61.5811V120.848H59.6847V132.098ZM61.5757 124.939C61.5757 123.351 62.2575 122.323 63.4987 122.323C64.7824 122.323 65.4429 123.415 65.4429 124.939C65.4429 126.473 64.7718 127.591 63.4987 127.591C62.2682 127.591 61.5757 126.526 61.5757 124.939Z" fill="#222222"/>
<path d="M69.0597 132.098H70.988V127.741H71.0679C71.3715 128.337 72.0054 129.173 73.4117 129.173C75.3399 129.173 76.7835 127.645 76.7835 124.949C76.7835 122.222 75.2973 120.741 73.4063 120.741C71.9628 120.741 71.3609 121.609 71.0679 122.201H70.9561V120.848H69.0597V132.098ZM70.9507 124.939C70.9507 123.351 71.6325 122.323 72.8737 122.323C74.1574 122.323 74.8179 123.415 74.8179 124.939C74.8179 126.473 74.1468 127.591 72.8737 127.591C71.6432 127.591 70.9507 126.526 70.9507 124.939Z" fill="#222222"/>
<path d="M80.363 118.12H78.4347V129.03H80.363V118.12Z" fill="#222222"/>
<path d="M82.3459 129.03H84.2741V120.848H82.3459V129.03ZM83.3153 119.687C83.9279 119.687 84.4286 119.218 84.4286 118.643C84.4286 118.062 83.9279 117.593 83.3153 117.593C82.6974 117.593 82.1967 118.062 82.1967 118.643C82.1967 119.218 82.6974 119.687 83.3153 119.687Z" fill="#222222"/>
<path d="M89.8259 129.189C91.882 129.189 93.1924 127.97 93.3309 126.233H91.4878C91.3227 127.112 90.6888 127.618 89.8419 127.618C88.638 127.618 87.8604 126.611 87.8604 124.939C87.8604 123.287 88.654 122.297 89.8419 122.297C90.7687 122.297 91.3387 122.893 91.4878 123.682H93.3309C93.1977 121.908 91.8128 120.741 89.8153 120.741C87.4182 120.741 85.9055 122.472 85.9055 124.971C85.9055 127.448 87.3809 129.189 89.8259 129.189Z" fill="#222222"/>
<path d="M97.2686 129.195C98.5524 129.195 99.3194 128.593 99.671 127.906H99.7349V129.03H101.589V123.554C101.589 121.391 99.8255 120.741 98.2647 120.741C96.5442 120.741 95.2232 121.508 94.7971 123L96.5975 123.255C96.7892 122.696 97.3326 122.217 98.2754 122.217C99.1703 122.217 99.6603 122.675 99.6603 123.479V123.511C99.6603 124.065 99.0797 124.092 97.6362 124.246C96.0488 124.417 94.5307 124.891 94.5307 126.734C94.5307 128.342 95.7079 129.195 97.2686 129.195ZM97.7694 127.778C96.965 127.778 96.3897 127.41 96.3897 126.702C96.3897 125.961 97.0343 125.652 97.8972 125.53C98.4032 125.461 99.4153 125.333 99.6657 125.13V126.095C99.6657 127.005 98.9306 127.778 97.7694 127.778Z" fill="#222222"/>
<path d="M107.613 120.848H105.999V118.888H104.071V120.848H102.91V122.339H104.071V126.888C104.06 128.428 105.179 129.184 106.628 129.141C107.176 129.125 107.555 129.019 107.762 128.95L107.437 127.442C107.331 127.469 107.112 127.517 106.873 127.517C106.388 127.517 105.999 127.346 105.999 126.569V122.339H107.613V120.848Z" fill="#222222"/>
<path d="M109.226 129.03H111.154V120.848H109.226V129.03ZM110.195 119.687C110.808 119.687 111.309 119.218 111.309 118.643C111.309 118.062 110.808 117.593 110.195 117.593C109.577 117.593 109.077 118.062 109.077 118.643C109.077 119.218 109.577 119.687 110.195 119.687Z" fill="#222222"/>
<path d="M116.706 129.189C119.103 129.189 120.626 127.501 120.626 124.971C120.626 122.435 119.103 120.741 116.706 120.741C114.309 120.741 112.785 122.435 112.785 124.971C112.785 127.501 114.309 129.189 116.706 129.189ZM116.716 127.645C115.39 127.645 114.74 126.462 114.74 124.965C114.74 123.468 115.39 122.27 116.716 122.27C118.021 122.27 118.671 123.468 118.671 124.965C118.671 126.462 118.021 127.645 116.716 127.645Z" fill="#222222"/>
<path d="M124.191 124.236C124.191 123.053 124.905 122.371 125.922 122.371C126.918 122.371 127.515 123.026 127.515 124.118V129.03H129.443V123.82C129.449 121.86 128.33 120.741 126.641 120.741C125.416 120.741 124.575 121.327 124.202 122.238H124.106V120.848H122.263V129.03H124.191V124.236Z" fill="#222222"/>
<path d="M64.5487 139.119H66.4503C66.413 137.276 64.8417 135.971 62.5192 135.971C60.2287 135.971 58.5082 137.26 58.5135 139.189C58.5135 140.755 59.6268 141.655 61.4219 142.118L62.663 142.438C63.8402 142.736 64.6179 143.104 64.6233 143.951C64.6179 144.883 63.7337 145.506 62.4446 145.506C61.2089 145.506 60.25 144.952 60.1701 143.807H58.2259C58.3058 145.975 59.9198 147.195 62.4606 147.195C65.076 147.195 66.5941 145.89 66.5995 143.967C66.5941 142.076 65.0334 141.213 63.3928 140.824L62.3701 140.568C61.4752 140.355 60.5057 139.977 60.5164 139.066C60.5217 138.246 61.2568 137.644 62.4926 137.644C63.6698 137.644 64.4475 138.193 64.5487 139.119Z" fill="#222222"/>
<path d="M71.8982 147.189C73.8052 147.189 75.1155 146.257 75.4565 144.835L73.656 144.633C73.395 145.325 72.7558 145.687 71.9249 145.687C70.6784 145.687 69.8528 144.867 69.8368 143.466H75.5364V142.875C75.5364 140.004 73.8105 138.741 71.797 138.741C69.4533 138.741 67.9245 140.462 67.9245 142.987C67.9245 145.554 69.432 147.189 71.8982 147.189ZM69.8421 142.166C69.9007 141.122 70.6731 140.243 71.8236 140.243C72.9316 140.243 73.6773 141.053 73.688 142.166H69.8421Z" fill="#222222"/>
<path d="M77.1677 147.03H79.0959V142.22C79.0959 141.181 79.879 140.446 80.939 140.446C81.2639 140.446 81.6687 140.504 81.8339 140.558V138.784C81.6581 138.752 81.3544 138.731 81.1414 138.731C80.2039 138.731 79.4209 139.263 79.1226 140.211H79.0373V138.848H77.1677V147.03Z" fill="#222222"/>
<path d="M90.6722 138.848H88.6214L86.7358 144.926H86.6505L84.7702 138.848H82.7141L85.6278 147.03H87.7585L90.6722 138.848Z" fill="#222222"/>
<path d="M92.0065 147.03H93.9348V138.848H92.0065V147.03ZM92.976 137.687C93.5886 137.687 94.0893 137.218 94.0893 136.643C94.0893 136.062 93.5886 135.593 92.976 135.593C92.3581 135.593 91.8574 136.062 91.8574 136.643C91.8574 137.218 92.3581 137.687 92.976 137.687Z" fill="#222222"/>
<path d="M99.4865 147.189C101.543 147.189 102.853 145.97 102.992 144.233H101.148C100.983 145.112 100.349 145.618 99.5025 145.618C98.2987 145.618 97.521 144.611 97.521 142.939C97.521 141.287 98.3147 140.297 99.5025 140.297C100.429 140.297 100.999 140.893 101.148 141.682H102.992C102.858 139.908 101.473 138.741 99.4759 138.741C97.0789 138.741 95.5661 140.472 95.5661 142.971C95.5661 145.448 97.0416 147.189 99.4865 147.189Z" fill="#222222"/>
<path d="M108.197 147.189C110.104 147.189 111.414 146.257 111.755 144.835L109.955 144.633C109.694 145.325 109.055 145.687 108.224 145.687C106.977 145.687 106.152 144.867 106.136 143.466H111.835V142.875C111.835 140.004 110.109 138.741 108.096 138.741C105.752 138.741 104.223 140.462 104.223 142.987C104.223 145.554 105.731 147.189 108.197 147.189ZM106.141 142.166C106.2 141.122 106.972 140.243 108.122 140.243C109.23 140.243 109.976 141.053 109.987 142.166H106.141Z" fill="#222222"/>
<path d="M119.933 141.01C119.667 139.625 118.559 138.741 116.641 138.741C114.67 138.741 113.328 139.711 113.333 141.223C113.328 142.417 114.063 143.205 115.634 143.53L117.03 143.823C117.781 143.988 118.133 144.292 118.133 144.755C118.133 145.314 117.525 145.735 116.609 145.735C115.725 145.735 115.15 145.352 114.985 144.617L113.104 144.798C113.344 146.3 114.606 147.189 116.615 147.189C118.66 147.189 120.104 146.129 120.109 144.579C120.104 143.413 119.352 142.699 117.808 142.363L116.412 142.065C115.581 141.879 115.251 141.591 115.256 141.117C115.251 140.563 115.864 140.179 116.668 140.179C117.557 140.179 118.026 140.664 118.175 141.202L119.933 141.01Z" fill="#222222"/>
<path d="M90.2658 69.1259C90.1402 69.1168 90.0137 69.1168 89.8873 69.1168H89.6398C84.4201 69.1168 79.4142 71.1903 75.7233 74.8812C72.0324 78.5721 69.9589 83.578 69.9589 88.7977C69.9589 94.0174 72.0324 99.0233 75.7233 102.714C79.4142 106.405 84.4201 108.479 89.6398 108.479H89.8873C90.016 108.479 90.1439 108.475 90.2711 108.468C95.3805 108.306 100.226 106.162 103.783 102.49C107.339 98.818 109.328 93.9063 109.327 88.7944C109.326 83.6824 107.337 78.7713 103.779 75.1004C100.222 71.4295 95.3752 69.2868 90.2658 69.1259ZM104.724 81.7376H100.837C100.29 79.1163 99.2915 76.6103 97.8853 74.3315C100.869 76.0409 103.256 78.6264 104.721 81.7376H104.724ZM91.1446 72.3309C93.9582 73.1635 96.4706 76.7417 97.7302 81.7376H91.1446V72.3309ZM88.1168 72.5148V81.7376H82.049C83.2284 77.0475 85.5136 73.6086 88.1168 72.5148ZM82.1656 73.9174C80.6074 76.2979 79.5124 78.951 78.9379 81.7376H74.5582C76.1514 78.3557 78.829 75.6033 82.1656 73.9174ZM74.4265 95.5702H78.8744C79.4355 98.4553 80.5473 101.205 82.149 103.67C78.7228 101.934 75.9966 99.0751 74.4265 95.5702ZM88.1168 105.084C85.4516 103.974 83.1338 100.42 81.9779 95.5702H88.1168V105.084ZM91.1446 105.267V95.5702H97.7975C96.5682 100.73 94.0211 104.421 91.1446 105.267ZM97.9005 103.253C99.3489 100.891 100.365 98.2891 100.901 95.5702H104.852C103.405 98.8022 100.972 101.493 97.9005 103.256V103.253ZM73.4114 92.5424C72.8228 89.9807 72.8464 87.3163 73.4803 84.7654H105.802C106.436 87.3163 106.46 89.9807 105.871 92.5424H73.4114Z" fill="#0055DC"/>
<path d="M84.2889 89.2988H84.2571L83.7053 86.9348H82.5471L82.0097 89.3147H81.9786L81.4775 86.9348H80.2899L81.2573 90.6507H82.5252L83.1058 88.4858H83.1466L83.7272 90.6507H84.9928L85.9625 86.9348H84.7748L84.2889 89.2988Z" fill="#0055DC"/>
<path d="M90.1651 89.2988H90.1333L89.5823 86.9348H88.4234L87.8859 89.3147H87.8549L87.3538 86.9348H86.1661L87.1335 90.6507H88.4014L88.982 88.4858H89.0229L89.6035 90.6507H90.8691L91.8388 86.9348H90.6511L90.1651 89.2988Z" fill="#0055DC"/>
<path d="M96.0414 89.2988H96.0096L95.4585 86.9348H94.2996L93.7622 89.3147H93.7312L93.2301 86.9348H92.0424L93.0098 90.6507H94.2777L94.8583 88.4858H94.8991L95.4805 90.6507H96.7454L97.7158 86.9348H96.5274L96.0414 89.2988Z" fill="#0055DC"/>
<path d="M98.3539 89.4699C98.271 89.4683 98.1887 89.4837 98.112 89.5152C98.0353 89.5467 97.9659 89.5936 97.9081 89.6531C97.8484 89.7093 97.8013 89.7775 97.7698 89.8531C97.7382 89.9287 97.7229 90.0102 97.7249 90.0921C97.7227 90.175 97.7379 90.2574 97.7694 90.334C97.801 90.4106 97.8482 90.4799 97.9081 90.5372C97.9658 90.5968 98.0352 90.6438 98.1119 90.6755C98.1886 90.7071 98.2709 90.7227 98.3539 90.7211C98.4628 90.722 98.5698 90.6924 98.6627 90.6356C98.7557 90.5795 98.8337 90.5015 98.8898 90.4085C98.9489 90.3132 98.9803 90.2034 98.9807 90.0913C98.9809 90.0088 98.9639 89.9271 98.9308 89.8516C98.8977 89.776 98.8492 89.7081 98.7884 89.6523C98.7318 89.5944 98.6642 89.5484 98.5896 89.5171C98.515 89.4858 98.4348 89.4697 98.3539 89.4699Z" fill="#0055DC"/>
<path d="M180.014 129.03C183.338 129.03 185.309 126.973 185.309 123.564C185.309 120.166 183.338 118.12 180.089 118.12H176.317V129.03H180.014ZM178.293 127.32V119.83H179.977C182.193 119.83 183.349 121.066 183.349 123.564C183.349 126.073 182.193 127.32 179.918 127.32H178.293Z" fill="#222222"/>
<path d="M190.723 129.189C192.63 129.189 193.941 128.257 194.282 126.835L192.481 126.633C192.22 127.325 191.581 127.687 190.75 127.687C189.504 127.687 188.678 126.867 188.662 125.466H194.361V124.875C194.361 122.004 192.636 120.741 190.622 120.741C188.278 120.741 186.75 122.462 186.75 124.987C186.75 127.554 188.257 129.189 190.723 129.189ZM188.667 124.166C188.726 123.122 189.498 122.243 190.649 122.243C191.757 122.243 192.502 123.053 192.513 124.166H188.667Z" fill="#222222"/>
<path d="M203.067 120.848H201.016L199.13 126.926H199.045L197.165 120.848H195.109L198.022 129.03H200.153L203.067 120.848Z" fill="#222222"/>
<path d="M207.745 129.189C209.652 129.189 210.962 128.257 211.303 126.835L209.503 126.633C209.242 127.325 208.602 127.687 207.771 127.687C206.525 127.687 205.699 126.867 205.683 125.466H211.383V124.875C211.383 122.004 209.657 120.741 207.644 120.741C205.3 120.741 203.771 122.462 203.771 124.987C203.771 127.554 205.279 129.189 207.745 129.189ZM205.689 124.166C205.747 123.122 206.52 122.243 207.67 122.243C208.778 122.243 209.524 123.053 209.535 124.166H205.689Z" fill="#222222"/>
<path d="M214.943 118.12H213.014V129.03H214.943V118.12Z" fill="#222222"/>
<path d="M220.494 129.189C222.891 129.189 224.415 127.501 224.415 124.971C224.415 122.435 222.891 120.741 220.494 120.741C218.097 120.741 216.574 122.435 216.574 124.971C216.574 127.501 218.097 129.189 220.494 129.189ZM220.505 127.645C219.179 127.645 218.529 126.462 218.529 124.965C218.529 123.468 219.179 122.27 220.505 122.27C221.81 122.27 222.46 123.468 222.46 124.965C222.46 126.462 221.81 127.645 220.505 127.645Z" fill="#222222"/>
<path d="M226.051 132.098H227.98V127.741H228.06C228.363 128.337 228.997 129.173 230.403 129.173C232.332 129.173 233.775 127.645 233.775 124.949C233.775 122.222 232.289 120.741 230.398 120.741C228.954 120.741 228.353 121.609 228.06 122.201H227.948V120.848H226.051V132.098ZM227.942 124.939C227.942 123.351 228.624 122.323 229.865 122.323C231.149 122.323 231.81 123.415 231.81 124.939C231.81 126.473 231.138 127.591 229.865 127.591C228.635 127.591 227.942 126.526 227.942 124.939Z" fill="#222222"/>
<path d="M239.049 129.189C240.955 129.189 242.266 128.257 242.607 126.835L240.806 126.633C240.545 127.325 239.906 127.687 239.075 127.687C237.829 127.687 237.003 126.867 236.987 125.466H242.687V124.875C242.687 122.004 240.961 120.741 238.947 120.741C236.604 120.741 235.075 122.462 235.075 124.987C235.075 127.554 236.582 129.189 239.049 129.189ZM236.992 124.166C237.051 123.122 237.823 122.243 238.974 122.243C240.082 122.243 240.828 123.053 240.838 124.166H236.992Z" fill="#222222"/>
<path d="M244.318 129.03H246.246V124.22C246.246 123.181 247.029 122.446 248.089 122.446C248.414 122.446 248.819 122.504 248.984 122.558V120.784C248.808 120.752 248.505 120.731 248.292 120.731C247.354 120.731 246.571 121.263 246.273 122.211H246.188V120.848H244.318V129.03Z" fill="#222222"/>
<path d="M187.68 139.119H189.582C189.545 137.276 187.973 135.971 185.651 135.971C183.36 135.971 181.64 137.26 181.645 139.189C181.645 140.755 182.759 141.655 184.554 142.118L185.795 142.438C186.972 142.736 187.75 143.104 187.755 143.951C187.75 144.883 186.865 145.506 185.576 145.506C184.341 145.506 183.382 144.952 183.302 143.807H181.358C181.438 145.975 183.052 147.195 185.592 147.195C188.208 147.195 189.726 145.89 189.731 143.967C189.726 142.076 188.165 141.213 186.525 140.824L185.502 140.568C184.607 140.355 183.637 139.977 183.648 139.066C183.653 138.246 184.389 137.644 185.624 137.644C186.802 137.644 187.579 138.193 187.68 139.119Z" fill="#222222"/>
<path d="M195.03 147.189C196.937 147.189 198.247 146.257 198.588 144.835L196.788 144.633C196.527 145.325 195.888 145.687 195.057 145.687C193.81 145.687 192.985 144.867 192.969 143.466H198.668V142.875C198.668 140.004 196.942 138.741 194.929 138.741C192.585 138.741 191.056 140.462 191.056 142.987C191.056 145.554 192.564 147.189 195.03 147.189ZM192.974 142.166C193.032 141.122 193.805 140.243 194.955 140.243C196.063 140.243 196.809 141.053 196.82 142.166H192.974Z" fill="#222222"/>
<path d="M200.299 147.03H202.228V142.22C202.228 141.181 203.011 140.446 204.071 140.446C204.396 140.446 204.8 140.504 204.966 140.558V138.784C204.79 138.752 204.486 138.731 204.273 138.731C203.336 138.731 202.553 139.263 202.254 140.211H202.169V138.848H200.299V147.03Z" fill="#222222"/>
<path d="M213.804 138.848H211.753L209.868 144.926H209.782L207.902 138.848H205.846L208.76 147.03H210.89L213.804 138.848Z" fill="#222222"/>
<path d="M215.138 147.03H217.067V138.848H215.138V147.03ZM216.108 137.687C216.72 137.687 217.221 137.218 217.221 136.643C217.221 136.062 216.72 135.593 216.108 135.593C215.49 135.593 214.989 136.062 214.989 136.643C214.989 137.218 215.49 137.687 216.108 137.687Z" fill="#222222"/>
<path d="M222.618 147.189C224.674 147.189 225.985 145.97 226.123 144.233H224.28C224.115 145.112 223.481 145.618 222.634 145.618C221.43 145.618 220.653 144.611 220.653 142.939C220.653 141.287 221.446 140.297 222.634 140.297C223.561 140.297 224.131 140.893 224.28 141.682H226.123C225.99 139.908 224.605 138.741 222.608 138.741C220.211 138.741 218.698 140.472 218.698 142.971C218.698 145.448 220.173 147.189 222.618 147.189Z" fill="#222222"/>
<path d="M231.329 147.189C233.236 147.189 234.546 146.257 234.887 144.835L233.087 144.633C232.826 145.325 232.186 145.687 231.355 145.687C230.109 145.687 229.283 144.867 229.267 143.466H234.967V142.875C234.967 140.004 233.241 138.741 231.228 138.741C228.884 138.741 227.355 140.462 227.355 142.987C227.355 145.554 228.863 147.189 231.329 147.189ZM229.273 142.166C229.331 141.122 230.104 140.243 231.254 140.243C232.362 140.243 233.108 141.053 233.119 142.166H229.273Z" fill="#222222"/>
<path d="M243.065 141.01C242.799 139.625 241.691 138.741 239.773 138.741C237.802 138.741 236.46 139.711 236.465 141.223C236.46 142.417 237.195 143.205 238.766 143.53L240.162 143.823C240.913 143.988 241.264 144.292 241.264 144.755C241.264 145.314 240.657 145.735 239.741 145.735C238.857 145.735 238.281 145.352 238.116 144.617L236.236 144.798C236.476 146.3 237.738 147.189 239.746 147.189C241.792 147.189 243.235 146.129 243.241 144.579C243.235 143.413 242.484 142.699 240.94 142.363L239.544 142.065C238.713 141.879 238.383 141.591 238.388 141.117C238.383 140.563 238.995 140.179 239.8 140.179C240.689 140.179 241.158 140.664 241.307 141.202L243.065 141.01Z" fill="#222222"/>
<path d="M205.057 87.7228L196.813 83.0903L205.057 78.4501V74.9757L192.983 81.7656V84.4074L205.057 91.1973V87.7228Z" fill="#0055DC"/>
<path d="M220.544 86.9734V90.4479L228.719 95.0426L220.544 99.6449V103.119L232.542 96.3597V93.7255L220.544 86.9734Z" fill="#0055DC"/>
<path d="M220.128 69.0865L201.878 108.441H205.216L223.458 69.0865H220.128Z" fill="#0055DC"/>
<path d="M298.668 129.03H306.743V127.373H301.124L306.711 119.351V118.12H298.636V119.777H304.261L298.668 127.799V129.03Z" fill="#222222"/>
<path d="M312.193 129.189C314.099 129.189 315.41 128.257 315.751 126.835L313.95 126.633C313.689 127.325 313.05 127.687 312.219 127.687C310.973 127.687 310.147 126.867 310.131 125.466H315.831V124.875C315.831 122.004 314.105 120.741 312.091 120.741C309.748 120.741 308.219 122.462 308.219 124.987C308.219 127.554 309.726 129.189 312.193 129.189ZM310.136 124.166C310.195 123.122 310.967 122.243 312.118 122.243C313.226 122.243 313.972 123.053 313.982 124.166H310.136Z" fill="#222222"/>
<path d="M317.462 129.03H319.39V124.22C319.39 123.181 320.173 122.446 321.233 122.446C321.558 122.446 321.963 122.504 322.128 122.558V120.784C321.952 120.752 321.649 120.731 321.436 120.731C320.498 120.731 319.715 121.263 319.417 122.211H319.332V120.848H317.462V129.03Z" fill="#222222"/>
<path d="M326.641 129.189C329.038 129.189 330.562 127.501 330.562 124.971C330.562 122.435 329.038 120.741 326.641 120.741C324.244 120.741 322.721 122.435 322.721 124.971C322.721 127.501 324.244 129.189 326.641 129.189ZM326.652 127.645C325.326 127.645 324.676 126.462 324.676 124.965C324.676 123.468 325.326 122.27 326.652 122.27C327.957 122.27 328.607 123.468 328.607 124.965C328.607 126.462 327.957 127.645 326.652 127.645Z" fill="#222222"/>
<path d="M335.525 119.777H338.897V129.03H340.857V119.777H344.229V118.12H335.525V119.777Z" fill="#222222"/>
<path d="M344.972 129.03H346.9V124.22C346.9 123.181 347.683 122.446 348.743 122.446C349.068 122.446 349.473 122.504 349.638 122.558V120.784C349.462 120.752 349.159 120.731 348.945 120.731C348.008 120.731 347.225 121.263 346.927 122.211H346.841V120.848H344.972V129.03Z" fill="#222222"/>
<path d="M356.134 125.589C356.134 126.835 355.244 127.453 354.392 127.453C353.465 127.453 352.847 126.798 352.847 125.759V120.848H350.919V126.057C350.919 128.023 352.038 129.136 353.646 129.136C354.871 129.136 355.734 128.492 356.107 127.575H356.192V129.03H358.062V120.848H356.134V125.589Z" fill="#222222"/>
<path d="M366.512 123.01C366.245 121.625 365.137 120.741 363.22 120.741C361.249 120.741 359.906 121.711 359.912 123.223C359.906 124.417 360.642 125.205 362.213 125.53L363.609 125.823C364.36 125.988 364.711 126.292 364.711 126.755C364.711 127.314 364.104 127.735 363.188 127.735C362.303 127.735 361.728 127.352 361.563 126.617L359.683 126.798C359.922 128.3 361.185 129.189 363.193 129.189C365.239 129.189 366.682 128.129 366.687 126.579C366.682 125.413 365.931 124.699 364.386 124.363L362.991 124.065C362.16 123.879 361.829 123.591 361.835 123.117C361.829 122.563 362.442 122.179 363.246 122.179C364.136 122.179 364.605 122.664 364.754 123.202L366.512 123.01Z" fill="#222222"/>
<path d="M372.363 120.848H370.749V118.888H368.821V120.848H367.659V122.339H368.821V126.888C368.81 128.428 369.929 129.184 371.378 129.141C371.926 129.125 372.304 129.019 372.512 128.95L372.187 127.442C372.081 127.469 371.862 127.517 371.623 127.517C371.138 127.517 370.749 127.346 370.749 126.569V122.339H372.363V120.848Z" fill="#222222"/>
<path d="M310.812 139.119H312.714C312.677 137.276 311.105 135.971 308.783 135.971C306.492 135.971 304.772 137.26 304.777 139.189C304.777 140.755 305.89 141.655 307.685 142.118L308.927 142.438C310.104 142.736 310.881 143.104 310.887 143.951C310.881 144.883 309.997 145.506 308.708 145.506C307.472 145.506 306.514 144.952 306.434 143.807H304.489C304.569 145.975 306.183 147.195 308.724 147.195C311.34 147.195 312.858 145.89 312.863 143.967C312.858 142.076 311.297 141.213 309.656 140.824L308.634 140.568C307.739 140.355 306.769 139.977 306.78 139.066C306.785 138.246 307.52 137.644 308.756 137.644C309.933 137.644 310.711 138.193 310.812 139.119Z" fill="#222222"/>
<path d="M318.162 147.189C320.069 147.189 321.379 146.257 321.72 144.835L319.92 144.633C319.659 145.325 319.019 145.687 318.188 145.687C316.942 145.687 316.116 144.867 316.1 143.466H321.8V142.875C321.8 140.004 320.074 138.741 318.061 138.741C315.717 138.741 314.188 140.462 314.188 142.987C314.188 145.554 315.695 147.189 318.162 147.189ZM316.106 142.166C316.164 141.122 316.937 140.243 318.087 140.243C319.195 140.243 319.941 141.053 319.952 142.166H316.106Z" fill="#222222"/>
<path d="M323.431 147.03H325.359V142.22C325.359 141.181 326.142 140.446 327.202 140.446C327.527 140.446 327.932 140.504 328.097 140.558V138.784C327.922 138.752 327.618 138.731 327.405 138.731C326.467 138.731 325.684 139.263 325.386 140.211H325.301V138.848H323.431V147.03Z" fill="#222222"/>
<path d="M336.936 138.848H334.885L332.999 144.926H332.914L331.034 138.848H328.978L331.891 147.03H334.022L336.936 138.848Z" fill="#222222"/>
<path d="M338.27 147.03H340.198V138.848H338.27V147.03ZM339.24 137.687C339.852 137.687 340.353 137.218 340.353 136.643C340.353 136.062 339.852 135.593 339.24 135.593C338.622 135.593 338.121 136.062 338.121 136.643C338.121 137.218 338.622 137.687 339.24 137.687Z" fill="#222222"/>
<path d="M345.75 147.189C347.806 147.189 349.117 145.97 349.255 144.233H347.412C347.247 145.112 346.613 145.618 345.766 145.618C344.562 145.618 343.785 144.611 343.785 142.939C343.785 141.287 344.578 140.297 345.766 140.297C346.693 140.297 347.263 140.893 347.412 141.682H349.255C349.122 139.908 347.737 138.741 345.739 138.741C343.342 138.741 341.83 140.472 341.83 142.971C341.83 145.448 343.305 147.189 345.75 147.189Z" fill="#222222"/>
<path d="M354.461 147.189C356.368 147.189 357.678 146.257 358.019 144.835L356.218 144.633C355.957 145.325 355.318 145.687 354.487 145.687C353.241 145.687 352.415 144.867 352.399 143.466H358.099V142.875C358.099 140.004 356.373 138.741 354.359 138.741C352.016 138.741 350.487 140.462 350.487 142.987C350.487 145.554 351.994 147.189 354.461 147.189ZM352.404 142.166C352.463 141.122 353.235 140.243 354.386 140.243C355.494 140.243 356.24 141.053 356.25 142.166H352.404Z" fill="#222222"/>
<path d="M366.197 141.01C365.93 139.625 364.822 138.741 362.905 138.741C360.934 138.741 359.592 139.711 359.597 141.223C359.592 142.417 360.327 143.205 361.898 143.53L363.294 143.823C364.045 143.988 364.396 144.292 364.396 144.755C364.396 145.314 363.789 145.735 362.873 145.735C361.989 145.735 361.413 145.352 361.248 144.617L359.368 144.798C359.608 146.3 360.87 147.189 362.878 147.189C364.924 147.189 366.367 146.129 366.372 144.579C366.367 143.413 365.616 142.699 364.071 142.363L362.676 142.065C361.845 141.879 361.514 141.591 361.52 141.117C361.514 140.563 362.127 140.179 362.931 140.179C363.821 140.179 364.29 140.664 364.439 141.202L366.197 141.01Z" fill="#222222"/>
<path d="M334.6 95.2697L336.742 97.4119L344.682 89.4714L336.742 81.5385L334.6 83.6807L338.884 87.9575H316.221V90.9854H338.884L334.6 95.2697Z" fill="#0055DC"/>
<path d="M350.602 75.006L349.565 74.8622C345.18 74.2144 341.11 72.2046 337.93 69.1169L337.03 68.1025H334.759L333.881 69.1169C330.71 72.2046 326.647 74.2148 322.269 74.8622L321.232 75.006L319.93 76.5199V85.013H322.958V77.8219C327.822 77.038 332.334 74.7941 335.894 71.3877C339.468 74.8003 343.996 77.0445 348.876 77.8219V87.2081C348.876 99.592 337.408 106.003 335.894 106.775C334.736 106.208 327.25 101.992 324.214 94.0964H321.005C324.343 104.262 334.191 109.304 334.691 109.554L335.228 109.826H336.583L337.12 109.554C337.726 109.258 351.904 101.984 351.904 87.2081V76.5048L350.602 75.006Z" fill="#0055DC"/>
<path d="M437.734 118.12H435.769V125.557H435.673L430.538 118.12H428.77V129.03H430.746V121.599H430.836L435.977 129.03H437.734V118.12Z" fill="#222222"/>
<path d="M443.425 129.189C445.332 129.189 446.642 128.257 446.983 126.835L445.182 126.633C444.921 127.325 444.282 127.687 443.451 127.687C442.205 127.687 441.379 126.867 441.363 125.466H447.063V124.875C447.063 122.004 445.337 120.741 443.323 120.741C440.98 120.741 439.451 122.462 439.451 124.987C439.451 127.554 440.958 129.189 443.425 129.189ZM441.369 124.166C441.427 123.122 442.199 122.243 443.35 122.243C444.458 122.243 445.204 123.053 445.214 124.166H441.369Z" fill="#222222"/>
<path d="M452.78 120.848H451.166V118.888H449.237V120.848H448.076V122.339H449.237V126.888C449.227 128.428 450.345 129.184 451.794 129.141C452.343 129.125 452.721 129.019 452.929 128.95L452.604 127.442C452.497 127.469 452.279 127.517 452.039 127.517C451.555 127.517 451.166 127.346 451.166 126.569V122.339H452.78V120.848Z" fill="#222222"/>
<path d="M456.081 129.03H458.094L459.628 123.5H459.74L461.274 129.03H463.283L465.6 120.848H463.629L462.212 126.569H462.132L460.662 120.848H458.718L457.247 126.601H457.173L455.735 120.848H453.769L456.081 129.03Z" fill="#222222"/>
<path d="M470.295 129.189C472.692 129.189 474.216 127.501 474.216 124.971C474.216 122.435 472.692 120.741 470.295 120.741C467.898 120.741 466.375 122.435 466.375 124.971C466.375 127.501 467.898 129.189 470.295 129.189ZM470.306 127.645C468.98 127.645 468.33 126.462 468.33 124.965C468.33 123.468 468.98 122.27 470.306 122.27C471.611 122.27 472.261 123.468 472.261 124.965C472.261 126.462 471.611 127.645 470.306 127.645Z" fill="#222222"/>
<path d="M475.852 129.03H477.781V124.22C477.781 123.181 478.564 122.446 479.624 122.446C479.949 122.446 480.353 122.504 480.518 122.558V120.784C480.343 120.752 480.039 120.731 479.826 120.731C478.889 120.731 478.105 121.263 477.807 122.211H477.722V120.848H475.852V129.03Z" fill="#222222"/>
<path d="M481.8 129.03H483.728V126.281L484.431 125.53L486.934 129.03H489.241L485.885 124.379L489.055 120.848H486.801L483.861 124.134H483.728V118.12H481.8V129.03Z" fill="#222222"/>
<path d="M433.944 139.119H435.845C435.808 137.276 434.237 135.971 431.914 135.971C429.624 135.971 427.903 137.26 427.909 139.189C427.909 140.755 429.022 141.655 430.817 142.118L432.058 142.438C433.235 142.736 434.013 143.104 434.018 143.951C434.013 144.883 433.129 145.506 431.84 145.506C430.604 145.506 429.645 144.952 429.565 143.807H427.621C427.701 145.975 429.315 147.195 431.856 147.195C434.471 147.195 435.989 145.89 435.995 143.967C435.989 142.076 434.428 141.213 432.788 140.824L431.765 140.568C430.87 140.355 429.901 139.977 429.911 139.066C429.917 138.246 430.652 137.644 431.888 137.644C433.065 137.644 433.843 138.193 433.944 139.119Z" fill="#222222"/>
<path d="M441.293 147.189C443.2 147.189 444.511 146.257 444.852 144.835L443.051 144.633C442.79 145.325 442.151 145.687 441.32 145.687C440.073 145.687 439.248 144.867 439.232 143.466H444.931V142.875C444.931 140.004 443.206 138.741 441.192 138.741C438.848 138.741 437.32 140.462 437.32 142.987C437.32 145.554 438.827 147.189 441.293 147.189ZM439.237 142.166C439.296 141.122 440.068 140.243 441.219 140.243C442.327 140.243 443.072 141.053 443.083 142.166H439.237Z" fill="#222222"/>
<path d="M446.563 147.03H448.491V142.22C448.491 141.181 449.274 140.446 450.334 140.446C450.659 140.446 451.064 140.504 451.229 140.558V138.784C451.053 138.752 450.75 138.731 450.536 138.731C449.599 138.731 448.816 139.263 448.518 140.211H448.432V138.848H446.563V147.03Z" fill="#222222"/>
<path d="M460.067 138.848H458.016L456.131 144.926H456.046L454.165 138.848H452.109L455.023 147.03H457.154L460.067 138.848Z" fill="#222222"/>
<path d="M461.402 147.03H463.33V138.848H461.402V147.03ZM462.371 137.687C462.984 137.687 463.484 137.218 463.484 136.643C463.484 136.062 462.984 135.593 462.371 135.593C461.753 135.593 461.252 136.062 461.252 136.643C461.252 137.218 461.753 137.687 462.371 137.687Z" fill="#222222"/>
<path d="M468.882 147.189C470.938 147.189 472.248 145.97 472.387 144.233H470.544C470.378 145.112 469.745 145.618 468.898 145.618C467.694 145.618 466.916 144.611 466.916 142.939C466.916 141.287 467.71 140.297 468.898 140.297C469.824 140.297 470.394 140.893 470.544 141.682H472.387C472.253 139.908 470.868 138.741 468.871 138.741C466.474 138.741 464.961 140.472 464.961 142.971C464.961 145.448 466.437 147.189 468.882 147.189Z" fill="#222222"/>
<path d="M477.592 147.189C479.499 147.189 480.809 146.257 481.15 144.835L479.35 144.633C479.089 145.325 478.45 145.687 477.619 145.687C476.372 145.687 475.547 144.867 475.531 143.466H481.23V142.875C481.23 140.004 479.504 138.741 477.491 138.741C475.147 138.741 473.618 140.462 473.618 142.987C473.618 145.554 475.126 147.189 477.592 147.189ZM475.536 142.166C475.595 141.122 476.367 140.243 477.518 140.243C478.626 140.243 479.371 141.053 479.382 142.166H475.536Z" fill="#222222"/>
<path d="M489.328 141.01C489.062 139.625 487.954 138.741 486.036 138.741C484.065 138.741 482.723 139.711 482.728 141.223C482.723 142.417 483.458 143.205 485.03 143.53L486.425 143.823C487.176 143.988 487.528 144.292 487.528 144.755C487.528 145.314 486.921 145.735 486.004 145.735C485.12 145.735 484.545 145.352 484.38 144.617L482.499 144.798C482.739 146.3 484.001 147.189 486.01 147.189C488.055 147.189 489.499 146.129 489.504 144.579C489.499 143.413 488.748 142.699 487.203 142.363L485.807 142.065C484.976 141.879 484.646 141.591 484.651 141.117C484.646 140.563 485.259 140.179 486.063 140.179C486.952 140.179 487.421 140.664 487.57 141.202L489.328 141.01Z" fill="#222222"/>
<path d="M480.032 74.9756C480.028 73.583 479.531 72.2368 478.629 71.1753C477.728 70.1139 476.48 69.4057 475.106 69.1763C473.733 68.947 472.322 69.2111 471.125 69.9221C469.927 70.633 469.02 71.7448 468.564 73.0605L449.594 73C449.503 71.9162 449.113 70.879 448.468 70.0032C447.823 69.1274 446.948 68.4474 445.941 68.0384C444.933 67.6294 443.832 67.5074 442.759 67.6861C441.686 67.8647 440.684 68.3369 439.863 69.0504C439.042 69.7639 438.435 70.6908 438.108 71.7283C437.782 72.7658 437.749 73.8734 438.014 74.9283C438.279 75.9832 438.83 76.9442 439.608 77.7048C440.385 78.4654 441.358 78.9958 442.418 79.2373L445.764 99.0317C444.907 99.5441 444.194 100.266 443.692 101.13C443.191 101.993 442.917 102.971 442.897 103.969C442.877 104.968 443.111 105.955 443.578 106.838C444.045 107.721 444.728 108.471 445.564 109.017C446.4 109.564 447.362 109.888 448.358 109.961C449.354 110.033 450.352 109.851 451.259 109.432C452.165 109.012 452.95 108.369 453.539 107.563C454.129 106.756 454.503 105.813 454.628 104.822L466.596 101.348C467.093 102.141 467.772 102.805 468.578 103.283C469.383 103.761 470.29 104.04 471.225 104.098C472.159 104.155 473.094 103.988 473.952 103.612C474.809 103.236 475.564 102.661 476.155 101.934C476.746 101.207 477.154 100.35 477.348 99.434C477.541 98.5178 477.512 97.5687 477.265 96.6655C477.018 95.7623 476.559 94.931 475.927 94.2407C475.294 93.5503 474.506 93.0208 473.628 92.696L475.437 80.7134C476.74 80.4198 477.904 79.692 478.739 78.6494C479.574 77.6068 480.03 76.3113 480.032 74.9756V74.9756ZM468.034 93.5287L460.184 89.0778C460.336 88.5511 460.415 88.006 460.419 87.4579C460.416 86.8109 460.306 86.1689 460.093 85.5579L470.131 79.2903C470.779 79.8965 471.555 80.3492 472.401 80.615L470.638 92.4008C469.69 92.5556 468.795 92.9431 468.034 93.5287V93.5287ZM468.503 76.7318L458.413 83.0372C457.575 82.294 456.541 81.8064 455.434 81.632C454.328 81.4577 453.194 81.6038 452.168 82.0532L448.489 76.9513C448.699 76.6597 448.884 76.3508 449.042 76.0278L468.344 76.0884C468.39 76.3079 468.443 76.5198 468.503 76.7318V76.7318ZM451.653 87.4579C451.65 86.8898 451.816 86.3337 452.129 85.8599C452.443 85.3861 452.89 85.0161 453.414 84.7966C453.938 84.5771 454.515 84.5182 455.072 84.6272C455.63 84.7361 456.143 85.0082 456.545 85.4088C456.948 85.8094 457.223 86.3205 457.335 86.8774C457.447 87.4344 457.391 88.012 457.174 88.5371C456.957 89.0622 456.59 89.5111 456.118 89.827C455.645 90.1429 455.09 90.3116 454.522 90.3116C453.764 90.3116 453.036 90.0114 452.499 89.4767C451.961 88.9419 451.657 88.2161 451.653 87.4579V87.4579ZM474.165 72.1446C474.733 72.1446 475.287 72.3129 475.759 72.6281C476.231 72.9434 476.598 73.3914 476.816 73.9156C477.033 74.4398 477.09 75.0167 476.979 75.5732C476.868 76.1297 476.595 76.6409 476.194 77.0421C475.793 77.4433 475.281 77.7165 474.725 77.8272C474.168 77.9379 473.591 77.8811 473.067 77.664C472.543 77.4468 472.095 77.0791 471.78 76.6073C471.465 76.1356 471.296 75.5809 471.296 75.0135C471.296 74.2526 471.599 73.5229 472.137 72.9849C472.675 72.4469 473.404 72.1446 474.165 72.1446V72.1446ZM440.859 73.492C440.859 72.9246 441.027 72.3699 441.343 71.8982C441.658 71.4264 442.106 71.0587 442.63 70.8415C443.154 70.6244 443.731 70.5676 444.288 70.6783C444.844 70.789 445.355 71.0622 445.756 71.4634C446.158 71.8646 446.431 72.3758 446.542 72.9323C446.652 73.4888 446.596 74.0657 446.378 74.5899C446.161 75.1141 445.794 75.5621 445.322 75.8774C444.85 76.1926 444.295 76.3609 443.728 76.3609C442.967 76.3609 442.237 76.0586 441.699 75.5206C441.161 74.9826 440.859 74.2529 440.859 73.492ZM445.469 79.1238C445.699 79.0538 445.924 78.9678 446.143 78.8664L449.799 83.9456C449.322 84.5819 448.979 85.3084 448.791 86.0811C448.604 86.8537 448.575 87.6565 448.706 88.4407C448.838 89.2249 449.127 89.9742 449.557 90.6432C449.987 91.3122 450.548 91.887 451.207 92.3327L449.254 98.2142C449.095 98.2142 448.943 98.2142 448.784 98.2142H448.694L445.469 79.1238ZM448.784 106.965C448.217 106.965 447.662 106.796 447.19 106.481C446.718 106.165 446.35 105.717 446.133 105.192C445.916 104.667 445.86 104.09 445.971 103.533C446.082 102.977 446.356 102.465 446.758 102.065C447.16 101.664 447.672 101.391 448.229 101.281C448.786 101.171 449.363 101.229 449.887 101.447C450.412 101.666 450.859 102.035 451.173 102.507C451.488 102.98 451.655 103.536 451.653 104.103C451.651 104.863 451.348 105.591 450.81 106.127C450.272 106.663 449.544 106.965 448.784 106.965V106.965ZM454.219 101.81C453.777 100.767 453.044 99.8737 452.107 99.2361L454.068 93.3394C454.219 93.3394 454.363 93.3394 454.522 93.3394C456.056 93.3387 457.528 92.7383 458.625 91.6666L466.194 95.9282C465.896 96.6482 465.742 97.4197 465.74 98.1991C465.74 98.2824 465.74 98.3581 465.74 98.4413L454.219 101.81ZM471.629 101.098C471.062 101.098 470.507 100.93 470.035 100.615C469.564 100.3 469.196 99.8515 468.979 99.3272C468.762 98.803 468.705 98.2262 468.816 97.6697C468.926 97.1132 469.2 96.602 469.601 96.2008C470.002 95.7996 470.513 95.5263 471.07 95.4156C471.626 95.3049 472.203 95.3617 472.727 95.5789C473.251 95.796 473.699 96.1637 474.015 96.6355C474.33 97.1073 474.498 97.662 474.498 98.2294C474.496 98.6074 474.42 98.9813 474.273 99.3296C474.126 99.6779 473.911 99.9937 473.642 100.259C473.372 100.524 473.053 100.733 472.703 100.875C472.352 101.016 471.977 101.087 471.599 101.083L471.629 101.098Z" fill="#0055DC"/>
<path fill-rule="evenodd" clip-rule="evenodd" d="M146.16 58.5103H32.0928V158.447H146.16V58.5103ZM31.0928 57.5103V159.447H147.16V57.5103H31.0928Z" fill="#0055DC"/>
<path fill-rule="evenodd" clip-rule="evenodd" d="M269.291 58.5103H155.224V158.447H269.291V58.5103ZM154.224 57.5103V159.447H270.291V57.5103H154.224Z" fill="#0055DC"/>
<path fill-rule="evenodd" clip-rule="evenodd" d="M515.555 167.512H32.0928V267.449H515.555V167.512ZM31.0928 166.512V268.449H516.555V166.512H31.0928Z" fill="#0055DC"/>
<path fill-rule="evenodd" clip-rule="evenodd" d="M392.423 58.5103H278.356V158.447H392.423V58.5103ZM277.356 57.5103V159.447H393.423V57.5103H277.356Z" fill="#0055DC"/>
<path fill-rule="evenodd" clip-rule="evenodd" d="M515.555 58.5103H401.488V158.447H515.555V58.5103ZM400.488 57.5103V159.447H516.555V57.5103H400.488Z" fill="#0055DC"/>
</svg>
